NotoSansGurmukhi-Regular.ufo
<glyph name="quotedbl.guru" format="2">
  <advance width="502"/>
  <unicode hex="0022"/>
  <outline>
    <contour>
      <point x="133" y="471" type="line"/>
      <point x="194" y="471" type="line"/>
      <point x="219" y="729" type="line"/>
      <point x="108" y="729" type="line"/>
    </contour>
    <contour>
      <point x="309" y="471" type="line"/>
      <point x="369" y="471" type="line"/>
      <point x="394" y="729" type="line"/>
      <point x="284" y="729" type="line"/>
    </contour>
  </outline>
</glyph>
<glyph name="quotesingle.guru" format="2">
  <advance width="326"/>
  <unicode hex="0027"/>
  <outline>
    <contour>
      <point x="132" y="471" type="line"/>
      <point x="193" y="471" type="line"/>
      <point x="218" y="729" type="line"/>
      <point x="107" y="729" type="line"/>
    </contour>
  </outline>
</glyph>
<glyph name="asterisk.guru" format="2">
  <advance width="607"/>
  <unicode hex="002A"/>
  <outline>
    <contour>
      <point x="134" y="340" type="line"/>
      <point x="224" y="293" type="line"/>
      <point x="301" y="468" type="line"/>
      <point x="387" y="293" type="line"/>
      <point x="474" y="340" type="line"/>
      <point x="354" y="499" type="line"/>
      <point x="539" y="513" type="line"/>
      <point x="526" y="607" type="line"/>
      <point x="332" y="553" type="line"/>
      <point x="353" y="745" type="line"/>
      <point x="253" y="745" type="line"/>
      <point x="274" y="553" type="line"/>
      <point x="83" y="607" type="line"/>
      <point x="69" y="513" type="line"/>
      <point x="252" y="499" type="line"/>
    </contour>
  </outline>
</glyph>
<glyph name="plus.guru" format="2">
  <advance width="551"/>
  <unicode hex="002B"/>
  <outline>
    <contour>
      <point x="239" y="286" type="line"/>
      <point x="239" y="97" type="line"/>
      <point x="312" y="97" type="line"/>
      <point x="312" y="286" type="line"/>
      <point x="501" y="286" type="line"/>
      <point x="501" y="359" type="line"/>
      <point x="312" y="359" type="line"/>
      <point x="312" y="548" type="line"/>
      <point x="239" y="548" type="line"/>
      <point x="239" y="359" type="line"/>
      <point x="50" y="359" type="line"/>
      <point x="50" y="286" type="line"/>
    </contour>
  </outline>
</glyph>
<glyph name="hyphen.guru" format="2">
  <advance width="340"/>
  <unicode hex="002D"/>
  <outline>
    <contour>
      <point x="49" y="338" type="line"/>
      <point x="49" y="256" type="line"/>
      <point x="291" y="256" type="line"/>
      <point x="291" y="338" type="line"/>
    </contour>
  </outline>
</glyph>
<glyph name="zero.guru" format="2">
  <advance width="551"/>
  <unicode hex="0030"/>
  <outline>
    <contour>
      <point x="275" y="-10" type="curve" smooth="yes"/>
      <point x="441" y="-10"/>
      <point x="504" y="127"/>
      <point x="504" y="358" type="curve" smooth="yes"/>
      <point x="504" y="590"/>
      <point x="429" y="725"/>
      <point x="275" y="725" type="curve" smooth="yes"/>
      <point x="111" y="725"/>
      <point x="48" y="589"/>
      <point x="48" y="358" type="curve" smooth="yes"/>
      <point x="48" y="127"/>
      <point x="121" y="-10"/>
    </contour>
    <contour>
      <point x="275" y="66" type="curve" smooth="yes"/>
      <point x="175" y="66"/>
      <point x="138" y="163"/>
      <point x="138" y="358" type="curve" smooth="yes"/>
      <point x="138" y="553"/>
      <point x="175" y="649"/>
      <point x="275" y="649" type="curve" smooth="yes"/>
      <point x="375" y="649"/>
      <point x="414" y="553"/>
      <point x="414" y="358" type="curve" smooth="yes"/>
      <point x="414" y="161"/>
      <point x="375" y="66"/>
    </contour>
  </outline>
</glyph>
<glyph name="six.guru" format="2">
  <advance width="551"/>
  <unicode hex="0036"/>
  <outline>
    <contour>
      <point x="290" y="-10" type="curve" smooth="yes"/>
      <point x="423" y="-10"/>
      <point x="507" y="82"/>
      <point x="507" y="230" type="curve" smooth="yes"/>
      <point x="507" y="368"/>
      <point x="427" y="447"/>
      <point x="304" y="447" type="curve" smooth="yes"/>
      <point x="227" y="447"/>
      <point x="180" y="411"/>
      <point x="154" y="364" type="curve"/>
      <point x="148" y="364" type="line"/>
      <point x="154" y="519"/>
      <point x="196" y="651"/>
      <point x="372" y="651" type="curve" smooth="yes"/>
      <point x="400" y="651"/>
      <point x="430" y="647"/>
      <point x="453" y="639" type="curve"/>
      <point x="453" y="715" type="line"/>
      <point x="432" y="721"/>
      <point x="394" y="724"/>
      <point x="369" y="724" type="curve" smooth="yes"/>
      <point x="109" y="724"/>
      <point x="57" y="510"/>
      <point x="57" y="305" type="curve" smooth="yes"/>
      <point x="57" y="91"/>
      <point x="159" y="-10"/>
    </contour>
    <contour>
      <point x="289" y="65" type="curve" smooth="yes"/>
      <point x="194" y="65"/>
      <point x="146" y="160"/>
      <point x="146" y="247" type="curve" smooth="yes"/>
      <point x="146" y="310"/>
      <point x="204" y="377"/>
      <point x="292" y="377" type="curve" smooth="yes"/>
      <point x="378" y="377"/>
      <point x="421" y="321"/>
      <point x="421" y="230" type="curve" smooth="yes"/>
      <point x="421" y="117"/>
      <point x="367" y="65"/>
    </contour>
  </outline>
</glyph>
<glyph name="seven.guru" format="2">
  <advance width="551"/>
  <unicode hex="0037"/>
  <outline>
    <contour>
      <point x="412" y="633" type="line"/>
      <point x="137" y="0" type="line"/>
      <point x="232" y="0" type="line"/>
      <point x="503" y="643" type="line"/>
      <point x="503" y="714" type="line"/>
      <point x="44" y="714" type="line"/>
      <point x="44" y="633" type="line"/>
    </contour>
  </outline>
</glyph>
<glyph name="eight.guru" format="2">
  <advance width="551"/>
  <unicode hex="0038"/>
  <outline>
    <contour>
      <point x="276" y="-10" type="curve" smooth="yes"/>
      <point x="409" y="-10"/>
      <point x="500" y="66"/>
      <point x="500" y="186" type="curve" smooth="yes"/>
      <point x="500" y="281"/>
      <point x="425" y="337"/>
      <point x="349" y="378" type="curve"/>
      <point x="422" y="415"/>
      <point x="477" y="466"/>
      <point x="477" y="553" type="curve" smooth="yes"/>
      <point x="477" y="668"/>
      <point x="385" y="725"/>
      <point x="276" y="725" type="curve" smooth="yes"/>
      <point x="170" y="725"/>
      <point x="75" y="667"/>
      <point x="75" y="554" type="curve" smooth="yes"/>
      <point x="75" y="468"/>
      <point x="126" y="415"/>
      <point x="190" y="374" type="curve"/>
      <point x="114" y="337"/>
      <point x="52" y="279"/>
      <point x="52" y="182" type="curve" smooth="yes"/>
      <point x="52" y="63"/>
      <point x="133" y="-10"/>
    </contour>
    <contour>
      <point x="274" y="64" type="curve" smooth="yes"/>
      <point x="180" y="64"/>
      <point x="139" y="112"/>
      <point x="139" y="181" type="curve" smooth="yes"/>
      <point x="139" y="253"/>
      <point x="181" y="301"/>
      <point x="263" y="340" type="curve"/>
      <point x="366" y="292"/>
      <point x="413" y="249"/>
      <point x="413" y="185" type="curve" smooth="yes"/>
      <point x="413" y="112"/>
      <point x="366" y="64"/>
    </contour>
    <contour>
      <point x="277" y="414" type="curve"/>
      <point x="210" y="446"/>
      <point x="162" y="477"/>
      <point x="162" y="550" type="curve" smooth="yes"/>
      <point x="162" y="616"/>
      <point x="206" y="651"/>
      <point x="275" y="651" type="curve" smooth="yes"/>
      <point x="347" y="651"/>
      <point x="390" y="616"/>
      <point x="390" y="550" type="curve" smooth="yes"/>
      <point x="390" y="479"/>
      <point x="340" y="443"/>
    </contour>
  </outline>
</glyph>
<glyph name="nine.guru" format="2">
  <advance width="551"/>
  <unicode hex="0039"/>
  <outline>
    <contour>
      <point x="182" y="-10" type="curve" smooth="yes"/>
      <point x="442" y="-10"/>
      <point x="494" y="204"/>
      <point x="494" y="409" type="curve" smooth="yes"/>
      <point x="494" y="623"/>
      <point x="392" y="724"/>
      <point x="261" y="724" type="curve" smooth="yes"/>
      <point x="128" y="724"/>
      <point x="44" y="633"/>
      <point x="44" y="484" type="curve" smooth="yes"/>
      <point x="44" y="346"/>
      <point x="124" y="267"/>
      <point x="247" y="267" type="curve" smooth="yes"/>
      <point x="324" y="267"/>
      <point x="371" y="303"/>
      <point x="397" y="350" type="curve"/>
      <point x="403" y="350" type="line"/>
      <point x="397" y="195"/>
      <point x="356" y="63"/>
      <point x="179" y="63" type="curve" smooth="yes"/>
      <point x="151" y="63"/>
      <point x="121" y="67"/>
      <point x="98" y="75" type="curve"/>
      <point x="98" y="-1" type="line"/>
      <point x="120" y="-7"/>
      <point x="157" y="-10"/>
    </contour>
    <contour>
      <point x="259" y="337" type="curve" smooth="yes"/>
      <point x="173" y="337"/>
      <point x="130" y="393"/>
      <point x="130" y="484" type="curve" smooth="yes"/>
      <point x="130" y="597"/>
      <point x="184" y="649"/>
      <point x="262" y="649" type="curve" smooth="yes"/>
      <point x="357" y="649"/>
      <point x="405" y="554"/>
      <point x="405" y="467" type="curve" smooth="yes"/>
      <point x="405" y="404"/>
      <point x="347" y="337"/>
    </contour>
  </outline>
</glyph>
<glyph name="colon.guru" format="2">
  <advance width="294"/>
  <unicode hex="003A"/>
  <outline>
    <contour>
      <point x="147" y="414" type="curve" smooth="yes"/>
      <point x="181" y="414"/>
      <point x="209" y="434"/>
      <point x="209" y="482" type="curve" smooth="yes"/>
      <point x="209" y="533"/>
      <point x="181" y="550"/>
      <point x="147" y="550" type="curve" smooth="yes"/>
      <point x="112" y="550"/>
      <point x="85" y="533"/>
      <point x="85" y="482" type="curve" smooth="yes"/>
      <point x="85" y="434"/>
      <point x="112" y="414"/>
    </contour>
    <contour>
      <point x="147" y="-14" type="curve" smooth="yes"/>
      <point x="181" y="-14"/>
      <point x="209" y="6"/>
      <point x="209" y="54" type="curve" smooth="yes"/>
      <point x="209" y="104"/>
      <point x="181" y="122"/>
      <point x="147" y="122" type="curve" smooth="yes"/>
      <point x="112" y="122"/>
      <point x="85" y="104"/>
      <point x="85" y="54" type="curve" smooth="yes"/>
      <point x="85" y="6"/>
      <point x="112" y="-14"/>
    </contour>
  </outline>
</glyph>
<glyph name="less.guru" format="2">
  <advance width="551"/>
  <unicode hex="003C"/>
  <outline>
    <contour>
      <point x="50" y="284" type="line"/>
      <point x="501" y="77" type="line"/>
      <point x="501" y="155" type="line"/>
      <point x="142" y="313" type="line"/>
      <point x="501" y="490" type="line"/>
      <point x="501" y="568" type="line"/>
      <point x="50" y="333" type="line"/>
    </contour>
  </outline>
</glyph>
<glyph name="greater.guru" format="2">
  <advance width="551"/>
  <unicode hex="003E"/>
  <outline>
    <contour>
      <point x="50" y="155" type="line"/>
      <point x="50" y="77" type="line"/>
      <point x="501" y="284" type="line"/>
      <point x="501" y="333" type="line"/>
      <point x="50" y="568" type="line"/>
      <point x="50" y="490" type="line"/>
      <point x="409" y="313" type="line"/>
    </contour>
  </outline>
</glyph>
<glyph name="bracketleft.guru" format="2">
  <advance width="356"/>
  <unicode hex="005B"/>
  <outline>
    <contour>
      <point x="108" y="832" type="line"/>
      <point x="108" y="-166" type="line"/>
      <point x="302" y="-166" type="line"/>
      <point x="302" y="-96" type="line"/>
      <point x="188" y="-96" type="line"/>
      <point x="188" y="762" type="line"/>
      <point x="302" y="762" type="line"/>
      <point x="302" y="832" type="line"/>
    </contour>
  </outline>
</glyph>
<glyph name="backslash.guru" format="2">
  <advance width="429"/>
  <unicode hex="005C"/>
  <outline>
    <contour>
      <point x="42" y="832" type="line"/>
      <point x="305" y="-166" type="line"/>
      <point x="387" y="-166" type="line"/>
      <point x="124" y="832" type="line"/>
    </contour>
  </outline>
</glyph>
<glyph name="bracketright.guru" format="2">
  <advance width="356"/>
  <unicode hex="005D"/>
  <outline>
    <contour>
      <point x="54" y="-96" type="line"/>
      <point x="54" y="-166" type="line"/>
      <point x="248" y="-166" type="line"/>
      <point x="248" y="832" type="line"/>
      <point x="54" y="832" type="line"/>
      <point x="54" y="762" type="line"/>
      <point x="167" y="762" type="line"/>
      <point x="167" y="-96" type="line"/>
    </contour>
  </outline>
</glyph>
<glyph name="asciicircum.guru" format="2">
  <advance width="551"/>
  <unicode hex="005E"/>
  <outline>
    <contour>
      <point x="253" y="719" type="line"/>
      <point x="29" y="268" type="line"/>
      <point x="108" y="268" type="line"/>
      <point x="278" y="627" type="line"/>
      <point x="443" y="268" type="line"/>
      <point x="521" y="268" type="line"/>
      <point x="303" y="719" type="line"/>
    </contour>
  </outline>
</glyph>
<glyph name="underscore.guru" format="2">
  <advance width="411"/>
  <unicode hex="005F"/>
  <outline>
    <contour>
      <point x="-2" y="-90" type="line"/>
      <point x="-2" y="-158" type="line"/>
      <point x="413" y="-158" type="line"/>
      <point x="413" y="-90" type="line"/>
    </contour>
  </outline>
</glyph>
<glyph name="multiply.guru" format="2">
  <advance width="551"/>
  <unicode hex="00D7"/>
  <outline>
    <contour>
      <point x="275" y="270" type="line"/>
      <point x="432" y="115" type="line"/>
      <point x="482" y="165" type="line"/>
      <point x="326" y="321" type="line"/>
      <point x="483" y="478" type="line"/>
      <point x="432" y="528" type="line"/>
      <point x="275" y="373" type="line"/>
      <point x="120" y="528" type="line"/>
      <point x="69" y="477" type="line"/>
      <point x="224" y="321" type="line"/>
      <point x="70" y="167" type="line"/>
      <point x="120" y="116" type="line"/>
    </contour>
  </outline>
</glyph>
<glyph name="divide.guru" format="2">
  <advance width="551"/>
  <unicode hex="00F7"/>
  <outline>
    <contour>
      <point x="50" y="359" type="line"/>
      <point x="50" y="286" type="line"/>
      <point x="501" y="286" type="line"/>
      <point x="501" y="359" type="line"/>
    </contour>
    <contour>
      <point x="275" y="95" type="curve" smooth="yes"/>
      <point x="305" y="95"/>
      <point x="331" y="113"/>
      <point x="331" y="156" type="curve" smooth="yes"/>
      <point x="331" y="201"/>
      <point x="305" y="217"/>
      <point x="275" y="217" type="curve" smooth="yes"/>
      <point x="244" y="217"/>
      <point x="219" y="201"/>
      <point x="219" y="156" type="curve" smooth="yes"/>
      <point x="219" y="113"/>
      <point x="244" y="95"/>
    </contour>
    <contour>
      <point x="275" y="436" type="curve" smooth="yes"/>
      <point x="305" y="436"/>
      <point x="331" y="454"/>
      <point x="331" y="497" type="curve" smooth="yes"/>
      <point x="331" y="542"/>
      <point x="305" y="558"/>
      <point x="275" y="558" type="curve" smooth="yes"/>
      <point x="244" y="558"/>
      <point x="219" y="542"/>
      <point x="219" y="497" type="curve" smooth="yes"/>
      <point x="219" y="454"/>
      <point x="244" y="436"/>
    </contour>
  </outline>
</glyph>
<glyph name="uni0952" format="2">
  <unicode hex="0952"/>
  <outline>
    <contour>
      <point x="-434" y="-148" type="line"/>
      <point x="-64" y="-148" type="line"/>
      <point x="-64" y="-77" type="line"/>
      <point x="-434" y="-77" type="line"/>
    </contour>
  </outline>
</glyph>
<glyph name="danda.guru" format="2">
  <advance width="379"/>
  <unicode hex="0964"/>
  <outline>
    <contour>
      <point x="194" y="0" type="line"/>
      <point x="275" y="0" type="line"/>
      <point x="275" y="622" type="line"/>
      <point x="194" y="622" type="line"/>
    </contour>
  </outline>
</glyph>
<glyph name="adakbindiguru" format="2">
  <unicode hex="0A01"/>
  <outline>
    <contour>
      <point x="-129" y="671" type="curve" smooth="yes"/>
      <point x="-9" y="671"/>
      <point x="45" y="753"/>
      <point x="57" y="858" type="curve"/>
      <point x="-16" y="868" type="line"/>
      <point x="-24" y="778"/>
      <point x="-61" y="738"/>
      <point x="-130" y="738" type="curve" smooth="yes"/>
      <point x="-198" y="738"/>
      <point x="-233" y="777"/>
      <point x="-244" y="868" type="curve"/>
      <point x="-316" y="858" type="line"/>
      <point x="-307" y="752"/>
      <point x="-250" y="671"/>
    </contour>
    <contour>
      <point x="-130" y="788" type="curve" smooth="yes"/>
      <point x="-100" y="788"/>
      <point x="-78" y="808"/>
      <point x="-78" y="842" type="curve" smooth="yes"/>
      <point x="-78" y="876"/>
      <point x="-101" y="896"/>
      <point x="-130" y="896" type="curve" smooth="yes"/>
      <point x="-159" y="896"/>
      <point x="-182" y="876"/>
      <point x="-182" y="842" type="curve" smooth="yes"/>
      <point x="-182" y="808"/>
      <point x="-159" y="788"/>
    </contour>
  </outline>
</glyph>
<glyph name="bindiguru" format="2">
  <unicode hex="0A02"/>
  <outline>
    <contour>
      <point x="-130" y="721" type="curve" smooth="yes"/>
      <point x="-98" y="721"/>
      <point x="-75" y="742"/>
      <point x="-75" y="778" type="curve" smooth="yes"/>
      <point x="-75" y="814"/>
      <point x="-100" y="835"/>
      <point x="-130" y="835" type="curve" smooth="yes"/>
      <point x="-160" y="835"/>
      <point x="-185" y="814"/>
      <point x="-185" y="778" type="curve" smooth="yes"/>
      <point x="-185" y="742"/>
      <point x="-160" y="721"/>
    </contour>
  </outline>
</glyph>
<glyph name="visargaguru" format="2">
  <advance width="405"/>
  <unicode hex="0A03"/>
  <outline>
    <contour>
      <point x="203" y="362" type="curve" smooth="yes"/>
      <point x="288" y="362"/>
      <point x="344" y="410"/>
      <point x="344" y="492" type="curve" smooth="yes"/>
      <point x="344" y="572"/>
      <point x="288" y="622"/>
      <point x="203" y="622" type="curve" smooth="yes"/>
      <point x="117" y="622"/>
      <point x="62" y="569"/>
      <point x="62" y="492" type="curve" smooth="yes"/>
      <point x="62" y="411"/>
      <point x="117" y="362"/>
    </contour>
    <contour>
      <point x="203" y="425" type="curve" smooth="yes"/>
      <point x="158" y="425"/>
      <point x="134" y="453"/>
      <point x="134" y="492" type="curve" smooth="yes"/>
      <point x="134" y="530"/>
      <point x="158" y="559"/>
      <point x="203" y="559" type="curve" smooth="yes"/>
      <point x="247" y="559"/>
      <point x="272" y="530"/>
      <point x="272" y="492" type="curve" smooth="yes"/>
      <point x="272" y="454"/>
      <point x="247" y="425"/>
    </contour>
    <contour>
      <point x="203" y="0" type="curve" smooth="yes"/>
      <point x="288" y="0"/>
      <point x="344" y="48"/>
      <point x="344" y="130" type="curve" smooth="yes"/>
      <point x="344" y="211"/>
      <point x="288" y="260"/>
      <point x="203" y="260" type="curve" smooth="yes"/>
      <point x="117" y="260"/>
      <point x="62" y="208"/>
      <point x="62" y="130" type="curve" smooth="yes"/>
      <point x="62" y="50"/>
      <point x="117" y="0"/>
    </contour>
    <contour>
      <point x="203" y="63" type="curve" smooth="yes"/>
      <point x="158" y="63"/>
      <point x="134" y="92"/>
      <point x="134" y="130" type="curve" smooth="yes"/>
      <point x="134" y="168"/>
      <point x="158" y="197"/>
      <point x="203" y="197" type="curve" smooth="yes"/>
      <point x="247" y="197"/>
      <point x="272" y="168"/>
      <point x="272" y="130" type="curve" smooth="yes"/>
      <point x="272" y="92"/>
      <point x="247" y="63"/>
    </contour>
  </outline>
</glyph>
<glyph name="aguru" format="2">
  <advance width="742"/>
  <unicode hex="0A05"/>
  <outline>
    <contour>
      <point x="572" y="0" type="line"/>
      <point x="653" y="0" type="line"/>
      <point x="653" y="551" type="line"/>
      <point x="749" y="551" type="line"/>
      <point x="749" y="622" type="line"/>
      <point x="572" y="622" type="line"/>
      <point x="572" y="405" type="line"/>
      <point x="584" y="433" type="line"/>
      <point x="509" y="416"/>
      <point x="443" y="383"/>
      <point x="407" y="353" type="curve"/>
      <point x="424" y="339" type="line"/>
      <point x="424" y="402"/>
      <point x="401" y="509"/>
      <point x="374" y="554" type="curve"/>
      <point x="289" y="536"/>
      <point x="196" y="485"/>
      <point x="173" y="456" type="curve"/>
      <point x="186" y="445" type="line"/>
      <point x="186" y="506"/>
      <point x="163" y="581"/>
      <point x="144" y="622" type="curve"/>
      <point x="-7" y="622" type="line"/>
      <point x="-7" y="551" type="line"/>
      <point x="120" y="551" type="line"/>
      <point x="77" y="558" type="line"/>
      <point x="91" y="547"/>
      <point x="114" y="503"/>
      <point x="118" y="419" type="curve"/>
      <point x="83" y="381"/>
      <point x="56" y="320"/>
      <point x="56" y="271" type="curve" smooth="yes"/>
      <point x="56" y="226"/>
      <point x="76" y="212"/>
      <point x="104" y="212" type="curve" smooth="yes"/>
      <point x="165" y="212"/>
      <point x="189" y="297"/>
      <point x="189" y="422" type="curve"/>
      <point x="175" y="379" type="line"/>
      <point x="208" y="410"/>
      <point x="281" y="453"/>
      <point x="348" y="473" type="curve"/>
      <point x="316" y="478" type="line"/>
      <point x="337" y="451"/>
      <point x="354" y="379"/>
      <point x="356" y="317" type="curve"/>
      <point x="320" y="278"/>
      <point x="292" y="217"/>
      <point x="292" y="166" type="curve" smooth="yes"/>
      <point x="292" y="122"/>
      <point x="313" y="108"/>
      <point x="341" y="108" type="curve" smooth="yes"/>
      <point x="399" y="108"/>
      <point x="425" y="191"/>
      <point x="425" y="305" type="curve"/>
      <point x="406" y="271" type="line"/>
      <point x="458" y="313"/>
      <point x="513" y="339"/>
      <point x="584" y="356" type="curve"/>
      <point x="572" y="373" type="line"/>
    </contour>
  </outline>
</glyph>
<glyph name="aaguru" format="2">
  <advance width="977"/>
  <unicode hex="0A06"/>
  <outline>
    <contour>
      <point x="815" y="261" type="line"/>
      <point x="896" y="261" type="line"/>
      <point x="896" y="551" type="line"/>
      <point x="984" y="551" type="line"/>
      <point x="984" y="622" type="line"/>
      <point x="735" y="622" type="line"/>
      <point x="735" y="551" type="line"/>
      <point x="815" y="551" type="line"/>
    </contour>
    <component base="aguru"/>
  </outline>
</glyph>
<glyph name="ooguru" format="2">
  <advance width="662"/>
  <unicode hex="0A13"/>
  <outline>
    <contour>
      <point x="359" y="0" type="curve" smooth="yes"/>
      <point x="495" y="0"/>
      <point x="563" y="66"/>
      <point x="563" y="175" type="curve" smooth="yes"/>
      <point x="563" y="232"/>
      <point x="532" y="304"/>
      <point x="431" y="331" type="curve"/>
      <point x="418" y="309" type="line"/>
      <point x="534" y="325"/>
      <point x="629" y="394"/>
      <point x="629" y="577" type="curve"/>
      <point x="629" y="591" type="line"/>
      <point x="548" y="574" type="line"/>
      <point x="548" y="563" type="line"/>
      <point x="548" y="478"/>
      <point x="528" y="423"/>
      <point x="469" y="391" type="curve" smooth="yes"/>
      <point x="430" y="370"/>
      <point x="383" y="362"/>
      <point x="281" y="362" type="curve" smooth="yes"/>
      <point x="120" y="362" type="line"/>
      <point x="130" y="291" type="line"/>
      <point x="265" y="291" type="line" smooth="yes"/>
      <point x="376" y="291"/>
      <point x="405" y="281"/>
      <point x="437" y="261" type="curve" smooth="yes"/>
      <point x="466" y="243"/>
      <point x="481" y="213"/>
      <point x="481" y="176" type="curve" smooth="yes"/>
      <point x="481" y="107"/>
      <point x="443" y="73"/>
      <point x="355" y="73" type="curve" smooth="yes"/>
      <point x="253" y="73"/>
      <point x="148" y="133"/>
      <point x="148" y="424" type="curve" smooth="yes"/>
      <point x="148" y="597"/>
      <point x="179" y="692"/>
      <point x="252" y="737" type="curve" smooth="yes"/>
      <point x="293" y="762"/>
      <point x="351" y="772"/>
      <point x="463" y="772" type="curve" smooth="yes"/>
      <point x="603" y="772" type="line"/>
      <point x="607" y="843" type="line"/>
      <point x="454" y="843" type="line" smooth="yes"/>
      <point x="339" y="843"/>
      <point x="266" y="833"/>
      <point x="204" y="794" type="curve" smooth="yes"/>
      <point x="107" y="733"/>
      <point x="66" y="619"/>
      <point x="66" y="421" type="curve" smooth="yes"/>
      <point x="66" y="127"/>
      <point x="181" y="0"/>
    </contour>
    <contour>
      <point x="-7" y="551" type="line"/>
      <point x="679" y="551" type="line"/>
      <point x="679" y="622" type="line"/>
      <point x="-7" y="622" type="line"/>
    </contour>
  </outline>
</glyph>
<glyph name="kaguru" format="2">
  <advance width="622"/>
  <unicode hex="0A15"/>
  <outline>
    <contour>
      <point x="488" y="0" type="curve"/>
      <point x="569" y="0" type="line"/>
      <point x="558" y="102"/>
      <point x="535" y="223"/>
      <point x="471" y="309" type="curve"/>
      <point x="458" y="326" type="line"/>
      <point x="403" y="400"/>
      <point x="333" y="441"/>
      <point x="230" y="441" type="curve" smooth="yes"/>
      <point x="122" y="441"/>
      <point x="35" y="379"/>
      <point x="35" y="268" type="curve" smooth="yes"/>
      <point x="35" y="159"/>
      <point x="110" y="94"/>
      <point x="229" y="94" type="curve" smooth="yes"/>
      <point x="335" y="94"/>
      <point x="413" y="146"/>
      <point x="462" y="221" type="curve"/>
      <point x="475" y="243" type="line"/>
      <point x="519" y="307"/>
      <point x="535" y="385"/>
      <point x="535" y="458" type="curve" smooth="yes"/>
      <point x="535" y="486"/>
      <point x="530" y="531"/>
      <point x="526" y="551" type="curve"/>
      <point x="629" y="551" type="line"/>
      <point x="629" y="622" type="line"/>
      <point x="-7" y="622" type="line"/>
      <point x="-7" y="551" type="line"/>
      <point x="445" y="551" type="line"/>
      <point x="450" y="526"/>
      <point x="455" y="485"/>
      <point x="455" y="458" type="curve" smooth="yes"/>
      <point x="455" y="414"/>
      <point x="450" y="359"/>
      <point x="430" y="312" type="curve"/>
      <point x="423" y="286" type="line"/>
      <point x="388" y="222"/>
      <point x="328" y="166"/>
      <point x="230" y="166" type="curve" smooth="yes"/>
      <point x="165" y="166"/>
      <point x="117" y="200"/>
      <point x="117" y="267" type="curve" smooth="yes"/>
      <point x="117" y="336"/>
      <point x="167" y="370"/>
      <point x="237" y="370" type="curve" smooth="yes"/>
      <point x="317" y="370"/>
      <point x="379" y="327"/>
      <point x="425" y="254" type="curve"/>
      <point x="435" y="230" type="line"/>
      <point x="464" y="168"/>
      <point x="481" y="91"/>
    </contour>
  </outline>
</glyph>
<glyph name="khaguru" format="2">
  <advance width="598"/>
  <unicode hex="0A16"/>
  <outline>
    <contour>
      <point x="428" y="0" type="line"/>
      <point x="509" y="0" type="line"/>
      <point x="509" y="551" type="line"/>
      <point x="605" y="551" type="line"/>
      <point x="605" y="622" type="line"/>
      <point x="428" y="622" type="line"/>
      <point x="428" y="239" type="line"/>
      <point x="429" y="251" type="line"/>
      <point x="381" y="222"/>
      <point x="338" y="206"/>
      <point x="284" y="206" type="curve" smooth="yes"/>
      <point x="206" y="206"/>
      <point x="161" y="257"/>
      <point x="118" y="357" type="curve"/>
      <point x="114" y="313" type="line"/>
      <point x="158" y="344"/>
      <point x="188" y="389"/>
      <point x="188" y="460" type="curve" smooth="yes"/>
      <point x="188" y="509"/>
      <point x="171" y="568"/>
      <point x="142" y="622" type="curve"/>
      <point x="-7" y="622" type="line"/>
      <point x="-7" y="551" type="line"/>
      <point x="84" y="551" type="line"/>
      <point x="99" y="525"/>
      <point x="108" y="488"/>
      <point x="108" y="459" type="curve" smooth="yes"/>
      <point x="108" y="405"/>
      <point x="78" y="367"/>
      <point x="38" y="333" type="curve"/>
      <point x="88" y="210"/>
      <point x="166" y="132"/>
      <point x="284" y="132" type="curve" smooth="yes"/>
      <point x="341" y="132"/>
      <point x="383" y="144"/>
      <point x="429" y="165" type="curve"/>
      <point x="428" y="180" type="line"/>
    </contour>
    <contour>
      <point x="118" y="385" type="line"/>
      <point x="465" y="385" type="line"/>
      <point x="465" y="454" type="line"/>
      <point x="118" y="454" type="line"/>
    </contour>
  </outline>
</glyph>
<glyph name="gaguru" format="2">
  <advance width="750"/>
  <unicode hex="0A17"/>
  <outline>
    <contour>
      <point x="275" y="0" type="curve" smooth="yes"/>
      <point x="376" y="0"/>
      <point x="432" y="54"/>
      <point x="432" y="170" type="curve" smooth="yes"/>
      <point x="432" y="551" type="line"/>
      <point x="521" y="551" type="line"/>
      <point x="521" y="622" type="line"/>
      <point x="-7" y="622" type="line"/>
      <point x="-7" y="551" type="line"/>
      <point x="351" y="551" type="line"/>
      <point x="351" y="408" type="line"/>
      <point x="247" y="408" type="line" smooth="yes"/>
      <point x="153" y="408"/>
      <point x="110" y="394"/>
      <point x="78" y="362" type="curve" smooth="yes"/>
      <point x="54" y="338"/>
      <point x="37" y="302"/>
      <point x="37" y="258" type="curve" smooth="yes"/>
      <point x="37" y="132"/>
      <point x="145" y="0"/>
    </contour>
    <contour>
      <point x="274" y="73" type="curve" smooth="yes"/>
      <point x="195" y="73"/>
      <point x="118" y="173"/>
      <point x="118" y="252" type="curve" smooth="yes"/>
      <point x="118" y="276"/>
      <point x="123" y="296"/>
      <point x="137" y="311" type="curve" smooth="yes"/>
      <point x="157" y="331"/>
      <point x="182" y="337"/>
      <point x="263" y="337" type="curve" smooth="yes"/>
      <point x="351" y="337" type="line"/>
      <point x="351" y="176" type="line" smooth="yes"/>
      <point x="351" y="124"/>
      <point x="345" y="107"/>
      <point x="334" y="94" type="curve" smooth="yes"/>
      <point x="318" y="77"/>
      <point x="298" y="73"/>
    </contour>
    <contour>
      <point x="580" y="0" type="line"/>
      <point x="661" y="0" type="line"/>
      <point x="661" y="551" type="line"/>
      <point x="757" y="551" type="line"/>
      <point x="757" y="622" type="line"/>
      <point x="484" y="622" type="line"/>
      <point x="485" y="551" type="line"/>
      <point x="580" y="551" type="line"/>
    </contour>
  </outline>
</glyph>
<glyph name="ghaguru" format="2">
  <advance width="757"/>
  <unicode hex="0A18"/>
  <outline>
    <contour>
      <point x="229" y="133" type="curve" smooth="yes"/>
      <point x="318" y="133"/>
      <point x="377" y="182"/>
      <point x="405" y="315" type="curve"/>
      <point x="352" y="327" type="line"/>
      <point x="358" y="222"/>
      <point x="400" y="133"/>
      <point x="514" y="133" type="curve" smooth="yes"/>
      <point x="551" y="133"/>
      <point x="581" y="143"/>
      <point x="604" y="162" type="curve"/>
      <point x="589" y="240" type="line"/>
      <point x="573" y="219"/>
      <point x="553" y="206"/>
      <point x="520" y="206" type="curve" smooth="yes"/>
      <point x="475" y="206"/>
      <point x="436" y="236"/>
      <point x="415" y="315" type="curve"/>
      <point x="427" y="384"/>
      <point x="436" y="454"/>
      <point x="436" y="508" type="curve" smooth="yes"/>
      <point x="436" y="567"/>
      <point x="424" y="608"/>
      <point x="381" y="608" type="curve" smooth="yes"/>
      <point x="343" y="608"/>
      <point x="326" y="570"/>
      <point x="326" y="509" type="curve" smooth="yes"/>
      <point x="326" y="451"/>
      <point x="332" y="386"/>
      <point x="342" y="317" type="curve"/>
      <point x="322" y="238"/>
      <point x="283" y="206"/>
      <point x="235" y="206" type="curve" smooth="yes"/>
      <point x="182" y="206"/>
      <point x="140" y="248"/>
      <point x="118" y="362" type="curve"/>
      <point x="107" y="309" type="line"/>
      <point x="159" y="342"/>
      <point x="188" y="389"/>
      <point x="188" y="460" type="curve" smooth="yes"/>
      <point x="188" y="509"/>
      <point x="171" y="568"/>
      <point x="142" y="622" type="curve"/>
      <point x="-7" y="622" type="line"/>
      <point x="-7" y="551" type="line"/>
      <point x="120" y="551" type="line"/>
      <point x="72" y="568" type="line"/>
      <point x="94" y="544"/>
      <point x="108" y="495"/>
      <point x="108" y="459" type="curve" smooth="yes"/>
      <point x="108" y="405"/>
      <point x="78" y="367"/>
      <point x="38" y="333" type="curve"/>
      <point x="83" y="199"/>
      <point x="124" y="133"/>
    </contour>
    <contour>
      <point x="587" y="0" type="line"/>
      <point x="668" y="0" type="line"/>
      <point x="668" y="551" type="line"/>
      <point x="764" y="551" type="line"/>
      <point x="764" y="622" type="line"/>
      <point x="587" y="622" type="line"/>
    </contour>
  </outline>
</glyph>
<glyph name="ngaguru" format="2">
  <advance width="579"/>
  <unicode hex="0A19"/>
  <outline>
    <contour>
      <point x="418" y="-8" type="curve"/>
      <point x="496" y="13" type="line"/>
      <point x="480" y="48"/>
      <point x="458" y="91"/>
      <point x="429" y="132" type="curve" smooth="yes"/>
      <point x="374" y="210"/>
      <point x="301" y="273"/>
      <point x="188" y="273" type="curve" smooth="yes"/>
      <point x="90" y="273"/>
      <point x="42" y="222"/>
      <point x="42" y="164" type="curve" smooth="yes"/>
      <point x="42" y="86"/>
      <point x="102" y="37"/>
      <point x="236" y="37" type="curve" smooth="yes"/>
      <point x="423" y="37"/>
      <point x="542" y="154"/>
      <point x="542" y="278" type="curve" smooth="yes"/>
      <point x="542" y="325"/>
      <point x="527" y="360"/>
      <point x="499" y="386" type="curve" smooth="yes"/>
      <point x="464" y="418"/>
      <point x="418" y="433"/>
      <point x="323" y="433" type="curve" smooth="yes"/>
      <point x="170" y="433" type="line"/>
      <point x="170" y="551" type="line"/>
      <point x="586" y="551" type="line"/>
      <point x="586" y="622" type="line"/>
      <point x="-7" y="622" type="line"/>
      <point x="-7" y="551" type="line"/>
      <point x="89" y="551" type="line"/>
      <point x="89" y="391" type="line"/>
      <point x="119" y="362" type="line"/>
      <point x="301" y="362" type="line" smooth="yes"/>
      <point x="388" y="362"/>
      <point x="414" y="353"/>
      <point x="436" y="335" type="curve" smooth="yes"/>
      <point x="453" y="321"/>
      <point x="461" y="299"/>
      <point x="461" y="275" type="curve" smooth="yes"/>
      <point x="461" y="223"/>
      <point x="433" y="175"/>
      <point x="384" y="144" type="curve" smooth="yes"/>
      <point x="346" y="120"/>
      <point x="297" y="106"/>
      <point x="238" y="106" type="curve" smooth="yes"/>
      <point x="163" y="106"/>
      <point x="123" y="123"/>
      <point x="123" y="160" type="curve" smooth="yes"/>
      <point x="123" y="186"/>
      <point x="145" y="202"/>
      <point x="188" y="202" type="curve" smooth="yes"/>
      <point x="312" y="202"/>
      <point x="382" y="81"/>
    </contour>
  </outline>
</glyph>
<glyph name="caguru" format="2">
  <advance width="657"/>
  <unicode hex="0A1A"/>
  <outline>
    <contour>
      <point x="388" y="0" type="curve" smooth="yes"/>
      <point x="513" y="0"/>
      <point x="568" y="57"/>
      <point x="568" y="175" type="curve" smooth="yes"/>
      <point x="568" y="556" type="line"/>
      <point x="487" y="556" type="line"/>
      <point x="487" y="183" type="line" smooth="yes"/>
      <point x="487" y="128"/>
      <point x="480" y="110"/>
      <point x="468" y="96" type="curve" smooth="yes"/>
      <point x="452" y="78"/>
      <point x="426" y="73"/>
      <point x="395" y="73" type="curve" smooth="yes"/>
      <point x="285" y="73"/>
      <point x="186" y="174"/>
      <point x="181" y="306" type="curve"/>
      <point x="160" y="291" type="line"/>
      <point x="525" y="291" type="line"/>
      <point x="532" y="362" type="line"/>
      <point x="182" y="362" type="line"/>
      <point x="182" y="387" type="line" smooth="yes"/>
      <point x="182" y="416"/>
      <point x="171" y="442"/>
      <point x="139" y="442" type="curve" smooth="yes"/>
      <point x="96" y="442"/>
      <point x="32" y="377"/>
      <point x="32" y="329" type="curve" smooth="yes"/>
      <point x="32" y="308"/>
      <point x="46" y="291"/>
      <point x="83" y="291" type="curve" smooth="yes"/>
      <point x="112" y="291" type="line"/>
      <point x="100" y="302" type="line"/>
      <point x="104" y="224"/>
      <point x="138" y="145"/>
      <point x="182" y="96" type="curve" smooth="yes"/>
      <point x="230" y="41"/>
      <point x="301" y="0"/>
    </contour>
    <contour>
      <point x="-7" y="551" type="line"/>
      <point x="664" y="551" type="line"/>
      <point x="664" y="622" type="line"/>
      <point x="-7" y="622" type="line"/>
    </contour>
  </outline>
</glyph>
<glyph name="chaguru" format="2">
  <advance width="634"/>
  <unicode hex="0A1B"/>
  <outline>
    <contour>
      <point x="316" y="0" type="curve" smooth="yes"/>
      <point x="513" y="0"/>
      <point x="596" y="47"/>
      <point x="596" y="146" type="curve" smooth="yes"/>
      <point x="596" y="244"/>
      <point x="512" y="287"/>
      <point x="399" y="287" type="curve" smooth="yes"/>
      <point x="230" y="287" type="line" smooth="yes"/>
      <point x="174" y="287"/>
      <point x="132" y="295"/>
      <point x="132" y="338" type="curve" smooth="yes"/>
      <point x="132" y="355"/>
      <point x="139" y="366"/>
      <point x="151" y="373" type="curve" smooth="yes"/>
      <point x="167" y="383"/>
      <point x="195" y="386"/>
      <point x="229" y="386" type="curve" smooth="yes"/>
      <point x="505" y="386" type="line"/>
      <point x="534" y="415" type="line"/>
      <point x="534" y="551" type="line"/>
      <point x="642" y="551" type="line"/>
      <point x="642" y="622" type="line"/>
      <point x="-7" y="622" type="line"/>
      <point x="-7" y="551" type="line"/>
      <point x="454" y="551" type="line"/>
      <point x="454" y="457" type="line"/>
      <point x="243" y="457" type="line" smooth="yes"/>
      <point x="161" y="457"/>
      <point x="123" y="449"/>
      <point x="88" y="420" type="curve" smooth="yes"/>
      <point x="66" y="402"/>
      <point x="51" y="373"/>
      <point x="51" y="341" type="curve" smooth="yes"/>
      <point x="51" y="279"/>
      <point x="96" y="246"/>
      <point x="158" y="229" type="curve"/>
      <point x="158" y="218" type="line"/>
      <point x="379" y="218" type="line" smooth="yes"/>
      <point x="451" y="218"/>
      <point x="516" y="205"/>
      <point x="516" y="147" type="curve" smooth="yes"/>
      <point x="516" y="90"/>
      <point x="462" y="68"/>
      <point x="336" y="68" type="curve" smooth="yes"/>
      <point x="314" y="68" type="line" smooth="yes"/>
      <point x="180" y="68"/>
      <point x="126" y="91"/>
      <point x="126" y="146" type="curve" smooth="yes"/>
      <point x="126" y="196"/>
      <point x="177" y="218"/>
      <point x="246" y="218" type="curve"/>
      <point x="157" y="254" type="line"/>
      <point x="67" y="231"/>
      <point x="46" y="180"/>
      <point x="46" y="144" type="curve" smooth="yes"/>
      <point x="46" y="42"/>
      <point x="133" y="0"/>
    </contour>
    <contour>
      <point x="359" y="50" type="line"/>
      <point x="359" y="233" type="line"/>
      <point x="284" y="233" type="line"/>
      <point x="284" y="50" type="line"/>
    </contour>
  </outline>
</glyph>
<glyph name="jaguru" format="2">
  <advance width="612"/>
  <unicode hex="0A1C"/>
  <outline>
    <contour>
      <point x="106" y="0" type="line"/>
      <point x="187" y="0" type="line"/>
      <point x="187" y="291" type="line"/>
      <point x="442" y="291" type="line"/>
      <point x="442" y="0" type="line"/>
      <point x="523" y="0" type="line"/>
      <point x="523" y="551" type="line"/>
      <point x="619" y="551" type="line"/>
      <point x="619" y="622" type="line"/>
      <point x="-7" y="622" type="line"/>
      <point x="-7" y="551" type="line"/>
      <point x="442" y="551" type="line"/>
      <point x="442" y="362" type="line"/>
      <point x="187" y="362" type="line"/>
      <point x="187" y="387" type="line" smooth="yes"/>
      <point x="187" y="416"/>
      <point x="176" y="442"/>
      <point x="144" y="442" type="curve" smooth="yes"/>
      <point x="101" y="442"/>
      <point x="37" y="377"/>
      <point x="37" y="329" type="curve" smooth="yes"/>
      <point x="37" y="308"/>
      <point x="51" y="291"/>
      <point x="88" y="291" type="curve" smooth="yes"/>
      <point x="106" y="291" type="line"/>
    </contour>
  </outline>
</glyph>
<glyph name="jhaguru" format="2">
  <advance width="594"/>
  <unicode hex="0A1D"/>
  <outline>
    <contour>
      <point x="205" y="74" type="curve" smooth="yes"/>
      <point x="235" y="74"/>
      <point x="262" y="75"/>
      <point x="288" y="77" type="curve"/>
      <point x="323" y="83" type="line"/>
      <point x="463" y="100"/>
      <point x="540" y="161"/>
      <point x="540" y="253" type="curve" smooth="yes"/>
      <point x="540" y="354"/>
      <point x="458" y="411"/>
      <point x="276" y="411" type="curve" smooth="yes"/>
      <point x="220" y="411"/>
      <point x="118" y="396"/>
      <point x="30" y="368" type="curve"/>
      <point x="55" y="302" type="line"/>
      <point x="140" y="330"/>
      <point x="217" y="341"/>
      <point x="283" y="341" type="curve" smooth="yes"/>
      <point x="402" y="341"/>
      <point x="458" y="316"/>
      <point x="458" y="253" type="curve" smooth="yes"/>
      <point x="458" y="198"/>
      <point x="410" y="160"/>
      <point x="290" y="150" type="curve"/>
      <point x="255" y="166"/>
      <point x="217" y="181"/>
      <point x="160" y="181" type="curve" smooth="yes"/>
      <point x="106" y="181"/>
      <point x="83" y="162"/>
      <point x="83" y="134" type="curve" smooth="yes"/>
      <point x="83" y="96"/>
      <point x="129" y="74"/>
    </contour>
    <contour>
      <point x="377" y="-14" type="curve"/>
      <point x="432" y="38" type="line"/>
      <point x="391" y="74"/>
      <point x="349" y="101"/>
      <point x="303" y="123" type="curve"/>
      <point x="229" y="94" type="line"/>
      <point x="279" y="70"/>
      <point x="328" y="31"/>
    </contour>
    <contour>
      <point x="200" y="375" type="curve"/>
      <point x="310" y="411" type="line"/>
      <point x="204" y="411"/>
      <point x="167" y="476"/>
      <point x="167" y="601" type="curve"/>
      <point x="84" y="605" type="line"/>
      <point x="84" y="494"/>
      <point x="120" y="414"/>
    </contour>
    <contour>
      <point x="-7" y="551" type="line"/>
      <point x="601" y="551" type="line"/>
      <point x="601" y="622" type="line"/>
      <point x="-7" y="622" type="line"/>
    </contour>
    <contour>
      <point x="400" y="375" type="line"/>
      <point x="480" y="414"/>
      <point x="516" y="494"/>
      <point x="516" y="605" type="curve"/>
      <point x="434" y="601" type="line"/>
      <point x="434" y="480"/>
      <point x="397" y="411"/>
      <point x="290" y="411" type="curve"/>
    </contour>
  </outline>
</glyph>
<glyph name="nyaguru" format="2">
  <advance width="567"/>
  <unicode hex="0A1E"/>
  <outline>
    <contour>
      <point x="171" y="389" type="curve"/>
      <point x="238" y="425" type="line"/>
      <point x="217" y="477"/>
      <point x="184" y="533"/>
      <point x="143" y="589" type="curve"/>
      <point x="65" y="563" type="line"/>
      <point x="105" y="512"/>
      <point x="142" y="450"/>
    </contour>
    <component base="vaguru"/>
  </outline>
</glyph>
<glyph name="ttaguru" format="2">
  <advance width="575"/>
  <unicode hex="0A1F"/>
  <outline>
    <contour>
      <point x="322" y="0" type="curve" smooth="yes"/>
      <point x="402" y="0"/>
      <point x="466" y="16"/>
      <point x="538" y="51" type="curve"/>
      <point x="510" y="122" type="line"/>
      <point x="435" y="86"/>
      <point x="395" y="73"/>
      <point x="322" y="73" type="curve" smooth="yes"/>
      <point x="218" y="73"/>
      <point x="165" y="147"/>
      <point x="114" y="253" type="curve"/>
      <point x="107" y="204" type="line"/>
      <point x="148" y="256"/>
      <point x="178" y="289"/>
      <point x="221" y="315" type="curve" smooth="yes"/>
      <point x="269" y="345"/>
      <point x="302" y="349"/>
      <point x="419" y="349" type="curve" smooth="yes"/>
      <point x="456" y="349" type="line"/>
      <point x="485" y="378" type="line"/>
      <point x="485" y="551" type="line"/>
      <point x="583" y="551" type="line"/>
      <point x="583" y="622" type="line"/>
      <point x="-7" y="622" type="line"/>
      <point x="-7" y="551" type="line"/>
      <point x="405" y="551" type="line"/>
      <point x="405" y="420" type="line"/>
      <point x="370" y="420" type="line" smooth="yes"/>
      <point x="259" y="420"/>
      <point x="210" y="401"/>
      <point x="155" y="361" type="curve" smooth="yes"/>
      <point x="113" y="330"/>
      <point x="76" y="289"/>
      <point x="34" y="234" type="curve"/>
      <point x="95" y="98"/>
      <point x="171" y="0"/>
    </contour>
  </outline>
</glyph>
<glyph name="tthaguru" format="2">
  <advance width="660"/>
  <unicode hex="0A20"/>
  <outline>
    <contour>
      <point x="330" y="0" type="curve" smooth="yes"/>
      <point x="506" y="0"/>
      <point x="621" y="58"/>
      <point x="621" y="202" type="curve" smooth="yes"/>
      <point x="621" y="296"/>
      <point x="545" y="398"/>
      <point x="370" y="438" type="curve"/>
      <point x="370" y="551" type="line"/>
      <point x="667" y="551" type="line"/>
      <point x="667" y="622" type="line"/>
      <point x="-7" y="622" type="line"/>
      <point x="-7" y="551" type="line"/>
      <point x="290" y="551" type="line"/>
      <point x="290" y="438" type="line"/>
      <point x="115" y="397"/>
      <point x="39" y="296"/>
      <point x="39" y="202" type="curve" smooth="yes"/>
      <point x="39" y="48"/>
      <point x="171" y="0"/>
    </contour>
    <contour>
      <point x="330" y="73" type="curve" smooth="yes"/>
      <point x="238" y="73"/>
      <point x="119" y="88"/>
      <point x="119" y="199" type="curve" smooth="yes"/>
      <point x="119" y="277"/>
      <point x="188" y="346"/>
      <point x="330" y="378" type="curve"/>
      <point x="469" y="347"/>
      <point x="541" y="277"/>
      <point x="541" y="200" type="curve" smooth="yes"/>
      <point x="541" y="89"/>
      <point x="424" y="73"/>
    </contour>
  </outline>
</glyph>
<glyph name="ddaguru" format="2">
  <advance width="597"/>
  <unicode hex="0A21"/>
  <outline>
    <contour>
      <point x="249" y="0" type="curve" smooth="yes"/>
      <point x="423" y="0"/>
      <point x="543" y="66"/>
      <point x="543" y="199" type="curve" smooth="yes"/>
      <point x="543" y="271"/>
      <point x="506" y="323"/>
      <point x="432" y="362" type="curve"/>
      <point x="481" y="391"/>
      <point x="518" y="428"/>
      <point x="518" y="511" type="curve" smooth="yes"/>
      <point x="518" y="531"/>
      <point x="515" y="555"/>
      <point x="510" y="576" type="curve"/>
      <point x="487" y="551" type="line"/>
      <point x="604" y="551" type="line"/>
      <point x="604" y="622" type="line"/>
      <point x="-7" y="622" type="line"/>
      <point x="-7" y="551" type="line"/>
      <point x="458" y="551" type="line"/>
      <point x="425" y="578" type="line"/>
      <point x="434" y="553"/>
      <point x="437" y="531"/>
      <point x="437" y="512" type="curve" smooth="yes"/>
      <point x="437" y="449"/>
      <point x="404" y="412"/>
      <point x="357" y="393" type="curve"/>
      <point x="311" y="410"/>
      <point x="265" y="419"/>
      <point x="212" y="419" type="curve" smooth="yes"/>
      <point x="164" y="419"/>
      <point x="125" y="407"/>
      <point x="125" y="369" type="curve" smooth="yes"/>
      <point x="125" y="341"/>
      <point x="145" y="312"/>
      <point x="236" y="312" type="curve" smooth="yes"/>
      <point x="277" y="312"/>
      <point x="318" y="318"/>
      <point x="349" y="324" type="curve"/>
      <point x="416" y="304"/>
      <point x="461" y="256"/>
      <point x="461" y="202" type="curve" smooth="yes"/>
      <point x="461" y="88"/>
      <point x="344" y="69"/>
      <point x="248" y="69" type="curve" smooth="yes"/>
      <point x="161" y="69"/>
      <point x="116" y="88"/>
      <point x="116" y="125" type="curve" smooth="yes"/>
      <point x="116" y="150"/>
      <point x="138" y="166"/>
      <point x="182" y="166" type="curve" smooth="yes"/>
      <point x="257" y="166"/>
      <point x="319" y="116"/>
      <point x="362" y="67" type="curve"/>
      <point x="424" y="101" type="line"/>
      <point x="377" y="167"/>
      <point x="293" y="237"/>
      <point x="178" y="237" type="curve" smooth="yes"/>
      <point x="82" y="237"/>
      <point x="35" y="186"/>
      <point x="35" y="127" type="curve" smooth="yes"/>
      <point x="35" y="49"/>
      <point x="101" y="0"/>
    </contour>
  </outline>
</glyph>
<glyph name="ddhaguru" format="2">
  <advance width="646"/>
  <unicode hex="0A22"/>
  <outline>
    <contour>
      <point x="403" y="0" type="curve" smooth="yes"/>
      <point x="542" y="0"/>
      <point x="604" y="49"/>
      <point x="604" y="127" type="curve" smooth="yes"/>
      <point x="604" y="186"/>
      <point x="560" y="237"/>
      <point x="463" y="237" type="curve" smooth="yes"/>
      <point x="341" y="237"/>
      <point x="261" y="165"/>
      <point x="211" y="100" type="curve"/>
      <point x="271" y="67" type="line"/>
      <point x="314" y="116"/>
      <point x="378" y="166"/>
      <point x="456" y="166" type="curve" smooth="yes"/>
      <point x="501" y="166"/>
      <point x="524" y="149"/>
      <point x="524" y="124" type="curve" smooth="yes"/>
      <point x="524" y="86"/>
      <point x="486" y="69"/>
      <point x="408" y="69" type="curve" smooth="yes"/>
      <point x="266" y="69"/>
      <point x="182" y="154"/>
      <point x="182" y="320" type="curve"/>
      <point x="527" y="320" type="line"/>
      <point x="557" y="350" type="line"/>
      <point x="557" y="551" type="line"/>
      <point x="653" y="551" type="line"/>
      <point x="653" y="622" type="line"/>
      <point x="-7" y="622" type="line"/>
      <point x="-7" y="551" type="line"/>
      <point x="476" y="551" type="line"/>
      <point x="476" y="391" type="line"/>
      <point x="182" y="391" type="line"/>
      <point x="182" y="416" type="line" smooth="yes"/>
      <point x="182" y="445"/>
      <point x="171" y="472"/>
      <point x="139" y="472" type="curve" smooth="yes"/>
      <point x="96" y="472"/>
      <point x="32" y="407"/>
      <point x="32" y="358" type="curve" smooth="yes"/>
      <point x="32" y="337"/>
      <point x="46" y="320"/>
      <point x="83" y="320" type="curve" smooth="yes"/>
      <point x="101" y="320" type="line"/>
      <point x="101" y="312" type="line" smooth="yes"/>
      <point x="101" y="138"/>
      <point x="203" y="0"/>
    </contour>
  </outline>
</glyph>
<glyph name="nnaguru" format="2">
  <advance width="622"/>
  <unicode hex="0A23"/>
  <outline>
    <contour>
      <point x="341" y="0" type="curve" smooth="yes"/>
      <point x="431" y="0"/>
      <point x="505" y="19"/>
      <point x="589" y="57" type="curve"/>
      <point x="561" y="128" type="line"/>
      <point x="472" y="87"/>
      <point x="417" y="73"/>
      <point x="341" y="73" type="curve" smooth="yes"/>
      <point x="235" y="73"/>
      <point x="180" y="127"/>
      <point x="126" y="214" type="curve"/>
      <point x="117" y="202" type="line"/>
      <point x="172" y="268"/>
      <point x="213" y="302"/>
      <point x="283" y="302" type="curve" smooth="yes"/>
      <point x="313" y="302"/>
      <point x="340" y="296"/>
      <point x="360" y="288" type="curve"/>
      <point x="397" y="303" type="line"/>
      <point x="458" y="423" type="line"/>
      <point x="392" y="462" type="line"/>
      <point x="333" y="347" type="line"/>
      <point x="369" y="354" type="line"/>
      <point x="341" y="368"/>
      <point x="311" y="375"/>
      <point x="276" y="375" type="curve" smooth="yes"/>
      <point x="172" y="375"/>
      <point x="104" y="309"/>
      <point x="34" y="219" type="curve"/>
      <point x="103" y="84"/>
      <point x="178" y="0"/>
    </contour>
    <contour>
      <point x="552" y="330" type="curve"/>
      <point x="587" y="398" type="line"/>
      <point x="488" y="441"/>
      <point x="381" y="493"/>
      <point x="292" y="566" type="curve"/>
      <point x="275" y="551" type="line"/>
      <point x="629" y="551" type="line"/>
      <point x="629" y="622" type="line"/>
      <point x="-7" y="622" type="line"/>
      <point x="-7" y="551" type="line"/>
      <point x="240" y="551" type="line"/>
      <point x="185" y="570" type="line"/>
      <point x="299" y="456"/>
      <point x="434" y="384"/>
    </contour>
  </outline>
</glyph>
<glyph name="taguru" format="2">
  <advance width="542"/>
  <unicode hex="0A24"/>
  <outline>
    <contour>
      <point x="250" y="0" type="curve" smooth="yes"/>
      <point x="389" y="0"/>
      <point x="488" y="66"/>
      <point x="488" y="188" type="curve" smooth="yes"/>
      <point x="488" y="275"/>
      <point x="443" y="326"/>
      <point x="377" y="362" type="curve"/>
      <point x="426" y="391"/>
      <point x="463" y="428"/>
      <point x="463" y="511" type="curve" smooth="yes"/>
      <point x="463" y="530"/>
      <point x="460" y="555"/>
      <point x="455" y="576" type="curve"/>
      <point x="424" y="551" type="line"/>
      <point x="549" y="551" type="line"/>
      <point x="549" y="622" type="line"/>
      <point x="-7" y="622" type="line"/>
      <point x="-7" y="551" type="line"/>
      <point x="414" y="551" type="line"/>
      <point x="370" y="578" type="line"/>
      <point x="379" y="553"/>
      <point x="382" y="531"/>
      <point x="382" y="512" type="curve" smooth="yes"/>
      <point x="382" y="449"/>
      <point x="349" y="412"/>
      <point x="302" y="393" type="curve"/>
      <point x="256" y="410"/>
      <point x="210" y="419"/>
      <point x="157" y="419" type="curve" smooth="yes"/>
      <point x="108" y="419"/>
      <point x="69" y="407"/>
      <point x="69" y="369" type="curve" smooth="yes"/>
      <point x="69" y="341"/>
      <point x="89" y="312"/>
      <point x="181" y="312" type="curve" smooth="yes"/>
      <point x="222" y="312"/>
      <point x="264" y="318"/>
      <point x="294" y="324" type="curve"/>
      <point x="362" y="297"/>
      <point x="406" y="254"/>
      <point x="406" y="189" type="curve" smooth="yes"/>
      <point x="406" y="105"/>
      <point x="335" y="73"/>
      <point x="248" y="73" type="curve" smooth="yes"/>
      <point x="174" y="73"/>
      <point x="109" y="96"/>
      <point x="45" y="137" type="curve"/>
      <point x="13" y="64" type="line"/>
      <point x="78" y="26"/>
      <point x="160" y="0"/>
    </contour>
  </outline>
</glyph>
<glyph name="thaguru" format="2">
  <advance width="598"/>
  <unicode hex="0A25"/>
  <outline>
    <contour>
      <point x="428" y="0" type="line"/>
      <point x="509" y="0" type="line"/>
      <point x="509" y="551" type="line"/>
      <point x="605" y="551" type="line"/>
      <point x="605" y="622" type="line"/>
      <point x="118" y="622" type="line"/>
      <point x="118" y="551" type="line"/>
      <point x="428" y="551" type="line"/>
      <point x="428" y="242" type="line"/>
      <point x="429" y="251" type="line"/>
      <point x="381" y="222"/>
      <point x="337" y="206"/>
      <point x="284" y="206" type="curve" smooth="yes"/>
      <point x="206" y="206"/>
      <point x="161" y="257"/>
      <point x="118" y="357" type="curve"/>
      <point x="114" y="313" type="line"/>
      <point x="158" y="344"/>
      <point x="188" y="389"/>
      <point x="188" y="460" type="curve" smooth="yes"/>
      <point x="188" y="509"/>
      <point x="169" y="568"/>
      <point x="132" y="622" type="curve"/>
      <point x="-7" y="622" type="line"/>
      <point x="-7" y="551" type="line"/>
      <point x="84" y="551" type="line"/>
      <point x="99" y="525"/>
      <point x="108" y="488"/>
      <point x="108" y="459" type="curve" smooth="yes"/>
      <point x="108" y="405"/>
      <point x="78" y="367"/>
      <point x="38" y="333" type="curve"/>
      <point x="88" y="210"/>
      <point x="166" y="132"/>
      <point x="284" y="132" type="curve" smooth="yes"/>
      <point x="341" y="132"/>
      <point x="383" y="144"/>
      <point x="429" y="165" type="curve"/>
      <point x="428" y="180" type="line"/>
    </contour>
    <contour>
      <point x="128" y="357" type="line"/>
      <point x="465" y="357" type="line"/>
      <point x="465" y="426" type="line"/>
      <point x="128" y="426" type="line"/>
    </contour>
  </outline>
</glyph>
<glyph name="daguru" format="2">
  <advance width="617"/>
  <unicode hex="0A26"/>
  <outline>
    <contour>
      <point x="368" y="0" type="curve" smooth="yes"/>
      <point x="439" y="0"/>
      <point x="509" y="16"/>
      <point x="570" y="46" type="curve"/>
      <point x="542" y="117" type="line"/>
      <point x="482" y="87"/>
      <point x="432" y="73"/>
      <point x="369" y="73" type="curve" smooth="yes"/>
      <point x="281" y="73"/>
      <point x="183" y="109"/>
      <point x="182" y="291" type="curve"/>
      <point x="498" y="291" type="line"/>
      <point x="527" y="320" type="line"/>
      <point x="527" y="551" type="line"/>
      <point x="624" y="551" type="line"/>
      <point x="624" y="622" type="line"/>
      <point x="-7" y="622" type="line"/>
      <point x="-7" y="551" type="line"/>
      <point x="447" y="551" type="line"/>
      <point x="447" y="362" type="line"/>
      <point x="182" y="362" type="line"/>
      <point x="182" y="387" type="line" smooth="yes"/>
      <point x="182" y="416"/>
      <point x="171" y="442"/>
      <point x="139" y="442" type="curve" smooth="yes"/>
      <point x="96" y="442"/>
      <point x="32" y="377"/>
      <point x="32" y="329" type="curve" smooth="yes"/>
      <point x="32" y="308"/>
      <point x="46" y="291"/>
      <point x="83" y="291" type="curve" smooth="yes"/>
      <point x="101" y="291" type="line"/>
      <point x="101" y="280" type="line" smooth="yes"/>
      <point x="101" y="114"/>
      <point x="186" y="0"/>
    </contour>
  </outline>
</glyph>
<glyph name="naguru" format="2">
  <advance width="648"/>
  <unicode hex="0A28"/>
  <outline>
    <contour>
      <point x="240" y="0" type="curve"/>
      <point x="245" y="73" type="line"/>
      <point x="156" y="73"/>
      <point x="119" y="123"/>
      <point x="119" y="195" type="curve" smooth="yes"/>
      <point x="119" y="277"/>
      <point x="189" y="344"/>
      <point x="324" y="378" type="curve"/>
      <point x="459" y="344"/>
      <point x="529" y="277"/>
      <point x="529" y="195" type="curve" smooth="yes"/>
      <point x="529" y="123"/>
      <point x="493" y="73"/>
      <point x="404" y="73" type="curve"/>
      <point x="409" y="0" type="line"/>
      <point x="567" y="0"/>
      <point x="609" y="116"/>
      <point x="609" y="194" type="curve" smooth="yes"/>
      <point x="609" y="296"/>
      <point x="533" y="394"/>
      <point x="364" y="438" type="curve"/>
      <point x="364" y="551" type="line"/>
      <point x="655" y="551" type="line"/>
      <point x="655" y="622" type="line"/>
      <point x="-7" y="622" type="line"/>
      <point x="-7" y="551" type="line"/>
      <point x="284" y="551" type="line"/>
      <point x="284" y="438" type="line"/>
      <point x="116" y="394"/>
      <point x="39" y="296"/>
      <point x="39" y="194" type="curve" smooth="yes"/>
      <point x="39" y="116"/>
      <point x="82" y="0"/>
    </contour>
  </outline>
</glyph>
<glyph name="paguru" format="2">
  <advance width="593"/>
  <unicode hex="0A2A"/>
  <outline>
    <contour>
      <point x="423" y="0" type="line"/>
      <point x="504" y="0" type="line"/>
      <point x="504" y="551" type="line"/>
      <point x="600" y="551" type="line"/>
      <point x="600" y="622" type="line"/>
      <point x="423" y="622" type="line"/>
      <point x="423" y="240" type="line"/>
      <point x="429" y="251" type="line"/>
      <point x="381" y="222"/>
      <point x="338" y="206"/>
      <point x="284" y="206" type="curve" smooth="yes"/>
      <point x="206" y="206"/>
      <point x="161" y="257"/>
      <point x="118" y="357" type="curve"/>
      <point x="114" y="313" type="line"/>
      <point x="158" y="344"/>
      <point x="188" y="389"/>
      <point x="188" y="460" type="curve" smooth="yes"/>
      <point x="188" y="509"/>
      <point x="171" y="568"/>
      <point x="142" y="622" type="curve"/>
      <point x="-7" y="622" type="line"/>
      <point x="-7" y="551" type="line"/>
      <point x="84" y="551" type="line"/>
      <point x="99" y="525"/>
      <point x="108" y="488"/>
      <point x="108" y="459" type="curve" smooth="yes"/>
      <point x="108" y="405"/>
      <point x="78" y="367"/>
      <point x="38" y="333" type="curve"/>
      <point x="88" y="210"/>
      <point x="166" y="132"/>
      <point x="284" y="132" type="curve" smooth="yes"/>
      <point x="341" y="132"/>
      <point x="383" y="144"/>
      <point x="429" y="165" type="curve"/>
      <point x="423" y="180" type="line"/>
    </contour>
  </outline>
</glyph>
<glyph name="phaguru" format="2">
  <advance width="579"/>
  <unicode hex="0A2B"/>
  <outline>
    <contour>
      <point x="336" y="0" type="curve" smooth="yes"/>
      <point x="482" y="0"/>
      <point x="537" y="49"/>
      <point x="537" y="127" type="curve" smooth="yes"/>
      <point x="537" y="186"/>
      <point x="493" y="237"/>
      <point x="396" y="237" type="curve" smooth="yes"/>
      <point x="274" y="237"/>
      <point x="194" y="165"/>
      <point x="144" y="100" type="curve"/>
      <point x="204" y="67" type="line"/>
      <point x="247" y="116"/>
      <point x="311" y="166"/>
      <point x="388" y="166" type="curve" smooth="yes"/>
      <point x="434" y="166"/>
      <point x="457" y="149"/>
      <point x="457" y="124" type="curve" smooth="yes"/>
      <point x="457" y="86"/>
      <point x="419" y="69"/>
      <point x="341" y="69" type="curve" smooth="yes"/>
      <point x="212" y="69"/>
      <point x="118" y="151"/>
      <point x="118" y="259" type="curve" smooth="yes"/>
      <point x="118" y="284"/>
      <point x="124" y="306"/>
      <point x="141" y="320" type="curve" smooth="yes"/>
      <point x="166" y="341"/>
      <point x="199" y="349"/>
      <point x="279" y="349" type="curve" smooth="yes"/>
      <point x="460" y="349" type="line"/>
      <point x="489" y="378" type="line"/>
      <point x="489" y="551" type="line"/>
      <point x="586" y="551" type="line"/>
      <point x="586" y="622" type="line"/>
      <point x="-7" y="622" type="line"/>
      <point x="-7" y="551" type="line"/>
      <point x="408" y="551" type="line"/>
      <point x="408" y="420" type="line"/>
      <point x="268" y="420" type="line" smooth="yes"/>
      <point x="161" y="420"/>
      <point x="119" y="406"/>
      <point x="82" y="374" type="curve" smooth="yes"/>
      <point x="54" y="350"/>
      <point x="37" y="311"/>
      <point x="37" y="264" type="curve" smooth="yes"/>
      <point x="37" y="116"/>
      <point x="162" y="0"/>
    </contour>
  </outline>
</glyph>
<glyph name="baguru" format="2">
  <advance width="608"/>
  <unicode hex="0A2C"/>
  <outline>
    <contour>
      <point x="41" y="248" type="curve"/>
      <point x="88" y="145"/>
      <point x="173" y="69"/>
      <point x="307" y="69" type="curve" smooth="yes"/>
      <point x="362" y="69"/>
      <point x="409" y="80"/>
      <point x="452" y="100" type="curve"/>
      <point x="446" y="176" type="line"/>
      <point x="405" y="153"/>
      <point x="357" y="143"/>
      <point x="307" y="143" type="curve" smooth="yes"/>
      <point x="218" y="143"/>
      <point x="162" y="183"/>
      <point x="122" y="268" type="curve"/>
      <point x="120" y="225" type="line"/>
      <point x="172" y="294"/>
      <point x="231" y="322"/>
      <point x="313" y="322" type="curve" smooth="yes"/>
      <point x="454" y="322" type="line"/>
      <point x="456" y="392" type="line"/>
      <point x="296" y="392" type="line" smooth="yes"/>
      <point x="233" y="392"/>
      <point x="206" y="401"/>
      <point x="182" y="423" type="curve" smooth="yes"/>
      <point x="152" y="451"/>
      <point x="141" y="496"/>
      <point x="141" y="554" type="curve"/>
      <point x="105" y="551" type="line"/>
      <point x="569" y="551" type="line"/>
      <point x="569" y="622" type="line"/>
      <point x="-7" y="622" type="line"/>
      <point x="-7" y="551" type="line"/>
      <point x="95" y="551" type="line"/>
      <point x="59" y="555" type="line"/>
      <point x="59" y="433"/>
      <point x="109" y="372"/>
      <point x="196" y="343" type="curve"/>
      <point x="189" y="361" type="line"/>
      <point x="122" y="338"/>
      <point x="71" y="293"/>
    </contour>
    <contour>
      <point x="438" y="0" type="line"/>
      <point x="519" y="0" type="line"/>
      <point x="519" y="551" type="line"/>
      <point x="616" y="551" type="line"/>
      <point x="616" y="622" type="line"/>
      <point x="342" y="622" type="line"/>
      <point x="342" y="551" type="line"/>
      <point x="438" y="551" type="line"/>
    </contour>
  </outline>
</glyph>
<glyph name="bhaguru" format="2">
  <advance width="577"/>
  <unicode hex="0A2D"/>
  <outline>
    <contour>
      <point x="255" y="0" type="curve" smooth="yes"/>
      <point x="414" y="0"/>
      <point x="512" y="67"/>
      <point x="512" y="203" type="curve" smooth="yes"/>
      <point x="512" y="259"/>
      <point x="491" y="314"/>
      <point x="444" y="366" type="curve"/>
      <point x="431" y="377" type="line"/>
      <point x="383" y="429"/>
      <point x="316" y="463"/>
      <point x="227" y="463" type="curve" smooth="yes"/>
      <point x="116" y="463"/>
      <point x="62" y="412"/>
      <point x="62" y="344" type="curve" smooth="yes"/>
      <point x="62" y="273"/>
      <point x="118" y="226"/>
      <point x="230" y="226" type="curve" smooth="yes"/>
      <point x="324" y="226"/>
      <point x="390" y="258"/>
      <point x="437" y="312" type="curve"/>
      <point x="448" y="322" type="line"/>
      <point x="488" y="364"/>
      <point x="503" y="416"/>
      <point x="503" y="463" type="curve" smooth="yes"/>
      <point x="503" y="510"/>
      <point x="495" y="547"/>
      <point x="487" y="565" type="curve"/>
      <point x="456" y="551" type="line"/>
      <point x="584" y="551" type="line"/>
      <point x="584" y="622" type="line"/>
      <point x="-7" y="622" type="line"/>
      <point x="-7" y="551" type="line"/>
      <point x="445" y="551" type="line"/>
      <point x="401" y="567" type="line"/>
      <point x="414" y="547"/>
      <point x="424" y="509"/>
      <point x="424" y="467" type="curve" smooth="yes"/>
      <point x="424" y="404"/>
      <point x="389" y="297"/>
      <point x="229" y="297" type="curve" smooth="yes"/>
      <point x="168" y="297"/>
      <point x="142" y="315"/>
      <point x="142" y="345" type="curve" smooth="yes"/>
      <point x="142" y="369"/>
      <point x="164" y="392"/>
      <point x="228" y="392" type="curve" smooth="yes"/>
      <point x="334" y="392"/>
      <point x="432" y="315"/>
      <point x="432" y="207" type="curve" smooth="yes"/>
      <point x="432" y="112"/>
      <point x="369" y="72"/>
      <point x="258" y="72" type="curve" smooth="yes"/>
      <point x="171" y="72"/>
      <point x="110" y="96"/>
      <point x="45" y="138" type="curve"/>
      <point x="13" y="64" type="line"/>
      <point x="78" y="26"/>
      <point x="160" y="0"/>
    </contour>
  </outline>
</glyph>
<glyph name="yaguru" format="2">
  <advance width="695"/>
  <unicode hex="0A2F"/>
  <outline>
    <contour>
      <point x="525" y="0" type="line"/>
      <point x="606" y="0" type="line"/>
      <point x="606" y="551" type="line"/>
      <point x="703" y="551" type="line"/>
      <point x="703" y="622" type="line"/>
      <point x="-7" y="622" type="line"/>
      <point x="-7" y="551" type="line"/>
      <point x="84" y="551" type="line"/>
      <point x="99" y="525"/>
      <point x="108" y="486"/>
      <point x="108" y="457" type="curve" smooth="yes"/>
      <point x="108" y="401"/>
      <point x="78" y="362"/>
      <point x="38" y="327" type="curve"/>
      <point x="88" y="201"/>
      <point x="166" y="120"/>
      <point x="284" y="120" type="curve" smooth="yes"/>
      <point x="325" y="120"/>
      <point x="367" y="126"/>
      <point x="396" y="136" type="curve"/>
      <point x="396" y="299" type="line"/>
      <point x="525" y="299" type="line"/>
    </contour>
    <contour>
      <point x="315" y="371" type="line"/>
      <point x="315" y="195" type="line"/>
      <point x="307" y="194"/>
      <point x="298" y="193"/>
      <point x="284" y="193" type="curve" smooth="yes"/>
      <point x="206" y="193"/>
      <point x="161" y="246"/>
      <point x="119" y="352" type="curve"/>
      <point x="115" y="307" type="line"/>
      <point x="158" y="339"/>
      <point x="188" y="385"/>
      <point x="188" y="457" type="curve" smooth="yes"/>
      <point x="188" y="485"/>
      <point x="182" y="518"/>
      <point x="169" y="551" type="curve"/>
      <point x="525" y="551" type="line"/>
      <point x="525" y="371" type="line"/>
    </contour>
  </outline>
</glyph>
<glyph name="raguru" format="2">
  <advance width="579"/>
  <unicode hex="0A30"/>
  <outline>
    <contour>
      <point x="310" y="0" type="curve" smooth="yes"/>
      <point x="433" y="0"/>
      <point x="490" y="56"/>
      <point x="490" y="172" type="curve" smooth="yes"/>
      <point x="490" y="551" type="line"/>
      <point x="586" y="551" type="line"/>
      <point x="586" y="622" type="line"/>
      <point x="-7" y="622" type="line"/>
      <point x="-7" y="551" type="line"/>
      <point x="409" y="551" type="line"/>
      <point x="409" y="408" type="line"/>
      <point x="272" y="408" type="line" smooth="yes"/>
      <point x="165" y="408"/>
      <point x="118" y="394"/>
      <point x="82" y="363" type="curve" smooth="yes"/>
      <point x="55" y="339"/>
      <point x="37" y="306"/>
      <point x="37" y="258" type="curve" smooth="yes"/>
      <point x="37" y="126"/>
      <point x="167" y="0"/>
    </contour>
    <contour>
      <point x="317" y="73" type="curve" smooth="yes"/>
      <point x="219" y="73"/>
      <point x="118" y="166"/>
      <point x="118" y="252" type="curve" smooth="yes"/>
      <point x="118" y="276"/>
      <point x="124" y="296"/>
      <point x="141" y="311" type="curve" smooth="yes"/>
      <point x="164" y="331"/>
      <point x="199" y="337"/>
      <point x="282" y="337" type="curve" smooth="yes"/>
      <point x="409" y="337" type="line"/>
      <point x="409" y="183" type="line" smooth="yes"/>
      <point x="409" y="128"/>
      <point x="402" y="110"/>
      <point x="390" y="96" type="curve" smooth="yes"/>
      <point x="374" y="78"/>
      <point x="347" y="73"/>
    </contour>
  </outline>
</glyph>
<glyph name="laguru" format="2">
  <advance width="674"/>
  <unicode hex="0A32"/>
  <outline>
    <contour>
      <point x="337" y="250" type="curve"/>
      <point x="451" y="315"/>
      <point x="535" y="426"/>
      <point x="557" y="551" type="curve"/>
      <point x="681" y="551" type="line"/>
      <point x="681" y="622" type="line"/>
      <point x="-7" y="622" type="line"/>
      <point x="-7" y="551" type="line"/>
      <point x="117" y="551" type="line"/>
      <point x="138" y="430"/>
      <point x="226" y="311"/>
    </contour>
    <contour>
      <point x="475" y="551" type="line"/>
      <point x="458" y="445"/>
      <point x="395" y="367"/>
      <point x="318" y="323" type="curve"/>
      <point x="356" y="322" type="line"/>
      <point x="279" y="370"/>
      <point x="215" y="445"/>
      <point x="199" y="551" type="curve"/>
    </contour>
    <contour>
      <point x="39" y="193" type="curve" smooth="yes"/>
      <point x="39" y="116"/>
      <point x="83" y="0"/>
      <point x="248" y="0" type="curve" smooth="yes"/>
      <point x="254" y="0" type="line"/>
      <point x="259" y="73" type="line"/>
      <point x="254" y="73" type="line" smooth="yes"/>
      <point x="159" y="73"/>
      <point x="119" y="123"/>
      <point x="119" y="195" type="curve" smooth="yes"/>
      <point x="119" y="268"/>
      <point x="176" y="321"/>
      <point x="246" y="353" type="curve"/>
      <point x="206" y="408" type="line"/>
      <point x="101" y="363"/>
      <point x="39" y="284"/>
    </contour>
    <contour>
      <point x="635" y="194" type="curve" smooth="yes"/>
      <point x="635" y="275"/>
      <point x="586" y="356"/>
      <point x="464" y="412" type="curve"/>
      <point x="421" y="353" type="line"/>
      <point x="513" y="316"/>
      <point x="555" y="257"/>
      <point x="555" y="191" type="curve" smooth="yes"/>
      <point x="555" y="123"/>
      <point x="515" y="73"/>
      <point x="426" y="73" type="curve" smooth="yes"/>
      <point x="415" y="73" type="line"/>
      <point x="420" y="0" type="line"/>
      <point x="426" y="0" type="line" smooth="yes"/>
      <point x="590" y="0"/>
      <point x="635" y="116"/>
    </contour>
  </outline>
</glyph>
<glyph name="vaguru" format="2">
  <advance width="567"/>
  <unicode hex="0A35"/>
  <outline>
    <contour>
      <point x="493" y="196" type="line"/>
      <point x="493" y="267" type="line"/>
      <point x="283" y="267" type="line" smooth="yes"/>
      <point x="201" y="267"/>
      <point x="169" y="271"/>
      <point x="146" y="284" type="curve" smooth="yes"/>
      <point x="126" y="295"/>
      <point x="118" y="311"/>
      <point x="118" y="333" type="curve" smooth="yes"/>
      <point x="118" y="354"/>
      <point x="127" y="367"/>
      <point x="142" y="375" type="curve" smooth="yes"/>
      <point x="157" y="382"/>
      <point x="177" y="385"/>
      <point x="213" y="385" type="curve" smooth="yes"/>
      <point x="449" y="385" type="line"/>
      <point x="478" y="414" type="line"/>
      <point x="478" y="551" type="line"/>
      <point x="575" y="551" type="line"/>
      <point x="575" y="622" type="line"/>
      <point x="-7" y="622" type="line"/>
      <point x="-7" y="551" type="line"/>
      <point x="397" y="551" type="line"/>
      <point x="397" y="456" type="line"/>
      <point x="239" y="456" type="line" smooth="yes"/>
      <point x="166" y="456"/>
      <point x="131" y="453"/>
      <point x="97" y="436" type="curve" smooth="yes"/>
      <point x="61" y="417"/>
      <point x="37" y="385"/>
      <point x="37" y="336" type="curve" smooth="yes"/>
      <point x="37" y="292"/>
      <point x="51" y="259"/>
      <point x="90" y="233" type="curve" smooth="yes"/>
      <point x="125" y="210"/>
      <point x="191" y="196"/>
      <point x="255" y="196" type="curve" smooth="yes"/>
    </contour>
    <contour>
      <point x="314" y="0" type="curve" smooth="yes"/>
      <point x="383" y="0"/>
      <point x="444" y="10"/>
      <point x="500" y="25" type="curve"/>
      <point x="480" y="97" type="line"/>
      <point x="427" y="80"/>
      <point x="382" y="72"/>
      <point x="324" y="72" type="curve" smooth="yes"/>
      <point x="234" y="72"/>
      <point x="194" y="98"/>
      <point x="194" y="141" type="curve" smooth="yes"/>
      <point x="194" y="160"/>
      <point x="203" y="175"/>
      <point x="216" y="184" type="curve" smooth="yes"/>
      <point x="237" y="196"/>
      <point x="258" y="196"/>
      <point x="314" y="196" type="curve" smooth="yes"/>
      <point x="354" y="196" type="line"/>
      <point x="210" y="231" type="line"/>
      <point x="144" y="223"/>
      <point x="114" y="179"/>
      <point x="114" y="134" type="curve" smooth="yes"/>
      <point x="114" y="63"/>
      <point x="167" y="0"/>
    </contour>
  </outline>
</glyph>
<glyph name="sanuktaguru" format="2">
  <advance width="603"/>
  <unicode hex="0A36"/>
  <outline>
    <contour>
      <point x="433" y="0" type="line"/>
      <point x="514" y="0" type="line"/>
      <point x="514" y="551" type="line"/>
      <point x="610" y="551" type="line"/>
      <point x="610" y="622" type="line"/>
      <point x="-7" y="622" type="line"/>
      <point x="-7" y="551" type="line"/>
      <point x="67" y="551" type="line"/>
      <point x="97" y="470"/>
      <point x="115" y="374"/>
      <point x="119" y="288" type="curve"/>
      <point x="70" y="233"/>
      <point x="58" y="168"/>
      <point x="58" y="139" type="curve" smooth="yes"/>
      <point x="58" y="94"/>
      <point x="78" y="81"/>
      <point x="105" y="81" type="curve" smooth="yes"/>
      <point x="158" y="81"/>
      <point x="187" y="151"/>
      <point x="192" y="261" type="curve"/>
      <point x="433" y="261" type="line"/>
    </contour>
    <contour>
      <point x="193" y="332" type="line"/>
      <point x="192" y="395"/>
      <point x="179" y="471"/>
      <point x="153" y="551" type="curve"/>
      <point x="433" y="551" type="line"/>
      <point x="433" y="332" type="line"/>
    </contour>
    <contour>
      <point x="281" y="-9" type="curve" smooth="yes"/>
      <point x="313" y="-9"/>
      <point x="336" y="12"/>
      <point x="336" y="48" type="curve" smooth="yes"/>
      <point x="336" y="84"/>
      <point x="311" y="105"/>
      <point x="281" y="105" type="curve" smooth="yes"/>
      <point x="250" y="105"/>
      <point x="226" y="84"/>
      <point x="226" y="48" type="curve" smooth="yes"/>
      <point x="226" y="12"/>
      <point x="250" y="-9"/>
    </contour>
  </outline>
</glyph>
<glyph name="saguru" format="2">
  <advance width="596"/>
  <unicode hex="0A38"/>
  <outline>
    <contour>
      <point x="426" y="0" type="line"/>
      <point x="507" y="0" type="line"/>
      <point x="507" y="551" type="line"/>
      <point x="603" y="551" type="line"/>
      <point x="603" y="622" type="line"/>
      <point x="-7" y="622" type="line"/>
      <point x="-7" y="551" type="line"/>
      <point x="67" y="551" type="line"/>
      <point x="97" y="470"/>
      <point x="115" y="374"/>
      <point x="119" y="288" type="curve"/>
      <point x="70" y="233"/>
      <point x="58" y="168"/>
      <point x="58" y="139" type="curve" smooth="yes"/>
      <point x="58" y="94"/>
      <point x="78" y="81"/>
      <point x="105" y="81" type="curve" smooth="yes"/>
      <point x="158" y="81"/>
      <point x="187" y="151"/>
      <point x="192" y="261" type="curve"/>
      <point x="426" y="261" type="line"/>
    </contour>
    <contour>
      <point x="193" y="332" type="line"/>
      <point x="192" y="395"/>
      <point x="179" y="471"/>
      <point x="153" y="551" type="curve"/>
      <point x="426" y="551" type="line"/>
      <point x="426" y="332" type="line"/>
    </contour>
  </outline>
</glyph>
<glyph name="haguru" format="2">
  <advance width="576"/>
  <unicode hex="0A39"/>
  <outline>
    <contour>
      <point x="309" y="0" type="curve" smooth="yes"/>
      <point x="428" y="0"/>
      <point x="487" y="54"/>
      <point x="487" y="172" type="curve" smooth="yes"/>
      <point x="487" y="551" type="line"/>
      <point x="583" y="551" type="line"/>
      <point x="583" y="622" type="line"/>
      <point x="-7" y="622" type="line"/>
      <point x="-7" y="551" type="line"/>
      <point x="406" y="551" type="line"/>
      <point x="406" y="183" type="line" smooth="yes"/>
      <point x="406" y="128"/>
      <point x="399" y="110"/>
      <point x="387" y="96" type="curve" smooth="yes"/>
      <point x="372" y="78"/>
      <point x="345" y="73"/>
      <point x="317" y="73" type="curve" smooth="yes"/>
      <point x="219" y="73"/>
      <point x="118" y="166"/>
      <point x="118" y="253" type="curve" smooth="yes"/>
      <point x="118" y="315"/>
      <point x="158" y="335"/>
      <point x="226" y="335" type="curve" smooth="yes"/>
      <point x="237" y="335"/>
      <point x="253" y="335"/>
      <point x="264" y="333" type="curve"/>
      <point x="270" y="405" type="line"/>
      <point x="260" y="407"/>
      <point x="242" y="408"/>
      <point x="228" y="408" type="curve" smooth="yes"/>
      <point x="108" y="408"/>
      <point x="37" y="362"/>
      <point x="37" y="258" type="curve" smooth="yes"/>
      <point x="37" y="126"/>
      <point x="166" y="0"/>
    </contour>
  </outline>
</glyph>
<glyph name="nuktaguru" format="2">
  <unicode hex="0A3C"/>
  <outline>
    <contour>
      <point x="-283" y="-191" type="curve" smooth="yes"/>
      <point x="-251" y="-191"/>
      <point x="-228" y="-170"/>
      <point x="-228" y="-134" type="curve" smooth="yes"/>
      <point x="-228" y="-98"/>
      <point x="-252" y="-77"/>
      <point x="-283" y="-77" type="curve" smooth="yes"/>
      <point x="-313" y="-77"/>
      <point x="-338" y="-98"/>
      <point x="-338" y="-134" type="curve" smooth="yes"/>
      <point x="-338" y="-170"/>
      <point x="-313" y="-191"/>
    </contour>
  </outline>
</glyph>
<glyph name="aamatraguru" format="2">
  <advance width="235"/>
  <unicode hex="0A3E"/>
  <outline>
    <contour>
      <point x="74" y="261" type="line"/>
      <point x="154" y="261" type="line"/>
      <point x="154" y="551" type="line"/>
      <point x="242" y="551" type="line"/>
      <point x="242" y="622" type="line"/>
      <point x="-7" y="622" type="line"/>
      <point x="-7" y="551" type="line"/>
      <point x="74" y="551" type="line"/>
    </contour>
  </outline>
</glyph>
<glyph name="imatraguru" format="2">
  <advance width="259"/>
  <unicode hex="0A3F"/>
  <outline>
    <contour>
      <point x="89" y="0" type="line"/>
      <point x="170" y="0" type="line"/>
      <point x="170" y="551" type="line"/>
      <point x="266" y="551" type="line"/>
      <point x="266" y="622" type="line"/>
      <point x="170" y="622" type="line"/>
      <point x="170" y="670" type="line" smooth="yes"/>
      <point x="170" y="759"/>
      <point x="188" y="826"/>
      <point x="271" y="826" type="curve" smooth="yes"/>
      <point x="335" y="826"/>
      <point x="360" y="788"/>
      <point x="360" y="724" type="curve" smooth="yes"/>
      <point x="360" y="699"/>
      <point x="358" y="678"/>
      <point x="355" y="663" type="curve"/>
      <point x="433" y="655" type="line"/>
      <point x="437" y="677"/>
      <point x="439" y="699"/>
      <point x="439" y="721" type="curve" smooth="yes"/>
      <point x="439" y="840"/>
      <point x="369" y="896"/>
      <point x="271" y="896" type="curve" smooth="yes"/>
      <point x="138" y="896"/>
      <point x="89" y="809"/>
      <point x="89" y="668" type="curve" smooth="yes"/>
      <point x="89" y="622" type="line"/>
      <point x="-7" y="622" type="line"/>
      <point x="-7" y="551" type="line"/>
      <point x="89" y="551" type="line"/>
    </contour>
  </outline>
</glyph>
<glyph name="iimatraguru" format="2">
  <advance width="259"/>
  <unicode hex="0A40"/>
  <outline>
    <contour>
      <point x="89" y="0" type="line"/>
      <point x="170" y="0" type="line"/>
      <point x="170" y="551" type="line"/>
      <point x="266" y="551" type="line"/>
      <point x="266" y="622" type="line"/>
      <point x="170" y="622" type="line"/>
      <point x="170" y="679" type="line" smooth="yes"/>
      <point x="170" y="806"/>
      <point x="132" y="896"/>
      <point x="-4" y="896" type="curve" smooth="yes"/>
      <point x="-110" y="896"/>
      <point x="-182" y="833"/>
      <point x="-182" y="722" type="curve" smooth="yes"/>
      <point x="-182" y="699"/>
      <point x="-179" y="676"/>
      <point x="-175" y="655" type="curve"/>
      <point x="-97" y="663" type="line"/>
      <point x="-100" y="679"/>
      <point x="-103" y="699"/>
      <point x="-103" y="721" type="curve" smooth="yes"/>
      <point x="-103" y="787"/>
      <point x="-75" y="826"/>
      <point x="-6" y="826" type="curve" smooth="yes"/>
      <point x="78" y="826"/>
      <point x="89" y="759"/>
      <point x="89" y="654" type="curve" smooth="yes"/>
      <point x="89" y="622" type="line"/>
      <point x="-7" y="622" type="line"/>
      <point x="-7" y="551" type="line"/>
      <point x="89" y="551" type="line"/>
    </contour>
  </outline>
</glyph>
<glyph name="umatraguru" format="2">
  <unicode hex="0A41"/>
  <guideline x="-498" y="-19" angle="90"/>
  <outline>
    <contour>
      <point x="-305" y="-182" type="curve" smooth="yes"/>
      <point x="-224" y="-182"/>
      <point x="-156" y="-158"/>
      <point x="-113" y="-131" type="curve"/>
      <point x="-127" y="-63" type="line"/>
      <point x="-172" y="-89"/>
      <point x="-228" y="-111"/>
      <point x="-305" y="-111" type="curve" smooth="yes"/>
      <point x="-384" y="-111"/>
      <point x="-437" y="-89"/>
      <point x="-482" y="-63" type="curve"/>
      <point x="-497" y="-131" type="line"/>
      <point x="-454" y="-158"/>
      <point x="-387" y="-182"/>
    </contour>
  </outline>
</glyph>
<glyph name="uumatraguru" format="2">
  <unicode hex="0A42"/>
  <outline>
    <contour>
      <point x="-305" y="-156" type="curve" smooth="yes"/>
      <point x="-224" y="-156"/>
      <point x="-156" y="-132"/>
      <point x="-113" y="-105" type="curve"/>
      <point x="-127" y="-44" type="line"/>
      <point x="-172" y="-69"/>
      <point x="-225" y="-91"/>
      <point x="-305" y="-91" type="curve" smooth="yes"/>
      <point x="-385" y="-91"/>
      <point x="-437" y="-70"/>
      <point x="-482" y="-44" type="curve"/>
      <point x="-497" y="-105" type="line"/>
      <point x="-454" y="-132"/>
      <point x="-386" y="-156"/>
    </contour>
    <contour>
      <point x="-305" y="-287" type="curve" smooth="yes"/>
      <point x="-224" y="-287"/>
      <point x="-156" y="-263"/>
      <point x="-113" y="-236" type="curve"/>
      <point x="-127" y="-174" type="line"/>
      <point x="-172" y="-200"/>
      <point x="-225" y="-222"/>
      <point x="-305" y="-222" type="curve" smooth="yes"/>
      <point x="-385" y="-222"/>
      <point x="-437" y="-200"/>
      <point x="-482" y="-174" type="curve"/>
      <point x="-497" y="-236" type="line"/>
      <point x="-454" y="-263"/>
      <point x="-387" y="-287"/>
    </contour>
  </outline>
</glyph>
<glyph name="eematraguru" format="2">
  <unicode hex="0A47"/>
  <outline>
    <contour>
      <point x="-167" y="615" type="curve"/>
      <point x="-90" y="615" type="line"/>
      <point x="-132" y="809"/>
      <point x="-225" y="896"/>
      <point x="-373" y="896" type="curve" smooth="yes"/>
      <point x="-379" y="896"/>
      <point x="-387" y="896"/>
      <point x="-398" y="895" type="curve"/>
      <point x="-394" y="819" type="line"/>
      <point x="-388" y="820"/>
      <point x="-377" y="820"/>
      <point x="-366" y="820" type="curve" smooth="yes"/>
      <point x="-275" y="820"/>
      <point x="-205" y="774"/>
    </contour>
  </outline>
</glyph>
<glyph name="aimatraguru" format="2">
  <unicode hex="0A48"/>
  <outline>
    <contour>
      <point x="-143" y="610" type="curve"/>
      <point x="-83" y="615" type="line"/>
      <point x="-122" y="813"/>
      <point x="-208" y="896"/>
      <point x="-359" y="896" type="curve" smooth="yes"/>
      <point x="-365" y="896"/>
      <point x="-373" y="896"/>
      <point x="-378" y="896" type="curve"/>
      <point x="-374" y="822" type="line"/>
      <point x="-370" y="822"/>
      <point x="-364" y="822"/>
      <point x="-359" y="822" type="curve" smooth="yes"/>
      <point x="-249" y="822"/>
      <point x="-181" y="770"/>
    </contour>
    <contour>
      <point x="-159" y="577" type="curve"/>
      <point x="-117" y="598" type="line"/>
      <point x="-171" y="705"/>
      <point x="-251" y="760"/>
      <point x="-377" y="760" type="curve" smooth="yes"/>
      <point x="-383" y="760"/>
      <point x="-392" y="760"/>
      <point x="-398" y="759" type="curve"/>
      <point x="-393" y="686" type="line"/>
      <point x="-387" y="686"/>
      <point x="-380" y="686"/>
      <point x="-374" y="686" type="curve" smooth="yes"/>
      <point x="-276" y="686"/>
      <point x="-208" y="659"/>
    </contour>
  </outline>
</glyph>
<glyph name="oomatraguru" format="2">
  <unicode hex="0A4B"/>
  <outline>
    <contour>
      <point x="-168" y="615" type="curve"/>
      <point x="-95" y="615" type="line"/>
      <point x="-99" y="764"/>
      <point x="-166" y="800"/>
      <point x="-238" y="800" type="curve" smooth="yes"/>
      <point x="-261" y="800"/>
      <point x="-290" y="795"/>
      <point x="-313" y="795" type="curve" smooth="yes"/>
      <point x="-365" y="795"/>
      <point x="-378" y="829"/>
      <point x="-400" y="896" type="curve"/>
      <point x="-472" y="877" type="line"/>
      <point x="-440" y="758"/>
      <point x="-390" y="724"/>
      <point x="-320" y="724" type="curve" smooth="yes"/>
      <point x="-294" y="724"/>
      <point x="-269" y="729"/>
      <point x="-246" y="729" type="curve" smooth="yes"/>
      <point x="-195" y="729"/>
      <point x="-175" y="696"/>
    </contour>
  </outline>
</glyph>
<glyph name="aumatraguru" format="2">
  <unicode hex="0A4C"/>
  <outline>
    <contour>
      <point x="-253" y="679" type="curve"/>
      <point x="-185" y="689" type="line"/>
      <point x="-193" y="709"/>
      <point x="-197" y="727"/>
      <point x="-197" y="747" type="curve" smooth="yes"/>
      <point x="-197" y="787"/>
      <point x="-173" y="811"/>
      <point x="-130" y="811" type="curve" smooth="yes"/>
      <point x="-86" y="811"/>
      <point x="-62" y="788"/>
      <point x="-62" y="747" type="curve" smooth="yes"/>
      <point x="-62" y="727"/>
      <point x="-66" y="709"/>
      <point x="-75" y="689" type="curve"/>
      <point x="-6" y="679" type="line"/>
      <point x="3" y="702"/>
      <point x="10" y="732"/>
      <point x="10" y="754" type="curve" smooth="yes"/>
      <point x="10" y="828"/>
      <point x="-44" y="875"/>
      <point x="-130" y="875" type="curve" smooth="yes"/>
      <point x="-210" y="875"/>
      <point x="-269" y="828"/>
      <point x="-269" y="755" type="curve" smooth="yes"/>
      <point x="-269" y="732"/>
      <point x="-263" y="702"/>
    </contour>
    <contour>
      <point x="-290" y="764" type="curve" smooth="yes"/>
      <point x="-249" y="764"/>
      <point x="-213" y="785"/>
      <point x="-197" y="802" type="curve"/>
      <point x="-213" y="854" type="line"/>
      <point x="-242" y="834"/>
      <point x="-253" y="829"/>
      <point x="-286" y="829" type="curve" smooth="yes"/>
      <point x="-331" y="829"/>
      <point x="-347" y="846"/>
      <point x="-364" y="896" type="curve"/>
      <point x="-435" y="877" type="line"/>
      <point x="-411" y="786"/>
      <point x="-353" y="764"/>
    </contour>
  </outline>
</glyph>
<glyph name="halantguru" format="2">
  <unicode hex="0A4D"/>
  <outline>
    <contour>
      <point x="26" y="-246" type="curve"/>
      <point x="96" y="-225" type="line"/>
      <point x="41" y="-79"/>
      <point x="-55" y="-35"/>
      <point x="-158" y="-35" type="curve" smooth="yes"/>
      <point x="-163" y="-35"/>
      <point x="-173" y="-35"/>
      <point x="-183" y="-36" type="curve"/>
      <point x="-178" y="-112" type="line"/>
      <point x="-170" y="-111"/>
      <point x="-163" y="-111"/>
      <point x="-156" y="-111" type="curve" smooth="yes"/>
      <point x="-99" y="-111"/>
      <point x="-22" y="-125"/>
    </contour>
  </outline>
</glyph>
<glyph name="udaatguru" format="2">
  <unicode hex="0A51"/>
  <outline>
    <contour>
      <point x="114" y="-310" type="curve"/>
      <point x="118" y="-234" type="line"/>
      <point x="112" y="-235"/>
      <point x="108" y="-235"/>
      <point x="102" y="-235" type="curve" smooth="yes"/>
      <point x="11" y="-235"/>
      <point x="-59" y="-189"/>
      <point x="-98" y="-30" type="curve"/>
      <point x="-169" y="-52" type="line"/>
      <point x="-126" y="-229"/>
      <point x="-39" y="-312"/>
      <point x="95" y="-312" type="curve" smooth="yes"/>
      <point x="101" y="-312"/>
      <point x="110" y="-311"/>
    </contour>
  </outline>
</glyph>
<glyph name="januktaguru" format="2">
  <advance width="626"/>
  <unicode hex="0A5B"/>
  <outline>
    <contour>
      <point x="106" y="0" type="line"/>
      <point x="187" y="0" type="line"/>
      <point x="187" y="291" type="line"/>
      <point x="456" y="291" type="line"/>
      <point x="456" y="0" type="line"/>
      <point x="537" y="0" type="line"/>
      <point x="537" y="551" type="line"/>
      <point x="634" y="551" type="line"/>
      <point x="634" y="622" type="line"/>
      <point x="-7" y="622" type="line"/>
      <point x="-7" y="551" type="line"/>
      <point x="456" y="551" type="line"/>
      <point x="456" y="362" type="line"/>
      <point x="187" y="362" type="line"/>
      <point x="187" y="387" type="line" smooth="yes"/>
      <point x="187" y="416"/>
      <point x="176" y="442"/>
      <point x="144" y="442" type="curve" smooth="yes"/>
      <point x="101" y="442"/>
      <point x="37" y="377"/>
      <point x="37" y="329" type="curve" smooth="yes"/>
      <point x="37" y="308"/>
      <point x="51" y="291"/>
      <point x="88" y="291" type="curve" smooth="yes"/>
      <point x="106" y="291" type="line"/>
    </contour>
    <contour>
      <point x="321" y="-9" type="curve" smooth="yes"/>
      <point x="353" y="-9"/>
      <point x="376" y="12"/>
      <point x="376" y="48" type="curve" smooth="yes"/>
      <point x="376" y="84"/>
      <point x="352" y="105"/>
      <point x="321" y="105" type="curve" smooth="yes"/>
      <point x="291" y="105"/>
      <point x="266" y="84"/>
      <point x="266" y="48" type="curve" smooth="yes"/>
      <point x="266" y="12"/>
      <point x="291" y="-9"/>
    </contour>
  </outline>
</glyph>
<glyph name="rraguru" format="2">
  <advance width="569"/>
  <unicode hex="0A5C"/>
  <outline>
    <contour>
      <point x="283" y="81" type="curve" smooth="yes"/>
      <point x="420" y="81"/>
      <point x="515" y="134"/>
      <point x="515" y="232" type="curve" smooth="yes"/>
      <point x="515" y="302"/>
      <point x="476" y="341"/>
      <point x="408" y="374" type="curve"/>
      <point x="454" y="400"/>
      <point x="490" y="438"/>
      <point x="490" y="520" type="curve" smooth="yes"/>
      <point x="490" y="532"/>
      <point x="488" y="545"/>
      <point x="485" y="560" type="curve"/>
      <point x="458" y="551" type="line"/>
      <point x="576" y="551" type="line"/>
      <point x="576" y="622" type="line"/>
      <point x="-7" y="622" type="line"/>
      <point x="-7" y="551" type="line"/>
      <point x="430" y="551" type="line"/>
      <point x="405" y="560" type="line"/>
      <point x="408" y="546"/>
      <point x="409" y="535"/>
      <point x="409" y="521" type="curve" smooth="yes"/>
      <point x="409" y="458"/>
      <point x="376" y="422"/>
      <point x="329" y="403" type="curve"/>
      <point x="283" y="419"/>
      <point x="237" y="429"/>
      <point x="184" y="429" type="curve" smooth="yes"/>
      <point x="135" y="429"/>
      <point x="96" y="417"/>
      <point x="96" y="378" type="curve" smooth="yes"/>
      <point x="96" y="351"/>
      <point x="116" y="322"/>
      <point x="208" y="322" type="curve" smooth="yes"/>
      <point x="249" y="322"/>
      <point x="293" y="329"/>
      <point x="323" y="334" type="curve"/>
      <point x="395" y="315"/>
      <point x="433" y="282"/>
      <point x="433" y="235" type="curve" smooth="yes"/>
      <point x="433" y="177"/>
      <point x="374" y="153"/>
      <point x="277" y="153" type="curve" smooth="yes"/>
      <point x="200" y="153"/>
      <point x="139" y="170"/>
      <point x="63" y="207" type="curve"/>
      <point x="26" y="150" type="line"/>
      <point x="104" y="120" type="line"/>
      <point x="147" y="97"/>
      <point x="206" y="81"/>
    </contour>
    <contour>
      <point x="117" y="-19" type="curve"/>
      <point x="192" y="14" type="line"/>
      <point x="156" y="78"/>
      <point x="125" y="119"/>
      <point x="83" y="167" type="curve"/>
      <point x="26" y="150" type="line"/>
      <point x="50" y="111"/>
      <point x="95" y="30"/>
    </contour>
    <contour>
      <point x="421" y="-20" type="curve"/>
      <point x="496" y="15" type="line"/>
      <point x="465" y="61"/>
      <point x="436" y="99"/>
      <point x="400" y="139" type="curve"/>
      <point x="372" y="139" type="line"/>
      <point x="306" y="150" type="line"/>
      <point x="349" y="98"/>
      <point x="389" y="39"/>
    </contour>
  </outline>
</glyph>
<glyph name="zeroguru" format="2">
  <advance width="551"/>
  <unicode hex="0A66"/>
  <outline>
    <contour>
      <point x="276" y="78" type="curve" smooth="yes"/>
      <point x="422" y="78"/>
      <point x="513" y="172"/>
      <point x="513" y="315" type="curve" smooth="yes"/>
      <point x="513" y="458"/>
      <point x="419" y="553"/>
      <point x="275" y="553" type="curve" smooth="yes"/>
      <point x="136" y="553"/>
      <point x="39" y="459"/>
      <point x="39" y="316" type="curve" smooth="yes"/>
      <point x="39" y="173"/>
      <point x="128" y="78"/>
    </contour>
    <contour>
      <point x="273" y="151" type="curve" smooth="yes"/>
      <point x="177" y="151"/>
      <point x="121" y="214"/>
      <point x="121" y="313" type="curve" smooth="yes"/>
      <point x="121" y="412"/>
      <point x="176" y="480"/>
      <point x="277" y="480" type="curve" smooth="yes"/>
      <point x="373" y="480"/>
      <point x="431" y="417"/>
      <point x="431" y="317" type="curve" smooth="yes"/>
      <point x="431" y="219"/>
      <point x="377" y="151"/>
    </contour>
  </outline>
</glyph>
<glyph name="oneguru" format="2">
  <advance width="551"/>
  <unicode hex="0A67"/>
  <outline>
    <contour>
      <point x="500" y="0" type="curve"/>
      <point x="510" y="73" type="line"/>
      <point x="448" y="73"/>
      <point x="436" y="95"/>
      <point x="436" y="165" type="curve" smooth="yes"/>
      <point x="436" y="451" type="line" smooth="yes"/>
      <point x="436" y="510"/>
      <point x="422" y="557"/>
      <point x="380" y="591" type="curve" smooth="yes"/>
      <point x="346" y="618"/>
      <point x="303" y="632"/>
      <point x="247" y="632" type="curve" smooth="yes"/>
      <point x="128" y="632"/>
      <point x="60" y="556"/>
      <point x="60" y="464" type="curve" smooth="yes"/>
      <point x="60" y="356"/>
      <point x="133" y="298"/>
      <point x="236" y="298" type="curve" smooth="yes"/>
      <point x="294" y="298"/>
      <point x="334" y="312"/>
      <point x="377" y="342" type="curve"/>
      <point x="363" y="418" type="line"/>
      <point x="334" y="390"/>
      <point x="299" y="370"/>
      <point x="236" y="370" type="curve" smooth="yes"/>
      <point x="177" y="370"/>
      <point x="141" y="404"/>
      <point x="141" y="464" type="curve" smooth="yes"/>
      <point x="141" y="522"/>
      <point x="176" y="560"/>
      <point x="243" y="560" type="curve" smooth="yes"/>
      <point x="274" y="560"/>
      <point x="301" y="553"/>
      <point x="320" y="538" type="curve" smooth="yes"/>
      <point x="344" y="520"/>
      <point x="355" y="490"/>
      <point x="355" y="445" type="curve" smooth="yes"/>
      <point x="355" y="164" type="line" smooth="yes"/>
      <point x="355" y="118"/>
      <point x="359" y="74"/>
      <point x="389" y="40" type="curve" smooth="yes"/>
      <point x="410" y="16"/>
      <point x="445" y="0"/>
    </contour>
  </outline>
</glyph>
<glyph name="twoguru" format="2">
  <advance width="551"/>
  <unicode hex="0A68"/>
  <outline>
    <contour>
      <point x="200" y="148" type="curve" smooth="yes"/>
      <point x="359" y="148"/>
      <point x="479" y="244"/>
      <point x="479" y="404" type="curve" smooth="yes"/>
      <point x="479" y="542"/>
      <point x="394" y="632"/>
      <point x="235" y="632" type="curve" smooth="yes"/>
      <point x="159" y="632"/>
      <point x="100" y="616"/>
      <point x="43" y="590" type="curve"/>
      <point x="71" y="524" type="line"/>
      <point x="113" y="544"/>
      <point x="165" y="559"/>
      <point x="228" y="559" type="curve" smooth="yes"/>
      <point x="341" y="559"/>
      <point x="397" y="500"/>
      <point x="397" y="402" type="curve" smooth="yes"/>
      <point x="397" y="294"/>
      <point x="312" y="220"/>
      <point x="189" y="218" type="curve"/>
      <point x="237" y="199" type="line"/>
      <point x="286" y="218" type="line"/>
      <point x="236" y="249"/>
      <point x="194" y="265"/>
      <point x="143" y="265" type="curve" smooth="yes"/>
      <point x="89" y="265"/>
      <point x="65" y="244"/>
      <point x="65" y="214" type="curve" smooth="yes"/>
      <point x="65" y="164"/>
      <point x="125" y="148"/>
    </contour>
    <contour>
      <point x="443" y="-18" type="curve"/>
      <point x="501" y="35" type="line"/>
      <point x="440" y="96"/>
      <point x="349" y="165"/>
      <point x="288" y="201" type="curve"/>
      <point x="254" y="191" type="line"/>
      <point x="194" y="173" type="line"/>
      <point x="280" y="128"/>
      <point x="368" y="56"/>
    </contour>
  </outline>
</glyph>
<glyph name="threeguru" format="2">
  <advance width="551"/>
  <unicode hex="0A69"/>
  <outline>
    <contour>
      <point x="422" y="-66" type="curve"/>
      <point x="480" y="-14" type="line"/>
      <point x="424" y="42"/>
      <point x="339" y="107"/>
      <point x="274" y="134" type="curve"/>
      <point x="216" y="93" type="line"/>
      <point x="291" y="55"/>
      <point x="374" y="-20"/>
    </contour>
    <contour>
      <point x="364" y="349" type="line"/>
      <point x="431" y="378"/>
      <point x="478" y="420"/>
      <point x="478" y="485" type="curve" smooth="yes"/>
      <point x="478" y="574"/>
      <point x="399" y="632"/>
      <point x="257" y="632" type="curve" smooth="yes"/>
      <point x="168" y="632"/>
      <point x="99" y="614"/>
      <point x="42" y="590" type="curve"/>
      <point x="69" y="523" type="line"/>
      <point x="111" y="541"/>
      <point x="184" y="559"/>
      <point x="253" y="559" type="curve" smooth="yes"/>
      <point x="347" y="559"/>
      <point x="396" y="534"/>
      <point x="396" y="481" type="curve" smooth="yes"/>
      <point x="396" y="436"/>
      <point x="358" y="400"/>
      <point x="267" y="386" type="curve"/>
      <point x="328" y="386" type="line"/>
      <point x="277" y="405"/>
      <point x="229" y="421"/>
      <point x="173" y="421" type="curve" smooth="yes"/>
      <point x="132" y="421"/>
      <point x="93" y="409"/>
      <point x="93" y="371" type="curve" smooth="yes"/>
      <point x="93" y="343"/>
      <point x="113" y="314"/>
      <point x="199" y="314" type="curve" smooth="yes"/>
      <point x="240" y="314"/>
      <point x="283" y="320"/>
      <point x="326" y="334" type="curve"/>
      <point x="266" y="333" type="line"/>
      <point x="356" y="322"/>
      <point x="400" y="284"/>
      <point x="400" y="237" type="curve" smooth="yes"/>
      <point x="400" y="187"/>
      <point x="348" y="147"/>
      <point x="227" y="144" type="curve"/>
      <point x="292" y="134" type="line"/>
      <point x="236" y="166"/>
      <point x="190" y="182"/>
      <point x="131" y="182" type="curve" smooth="yes"/>
      <point x="78" y="182"/>
      <point x="54" y="162"/>
      <point x="54" y="135" type="curve" smooth="yes"/>
      <point x="54" y="88"/>
      <point x="114" y="74"/>
      <point x="187" y="74" type="curve" smooth="yes"/>
      <point x="364" y="74"/>
      <point x="482" y="125"/>
      <point x="482" y="236" type="curve" smooth="yes"/>
      <point x="482" y="307"/>
      <point x="429" y="348"/>
      <point x="365" y="371" type="curve"/>
    </contour>
  </outline>
</glyph>
<glyph name="fourguru" format="2">
  <advance width="551"/>
  <unicode hex="0A6A"/>
  <outline>
    <contour>
      <point x="275" y="276" type="curve" smooth="yes"/>
      <point x="429" y="276"/>
      <point x="506" y="353"/>
      <point x="506" y="454" type="curve" smooth="yes"/>
      <point x="506" y="523"/>
      <point x="458" y="608"/>
      <point x="332" y="627" type="curve"/>
      <point x="322" y="558" type="line"/>
      <point x="399" y="542"/>
      <point x="425" y="500"/>
      <point x="425" y="449" type="curve" smooth="yes"/>
      <point x="425" y="381"/>
      <point x="383" y="338"/>
      <point x="274" y="338" type="curve" smooth="yes"/>
      <point x="162" y="338"/>
      <point x="126" y="390"/>
      <point x="126" y="449" type="curve" smooth="yes"/>
      <point x="126" y="500"/>
      <point x="155" y="545"/>
      <point x="229" y="558" type="curve"/>
      <point x="219" y="627" type="line"/>
      <point x="95" y="610"/>
      <point x="45" y="523"/>
      <point x="45" y="454" type="curve" smooth="yes"/>
      <point x="45" y="353"/>
      <point x="122" y="276"/>
    </contour>
    <contour>
      <point x="276" y="-8" type="curve" smooth="yes"/>
      <point x="411" y="-8"/>
      <point x="486" y="62"/>
      <point x="486" y="165" type="curve" smooth="yes"/>
      <point x="486" y="268"/>
      <point x="399" y="322"/>
      <point x="275" y="322" type="curve" smooth="yes"/>
      <point x="152" y="322"/>
      <point x="64" y="269"/>
      <point x="64" y="167" type="curve" smooth="yes"/>
      <point x="64" y="62"/>
      <point x="140" y="-8"/>
    </contour>
    <contour>
      <point x="274" y="64" type="curve" smooth="yes"/>
      <point x="188" y="64"/>
      <point x="146" y="104"/>
      <point x="146" y="165" type="curve" smooth="yes"/>
      <point x="146" y="225"/>
      <point x="188" y="266"/>
      <point x="278" y="266" type="curve" smooth="yes"/>
      <point x="357" y="266"/>
      <point x="404" y="228"/>
      <point x="404" y="167" type="curve" smooth="yes"/>
      <point x="404" y="106"/>
      <point x="367" y="64"/>
    </contour>
  </outline>
</glyph>
<glyph name="fiveguru" format="2">
  <advance width="551"/>
  <unicode hex="0A6B"/>
  <outline>
    <contour>
      <point x="389" y="0" type="line"/>
      <point x="470" y="0" type="line"/>
      <point x="470" y="622" type="line"/>
      <point x="389" y="622" type="line"/>
      <point x="389" y="240" type="line"/>
      <point x="417" y="276" type="line"/>
      <point x="373" y="247"/>
      <point x="327" y="231"/>
      <point x="275" y="231" type="curve" smooth="yes"/>
      <point x="199" y="231"/>
      <point x="155" y="280"/>
      <point x="113" y="373" type="curve"/>
      <point x="112" y="328" type="line"/>
      <point x="153" y="362"/>
      <point x="184" y="400"/>
      <point x="184" y="475" type="curve" smooth="yes"/>
      <point x="184" y="530"/>
      <point x="167" y="580"/>
      <point x="139" y="632" type="curve"/>
      <point x="64" y="604" type="line"/>
      <point x="89" y="560"/>
      <point x="104" y="521"/>
      <point x="104" y="474" type="curve" smooth="yes"/>
      <point x="104" y="419"/>
      <point x="74" y="381"/>
      <point x="34" y="349" type="curve"/>
      <point x="82" y="232"/>
      <point x="158" y="157"/>
      <point x="273" y="157" type="curve" smooth="yes"/>
      <point x="329" y="157"/>
      <point x="370" y="168"/>
      <point x="415" y="190" type="curve"/>
      <point x="389" y="194" type="line"/>
    </contour>
  </outline>
</glyph>
<glyph name="sixguru" format="2">
  <advance width="551"/>
  <unicode hex="0A6C"/>
  <outline>
    <contour>
      <point x="343" y="511" type="curve"/>
      <point x="434" y="521" type="line"/>
      <point x="377" y="562"/>
      <point x="357" y="603"/>
      <point x="357" y="647" type="curve" smooth="yes"/>
      <point x="357" y="688"/>
      <point x="382" y="717"/>
      <point x="441" y="717" type="curve" smooth="yes"/>
      <point x="460" y="717"/>
      <point x="474" y="716"/>
      <point x="487" y="714" type="curve"/>
      <point x="497" y="783" type="line"/>
      <point x="480" y="786"/>
      <point x="454" y="787"/>
      <point x="435" y="787" type="curve" smooth="yes"/>
      <point x="324" y="787"/>
      <point x="277" y="727"/>
      <point x="277" y="659" type="curve" smooth="yes"/>
      <point x="277" y="596"/>
      <point x="306" y="552"/>
    </contour>
    <contour>
      <point x="481" y="97" type="line"/>
      <point x="439" y="78"/>
      <point x="380" y="63"/>
      <point x="309" y="63" type="curve" smooth="yes"/>
      <point x="205" y="63"/>
      <point x="155" y="92"/>
      <point x="155" y="158" type="curve" smooth="yes"/>
      <point x="155" y="204"/>
      <point x="190" y="243"/>
      <point x="274" y="260" type="curve"/>
      <point x="216" y="260" type="line"/>
      <point x="267" y="238"/>
      <point x="320" y="226"/>
      <point x="373" y="226" type="curve" smooth="yes"/>
      <point x="414" y="226"/>
      <point x="453" y="238"/>
      <point x="453" y="276" type="curve" smooth="yes"/>
      <point x="453" y="304"/>
      <point x="433" y="333"/>
      <point x="348" y="333" type="curve" smooth="yes"/>
      <point x="303" y="333"/>
      <point x="259" y="325"/>
      <point x="218" y="314" type="curve"/>
      <point x="285" y="311" type="line"/>
      <point x="180" y="327"/>
      <point x="155" y="360"/>
      <point x="155" y="402" type="curve" smooth="yes"/>
      <point x="155" y="457"/>
      <point x="213" y="493"/>
      <point x="341" y="493" type="curve" smooth="yes"/>
      <point x="354" y="493"/>
      <point x="373" y="491"/>
      <point x="400" y="486" type="curve"/>
      <point x="322" y="511" type="line"/>
      <point x="345" y="474"/>
      <point x="382" y="444"/>
      <point x="432" y="444" type="curve" smooth="yes"/>
      <point x="471" y="444"/>
      <point x="500" y="459"/>
      <point x="500" y="493" type="curve" smooth="yes"/>
      <point x="500" y="540"/>
      <point x="443" y="562"/>
      <point x="333" y="562" type="curve" smooth="yes"/>
      <point x="186" y="562"/>
      <point x="73" y="510"/>
      <point x="73" y="405" type="curve" smooth="yes"/>
      <point x="73" y="336"/>
      <point x="121" y="296"/>
      <point x="179" y="276" type="curve"/>
      <point x="180" y="298" type="line"/>
      <point x="116" y="267"/>
      <point x="74" y="219"/>
      <point x="74" y="156" type="curve" smooth="yes"/>
      <point x="74" y="55"/>
      <point x="147" y="-9"/>
      <point x="300" y="-9" type="curve" smooth="yes"/>
      <point x="391" y="-9"/>
      <point x="453" y="8"/>
      <point x="510" y="32" type="curve"/>
    </contour>
  </outline>
</glyph>
<glyph name="sevenguru" format="2">
  <advance width="551"/>
  <unicode hex="0A6D"/>
  <outline>
    <contour>
      <point x="28" y="-9" type="line"/>
      <point x="293" y="9"/>
      <point x="501" y="143"/>
      <point x="501" y="369" type="curve" smooth="yes"/>
      <point x="501" y="522"/>
      <point x="418" y="632"/>
      <point x="269" y="632" type="curve" smooth="yes"/>
      <point x="140" y="632"/>
      <point x="71" y="553"/>
      <point x="71" y="469" type="curve" smooth="yes"/>
      <point x="71" y="408"/>
      <point x="95" y="361"/>
      <point x="132" y="317" type="curve"/>
      <point x="200" y="355" type="line"/>
      <point x="171" y="384"/>
      <point x="151" y="417"/>
      <point x="151" y="461" type="curve" smooth="yes"/>
      <point x="151" y="526"/>
      <point x="197" y="560"/>
      <point x="266" y="560" type="curve" smooth="yes"/>
      <point x="370" y="560"/>
      <point x="419" y="474"/>
      <point x="419" y="368" type="curve" smooth="yes"/>
      <point x="419" y="186"/>
      <point x="251" y="81"/>
      <point x="28" y="64" type="curve"/>
    </contour>
  </outline>
</glyph>
<glyph name="eightguru" format="2">
  <advance width="551"/>
  <unicode hex="0A6E"/>
  <outline>
    <contour>
      <point x="415" y="0" type="curve" smooth="yes"/>
      <point x="444" y="0"/>
      <point x="481" y="1"/>
      <point x="513" y="5" type="curve"/>
      <point x="506" y="78" type="line"/>
      <point x="482" y="75"/>
      <point x="453" y="72"/>
      <point x="431" y="72" type="curve" smooth="yes"/>
      <point x="320" y="72"/>
      <point x="277" y="90"/>
      <point x="241" y="127" type="curve" smooth="yes"/>
      <point x="209" y="160"/>
      <point x="191" y="203"/>
      <point x="191" y="314" type="curve" smooth="yes"/>
      <point x="191" y="476" type="line"/>
      <point x="510" y="476" type="line"/>
      <point x="510" y="547" type="line"/>
      <point x="191" y="547" type="line"/>
      <point x="191" y="577" type="line" smooth="yes"/>
      <point x="191" y="605"/>
      <point x="180" y="632"/>
      <point x="147" y="632" type="curve" smooth="yes"/>
      <point x="101" y="632"/>
      <point x="36" y="566"/>
      <point x="36" y="514" type="curve" smooth="yes"/>
      <point x="36" y="493"/>
      <point x="50" y="476"/>
      <point x="87" y="476" type="curve" smooth="yes"/>
      <point x="110" y="476" type="line"/>
      <point x="110" y="297" type="line" smooth="yes"/>
      <point x="110" y="194"/>
      <point x="129" y="135"/>
      <point x="170" y="86" type="curve" smooth="yes"/>
      <point x="216" y="31"/>
      <point x="283" y="0"/>
    </contour>
  </outline>
</glyph>
<glyph name="nineguru" format="2">
  <advance width="551"/>
  <unicode hex="0A6F"/>
  <outline>
    <contour>
      <point x="415" y="0" type="curve" smooth="yes"/>
      <point x="444" y="0"/>
      <point x="479" y="1"/>
      <point x="513" y="5" type="curve"/>
      <point x="506" y="78" type="line"/>
      <point x="481" y="75"/>
      <point x="457" y="72"/>
      <point x="431" y="72" type="curve" smooth="yes"/>
      <point x="320" y="72"/>
      <point x="277" y="90"/>
      <point x="241" y="127" type="curve" smooth="yes"/>
      <point x="209" y="159"/>
      <point x="191" y="203"/>
      <point x="191" y="314" type="curve" smooth="yes"/>
      <point x="191" y="476" type="line"/>
      <point x="510" y="476" type="line"/>
      <point x="510" y="547" type="line"/>
      <point x="191" y="547" type="line"/>
      <point x="191" y="577" type="line" smooth="yes"/>
      <point x="191" y="605"/>
      <point x="180" y="632"/>
      <point x="147" y="632" type="curve" smooth="yes"/>
      <point x="101" y="632"/>
      <point x="36" y="566"/>
      <point x="36" y="514" type="curve" smooth="yes"/>
      <point x="36" y="493"/>
      <point x="50" y="476"/>
      <point x="87" y="476" type="curve" smooth="yes"/>
      <point x="110" y="476" type="line"/>
      <point x="110" y="297" type="line" smooth="yes"/>
      <point x="110" y="194"/>
      <point x="129" y="135"/>
      <point x="170" y="86" type="curve" smooth="yes"/>
      <point x="216" y="31"/>
      <point x="283" y="0"/>
    </contour>
    <contour>
      <point x="418" y="511" type="curve"/>
      <point x="509" y="521" type="line"/>
      <point x="452" y="562"/>
      <point x="433" y="603"/>
      <point x="433" y="647" type="curve" smooth="yes"/>
      <point x="433" y="688"/>
      <point x="458" y="717"/>
      <point x="517" y="717" type="curve" smooth="yes"/>
      <point x="535" y="717"/>
      <point x="549" y="716"/>
      <point x="562" y="714" type="curve"/>
      <point x="572" y="783" type="line"/>
      <point x="555" y="786"/>
      <point x="529" y="787"/>
      <point x="510" y="787" type="curve" smooth="yes"/>
      <point x="399" y="787"/>
      <point x="352" y="727"/>
      <point x="352" y="659" type="curve" smooth="yes"/>
      <point x="352" y="596"/>
      <point x="381" y="552"/>
    </contour>
  </outline>
</glyph>
<glyph name="tippiguru" format="2">
  <unicode hex="0A70"/>
  <outline>
    <contour>
      <point x="-259" y="679" type="curve"/>
      <point x="-190" y="689" type="line"/>
      <point x="-199" y="709"/>
      <point x="-203" y="727"/>
      <point x="-203" y="747" type="curve" smooth="yes"/>
      <point x="-203" y="787"/>
      <point x="-177" y="811"/>
      <point x="-130" y="811" type="curve" smooth="yes"/>
      <point x="-83" y="811"/>
      <point x="-56" y="788"/>
      <point x="-56" y="747" type="curve" smooth="yes"/>
      <point x="-56" y="727"/>
      <point x="-60" y="709"/>
      <point x="-69" y="689" type="curve"/>
      <point x="0" y="679" type="line"/>
      <point x="9" y="702"/>
      <point x="16" y="732"/>
      <point x="16" y="754" type="curve" smooth="yes"/>
      <point x="16" y="828"/>
      <point x="-41" y="875"/>
      <point x="-130" y="875" type="curve" smooth="yes"/>
      <point x="-216" y="875"/>
      <point x="-275" y="828"/>
      <point x="-275" y="755" type="curve" smooth="yes"/>
      <point x="-275" y="732"/>
      <point x="-269" y="702"/>
    </contour>
  </outline>
</glyph>
<glyph name="addakguru" format="2">
  <unicode hex="0A71"/>
  <outline>
    <contour>
      <point x="-129" y="685" type="curve" smooth="yes"/>
      <point x="-36" y="685"/>
      <point x="15" y="742"/>
      <point x="19" y="863" type="curve"/>
      <point x="-57" y="868" type="line"/>
      <point x="-57" y="778"/>
      <point x="-81" y="752"/>
      <point x="-130" y="752" type="curve" smooth="yes"/>
      <point x="-178" y="752"/>
      <point x="-203" y="777"/>
      <point x="-203" y="868" type="curve"/>
      <point x="-278" y="863" type="line"/>
      <point x="-274" y="742"/>
      <point x="-223" y="685"/>
    </contour>
  </outline>
</glyph>
<glyph name="iriguru" format="2">
  <advance width="557"/>
  <unicode hex="0A72"/>
  <outline>
    <contour>
      <point x="36" y="200" type="curve"/>
      <point x="90" y="85"/>
      <point x="168" y="0"/>
      <point x="309" y="0" type="curve" smooth="yes"/>
      <point x="386" y="0"/>
      <point x="453" y="18"/>
      <point x="511" y="46" type="curve"/>
      <point x="483" y="117" type="line"/>
      <point x="423" y="88"/>
      <point x="378" y="73"/>
      <point x="310" y="73" type="curve" smooth="yes"/>
      <point x="213" y="73"/>
      <point x="165" y="129"/>
      <point x="116" y="219" type="curve"/>
      <point x="116" y="175" type="line"/>
      <point x="143" y="214"/>
      <point x="179" y="251"/>
      <point x="226" y="272" type="curve" smooth="yes"/>
      <point x="250" y="283"/>
      <point x="276" y="291"/>
      <point x="316" y="291" type="curve" smooth="yes"/>
      <point x="444" y="291" type="line"/>
      <point x="474" y="320" type="line"/>
      <point x="474" y="551" type="line"/>
      <point x="564" y="551" type="line"/>
      <point x="564" y="622" type="line"/>
      <point x="-7" y="622" type="line"/>
      <point x="-7" y="551" type="line"/>
      <point x="54" y="551" type="line"/>
      <point x="54" y="429"/>
      <point x="98" y="345"/>
      <point x="201" y="312" type="curve"/>
      <point x="204" y="332" type="line"/>
      <point x="123" y="302"/>
      <point x="69" y="251"/>
    </contour>
    <contour>
      <point x="294" y="362" type="line" smooth="yes"/>
      <point x="237" y="362"/>
      <point x="206" y="375"/>
      <point x="183" y="397" type="curve" smooth="yes"/>
      <point x="149" y="430"/>
      <point x="136" y="485"/>
      <point x="136" y="551" type="curve"/>
      <point x="393" y="551" type="line"/>
      <point x="393" y="362" type="line"/>
    </contour>
  </outline>
</glyph>
<glyph name="uraguru" format="2">
  <advance width="662"/>
  <unicode hex="0A73"/>
  <outline>
    <contour>
      <point x="359" y="0" type="curve" smooth="yes"/>
      <point x="495" y="0"/>
      <point x="563" y="66"/>
      <point x="563" y="174" type="curve" smooth="yes"/>
      <point x="563" y="232"/>
      <point x="532" y="304"/>
      <point x="431" y="331" type="curve"/>
      <point x="418" y="309" type="line"/>
      <point x="534" y="324"/>
      <point x="629" y="398"/>
      <point x="629" y="566" type="curve" smooth="yes"/>
      <point x="629" y="759"/>
      <point x="527" y="855"/>
      <point x="378" y="855" type="curve" smooth="yes"/>
      <point x="249" y="855"/>
      <point x="123" y="794"/>
      <point x="80" y="595" type="curve"/>
      <point x="77" y="576" type="line"/>
      <point x="69" y="532"/>
      <point x="66" y="485"/>
      <point x="66" y="421" type="curve" smooth="yes"/>
      <point x="66" y="127"/>
      <point x="181" y="0"/>
    </contour>
    <contour>
      <point x="355" y="73" type="curve" smooth="yes"/>
      <point x="253" y="73"/>
      <point x="148" y="133"/>
      <point x="148" y="424" type="curve" smooth="yes"/>
      <point x="148" y="480"/>
      <point x="151" y="526"/>
      <point x="159" y="571" type="curve"/>
      <point x="161" y="584" type="line"/>
      <point x="192" y="726"/>
      <point x="273" y="782"/>
      <point x="371" y="782" type="curve" smooth="yes"/>
      <point x="486" y="782"/>
      <point x="548" y="703"/>
      <point x="548" y="574" type="curve"/>
      <point x="548" y="556" type="line"/>
      <point x="548" y="481"/>
      <point x="529" y="423"/>
      <point x="469" y="391" type="curve" smooth="yes"/>
      <point x="430" y="370"/>
      <point x="383" y="362"/>
      <point x="281" y="362" type="curve" smooth="yes"/>
      <point x="120" y="362" type="line"/>
      <point x="130" y="291" type="line"/>
      <point x="265" y="291" type="line" smooth="yes"/>
      <point x="376" y="291"/>
      <point x="405" y="281"/>
      <point x="437" y="261" type="curve" smooth="yes"/>
      <point x="466" y="243"/>
      <point x="481" y="213"/>
      <point x="481" y="174" type="curve" smooth="yes"/>
      <point x="481" y="107"/>
      <point x="443" y="73"/>
    </contour>
    <contour>
      <point x="-7" y="551" type="line"/>
      <point x="679" y="551" type="line"/>
      <point x="679" y="622" type="line"/>
      <point x="-7" y="622" type="line"/>
    </contour>
  </outline>
</glyph>
<glyph name="ekonkarguru" format="2">
  <advance width="1484"/>
  <unicode hex="0A74"/>
  <outline>
    <contour>
      <point x="843" y="0" type="curve" smooth="yes"/>
      <point x="978" y="0"/>
      <point x="1046" y="66"/>
      <point x="1046" y="175" type="curve" smooth="yes"/>
      <point x="1046" y="232"/>
      <point x="1015" y="304"/>
      <point x="914" y="331" type="curve"/>
      <point x="901" y="309" type="line"/>
      <point x="1017" y="324"/>
      <point x="1112" y="398"/>
      <point x="1112" y="566" type="curve"/>
      <point x="1112" y="584" type="line"/>
      <point x="1031" y="570" type="line"/>
      <point x="1031" y="556" type="line"/>
      <point x="1031" y="467"/>
      <point x="1012" y="423"/>
      <point x="952" y="391" type="curve" smooth="yes"/>
      <point x="913" y="370"/>
      <point x="867" y="362"/>
      <point x="764" y="362" type="curve" smooth="yes"/>
      <point x="603" y="362" type="line"/>
      <point x="613" y="291" type="line"/>
      <point x="748" y="291" type="line" smooth="yes"/>
      <point x="859" y="291"/>
      <point x="888" y="281"/>
      <point x="920" y="261" type="curve" smooth="yes"/>
      <point x="947" y="244"/>
      <point x="964" y="213"/>
      <point x="964" y="176" type="curve" smooth="yes"/>
      <point x="964" y="107"/>
      <point x="927" y="73"/>
      <point x="838" y="73" type="curve" smooth="yes"/>
      <point x="737" y="73"/>
      <point x="631" y="133"/>
      <point x="631" y="424" type="curve" smooth="yes"/>
      <point x="631" y="480"/>
      <point x="634" y="526"/>
      <point x="642" y="571" type="curve"/>
      <point x="644" y="584" type="line"/>
      <point x="675" y="726"/>
      <point x="756" y="782"/>
      <point x="854" y="782" type="curve" smooth="yes"/>
      <point x="931" y="782"/>
      <point x="991" y="750"/>
      <point x="1023" y="667" type="curve"/>
      <point x="1091" y="673" type="line"/>
      <point x="1130" y="751"/>
      <point x="1186" y="809"/>
      <point x="1281" y="809" type="curve" smooth="yes"/>
      <point x="1372" y="809"/>
      <point x="1431" y="757"/>
      <point x="1452" y="667" type="curve"/>
      <point x="1532" y="676" type="line"/>
      <point x="1511" y="784"/>
      <point x="1438" y="882"/>
      <point x="1287" y="882" type="curve" smooth="yes"/>
      <point x="1179" y="882"/>
      <point x="1096" y="832"/>
      <point x="1041" y="733" type="curve"/>
      <point x="1090" y="690" type="line"/>
      <point x="1062" y="796"/>
      <point x="974" y="855"/>
      <point x="860" y="855" type="curve" smooth="yes"/>
      <point x="732" y="855"/>
      <point x="606" y="794"/>
      <point x="563" y="595" type="curve"/>
      <point x="560" y="576" type="line"/>
      <point x="552" y="532"/>
      <point x="549" y="485"/>
      <point x="549" y="421" type="curve" smooth="yes"/>
      <point x="549" y="127"/>
      <point x="665" y="0"/>
    </contour>
    <contour>
      <point x="510" y="551" type="line"/>
      <point x="1159" y="551" type="line"/>
      <point x="1159" y="622" type="line"/>
      <point x="510" y="622" type="line"/>
    </contour>
    <component base="oneguru"/>
  </outline>
</glyph>
<glyph name="yakashguru" format="2">
  <unicode hex="0A75"/>
  <outline>
    <contour>
      <point x="-129" y="-312" type="curve" smooth="yes"/>
      <point x="-59" y="-312"/>
      <point x="-27" y="-270"/>
      <point x="-3" y="-220" type="curve"/>
      <point x="-60" y="-190" type="line"/>
      <point x="-78" y="-231"/>
      <point x="-93" y="-244"/>
      <point x="-121" y="-244" type="curve" smooth="yes"/>
      <point x="-161" y="-244"/>
      <point x="-174" y="-209"/>
      <point x="-174" y="-148" type="curve" smooth="yes"/>
      <point x="-174" y="-115"/>
      <point x="-171" y="-71"/>
      <point x="-168" y="-49" type="curve"/>
      <point x="-242" y="-41" type="line"/>
      <point x="-247" y="-71"/>
      <point x="-250" y="-105"/>
      <point x="-250" y="-147" type="curve" smooth="yes"/>
      <point x="-250" y="-278"/>
      <point x="-188" y="-312"/>
    </contour>
  </outline>
</glyph>
<glyph name="uni0A76" format="2">
  <advance width="280"/>
  <unicode hex="0A76"/>
  <outline>
    <contour>
      <point x="72" y="338" type="curve" smooth="yes"/>
      <point x="72" y="285"/>
      <point x="102" y="263"/>
      <point x="139" y="263" type="curve" smooth="yes"/>
      <point x="176" y="263"/>
      <point x="208" y="285"/>
      <point x="208" y="338" type="curve" smooth="yes"/>
      <point x="208" y="392"/>
      <point x="176" y="412"/>
      <point x="139" y="412" type="curve" smooth="yes"/>
      <point x="102" y="412"/>
      <point x="72" y="392"/>
    </contour>
  </outline>
</glyph>
<glyph name="emdash.guru" format="2">
  <advance width="1000"/>
  <unicode hex="2014"/>
  <outline>
    <contour>
      <point x="40" y="343" type="line"/>
      <point x="40" y="261" type="line"/>
      <point x="960" y="261" type="line"/>
      <point x="960" y="343" type="line"/>
    </contour>
  </outline>
</glyph>
<glyph name="quoteleft.guru" format="2">
  <advance width="312"/>
  <unicode hex="2018"/>
  <outline>
    <contour>
      <point x="89" y="484" type="line"/>
      <point x="186" y="484" type="line"/>
      <point x="196" y="553"/>
      <point x="215" y="649"/>
      <point x="235" y="729" type="curve"/>
      <point x="168" y="729" type="line"/>
      <point x="135" y="656"/>
      <point x="101" y="566"/>
      <point x="82" y="495" type="curve"/>
    </contour>
  </outline>
</glyph>
<glyph name="minus.guru" format="2">
  <advance width="551"/>
  <unicode hex="2212"/>
  <outline>
    <contour>
      <point x="50" y="359" type="line"/>
      <point x="50" y="286" type="line"/>
      <point x="501" y="286" type="line"/>
      <point x="501" y="359" type="line"/>
    </contour>
  </outline>
</glyph>
<glyph name="uniA832" format="2">
  <advance width="637"/>
  <unicode hex="A832"/>
  <outline>
    <contour>
      <point x="479" y="0" type="line"/>
      <point x="559" y="0" type="line"/>
      <point x="559" y="622" type="line"/>
      <point x="479" y="622" type="line"/>
    </contour>
    <contour>
      <point x="278" y="0" type="line"/>
      <point x="359" y="0" type="line"/>
      <point x="359" y="622" type="line"/>
      <point x="278" y="622" type="line"/>
    </contour>
    <contour>
      <point x="78" y="0" type="line"/>
      <point x="159" y="0" type="line"/>
      <point x="159" y="622" type="line"/>
      <point x="78" y="622" type="line"/>
    </contour>
  </outline>
</glyph>
<glyph name="uniA837" format="2">
  <advance width="509"/>
  <unicode hex="A837"/>
  <outline>
    <contour>
      <point x="221" y="86" type="curve" smooth="yes"/>
      <point x="321" y="86"/>
      <point x="383" y="154"/>
      <point x="383" y="240" type="curve" smooth="yes"/>
      <point x="383" y="332"/>
      <point x="315" y="391"/>
      <point x="222" y="391" type="curve" smooth="yes"/>
      <point x="184" y="391"/>
      <point x="150" y="367"/>
      <point x="133" y="346" type="curve"/>
      <point x="150" y="315" type="line"/>
      <point x="221" y="356"/>
      <point x="328" y="430"/>
      <point x="407" y="492" type="curve" smooth="yes"/>
      <point x="499" y="565" type="line"/>
      <point x="453" y="623" type="line"/>
      <point x="158" y="395" type="line" smooth="yes"/>
      <point x="75" y="331"/>
      <point x="57" y="291"/>
      <point x="57" y="240" type="curve" smooth="yes"/>
      <point x="57" y="150"/>
      <point x="124" y="86"/>
    </contour>
    <contour>
      <point x="220" y="156" type="curve" smooth="yes"/>
      <point x="165" y="156"/>
      <point x="133" y="190"/>
      <point x="133" y="240" type="curve" smooth="yes"/>
      <point x="133" y="286"/>
      <point x="164" y="323"/>
      <point x="220" y="323" type="curve" smooth="yes"/>
      <point x="273" y="323"/>
      <point x="307" y="288"/>
      <point x="307" y="240" type="curve" smooth="yes"/>
      <point x="307" y="191"/>
      <point x="276" y="156"/>
    </contour>
  </outline>
</glyph>
<glyph name="addakbaraltguru" format="2">
  <advance width="217"/>
  <outline>
    <contour>
      <point x="181" y="685" type="curve" smooth="yes"/>
      <point x="273" y="685"/>
      <point x="325" y="742"/>
      <point x="328" y="863" type="curve"/>
      <point x="253" y="868" type="line"/>
      <point x="253" y="778"/>
      <point x="229" y="752"/>
      <point x="180" y="752" type="curve" smooth="yes"/>
      <point x="131" y="752"/>
      <point x="107" y="777"/>
      <point x="107" y="868" type="curve"/>
      <point x="32" y="863" type="line"/>
      <point x="35" y="742"/>
      <point x="87" y="685"/>
    </contour>
    <contour>
      <point x="-7" y="551" type="line"/>
      <point x="224" y="551" type="line"/>
      <point x="224" y="622" type="line"/>
      <point x="-7" y="622" type="line"/>
    </contour>
  </outline>
</glyph>
<glyph name="aimatraaddakguru" format="2">
  <outline>
    <contour>
      <point x="-143" y="610" type="curve"/>
      <point x="-83" y="615" type="line"/>
      <point x="-162" y="838"/>
      <point x="-226" y="896"/>
      <point x="-370" y="896" type="curve" smooth="yes"/>
      <point x="-375" y="896"/>
      <point x="-383" y="896"/>
      <point x="-389" y="896" type="curve"/>
      <point x="-385" y="822" type="line"/>
      <point x="-380" y="822"/>
      <point x="-375" y="822"/>
      <point x="-370" y="822" type="curve" smooth="yes"/>
      <point x="-260" y="822"/>
      <point x="-190" y="764"/>
    </contour>
    <contour>
      <point x="-159" y="577" type="curve"/>
      <point x="-123" y="601" type="line"/>
      <point x="-177" y="708"/>
      <point x="-262" y="760"/>
      <point x="-388" y="760" type="curve" smooth="yes"/>
      <point x="-394" y="760"/>
      <point x="-400" y="760"/>
      <point x="-409" y="759" type="curve"/>
      <point x="-404" y="686" type="line"/>
      <point x="-398" y="686"/>
      <point x="-391" y="686"/>
      <point x="-384" y="686" type="curve" smooth="yes"/>
      <point x="-282" y="686"/>
      <point x="-212" y="657"/>
    </contour>
    <contour>
      <point x="-17" y="685" type="curve" smooth="yes"/>
      <point x="73" y="685"/>
      <point x="123" y="742"/>
      <point x="126" y="863" type="curve"/>
      <point x="51" y="868" type="line"/>
      <point x="51" y="778"/>
      <point x="28" y="752"/>
      <point x="-18" y="752" type="curve" smooth="yes"/>
      <point x="-63" y="752"/>
      <point x="-85" y="777"/>
      <point x="-85" y="868" type="curve"/>
      <point x="-161" y="863" type="line"/>
      <point x="-157" y="742"/>
      <point x="-107" y="685"/>
    </contour>
  </outline>
</glyph>
<glyph name="aimatrabindiguru" format="2">
  <outline>
    <contour>
      <point x="-143" y="610" type="curve"/>
      <point x="-83" y="615" type="line"/>
      <point x="-122" y="813"/>
      <point x="-208" y="896"/>
      <point x="-359" y="896" type="curve" smooth="yes"/>
      <point x="-365" y="896"/>
      <point x="-373" y="896"/>
      <point x="-378" y="896" type="curve"/>
      <point x="-374" y="822" type="line"/>
      <point x="-370" y="822"/>
      <point x="-364" y="822"/>
      <point x="-359" y="822" type="curve" smooth="yes"/>
      <point x="-249" y="822"/>
      <point x="-181" y="770"/>
    </contour>
    <contour>
      <point x="-159" y="577" type="curve"/>
      <point x="-117" y="598" type="line"/>
      <point x="-171" y="705"/>
      <point x="-251" y="760"/>
      <point x="-377" y="760" type="curve" smooth="yes"/>
      <point x="-383" y="760"/>
      <point x="-389" y="760"/>
      <point x="-398" y="759" type="curve"/>
      <point x="-393" y="686" type="line"/>
      <point x="-387" y="686"/>
      <point x="-380" y="686"/>
      <point x="-374" y="686" type="curve" smooth="yes"/>
      <point x="-276" y="686"/>
      <point x="-208" y="659"/>
    </contour>
    <contour>
      <point x="-75" y="782" type="curve" smooth="yes"/>
      <point x="-43" y="782"/>
      <point x="-20" y="803"/>
      <point x="-20" y="839" type="curve" smooth="yes"/>
      <point x="-20" y="875"/>
      <point x="-45" y="896"/>
      <point x="-75" y="896" type="curve" smooth="yes"/>
      <point x="-105" y="896"/>
      <point x="-130" y="875"/>
      <point x="-130" y="839" type="curve" smooth="yes"/>
      <point x="-130" y="803"/>
      <point x="-105" y="782"/>
    </contour>
  </outline>
</glyph>
<glyph name="aumatraaddakguru" format="2">
  <outline>
    <contour>
      <point x="-316" y="679" type="curve"/>
      <point x="-248" y="689" type="line"/>
      <point x="-257" y="709"/>
      <point x="-261" y="727"/>
      <point x="-261" y="747" type="curve" smooth="yes"/>
      <point x="-261" y="787"/>
      <point x="-238" y="811"/>
      <point x="-198" y="811" type="curve" smooth="yes"/>
      <point x="-158" y="811"/>
      <point x="-135" y="788"/>
      <point x="-135" y="747" type="curve" smooth="yes"/>
      <point x="-135" y="727"/>
      <point x="-139" y="709"/>
      <point x="-148" y="689" type="curve"/>
      <point x="-80" y="679" type="line"/>
      <point x="-70" y="702"/>
      <point x="-67" y="724"/>
      <point x="-67" y="754" type="curve" smooth="yes"/>
      <point x="-67" y="824"/>
      <point x="-119" y="875"/>
      <point x="-199" y="875" type="curve" smooth="yes"/>
      <point x="-276" y="875"/>
      <point x="-333" y="828"/>
      <point x="-333" y="755" type="curve" smooth="yes"/>
      <point x="-333" y="732"/>
      <point x="-326" y="702"/>
    </contour>
    <contour>
      <point x="-349" y="764" type="curve" smooth="yes"/>
      <point x="-310" y="764"/>
      <point x="-260" y="790"/>
      <point x="-264" y="807" type="curve" smooth="yes"/>
      <point x="-276" y="854" type="line"/>
      <point x="-304" y="834"/>
      <point x="-314" y="829"/>
      <point x="-344" y="829" type="curve" smooth="yes"/>
      <point x="-386" y="829"/>
      <point x="-402" y="846"/>
      <point x="-417" y="896" type="curve"/>
      <point x="-489" y="877" type="line"/>
      <point x="-465" y="786"/>
      <point x="-410" y="764"/>
    </contour>
    <contour>
      <point x="27" y="713" type="curve" smooth="yes"/>
      <point x="117" y="713"/>
      <point x="167" y="770"/>
      <point x="170" y="891" type="curve"/>
      <point x="95" y="896" type="line"/>
      <point x="95" y="807"/>
      <point x="72" y="780"/>
      <point x="26" y="780" type="curve" smooth="yes"/>
      <point x="-17" y="780"/>
      <point x="-41" y="806"/>
      <point x="-41" y="896" type="curve"/>
      <point x="-116" y="891" type="line"/>
      <point x="-112" y="774"/>
      <point x="-54" y="713"/>
    </contour>
  </outline>
</glyph>
<glyph name="aumatrabindiguru" format="2">
  <outline>
    <contour>
      <point x="-313" y="679" type="curve"/>
      <point x="-244" y="689" type="line"/>
      <point x="-253" y="709"/>
      <point x="-257" y="727"/>
      <point x="-257" y="747" type="curve" smooth="yes"/>
      <point x="-257" y="787"/>
      <point x="-232" y="811"/>
      <point x="-189" y="811" type="curve" smooth="yes"/>
      <point x="-146" y="811"/>
      <point x="-122" y="788"/>
      <point x="-122" y="747" type="curve" smooth="yes"/>
      <point x="-122" y="727"/>
      <point x="-125" y="709"/>
      <point x="-134" y="689" type="curve"/>
      <point x="-66" y="679" type="line"/>
      <point x="-56" y="702"/>
      <point x="-50" y="732"/>
      <point x="-50" y="754" type="curve" smooth="yes"/>
      <point x="-50" y="828"/>
      <point x="-104" y="875"/>
      <point x="-190" y="875" type="curve" smooth="yes"/>
      <point x="-270" y="875"/>
      <point x="-329" y="828"/>
      <point x="-329" y="755" type="curve" smooth="yes"/>
      <point x="-329" y="732"/>
      <point x="-322" y="702"/>
    </contour>
    <contour>
      <point x="-349" y="764" type="curve" smooth="yes"/>
      <point x="-308" y="764"/>
      <point x="-256" y="790"/>
      <point x="-260" y="807" type="curve" smooth="yes"/>
      <point x="-272" y="854" type="line"/>
      <point x="-302" y="834"/>
      <point x="-313" y="829"/>
      <point x="-345" y="829" type="curve" smooth="yes"/>
      <point x="-390" y="829"/>
      <point x="-407" y="846"/>
      <point x="-423" y="896" type="curve"/>
      <point x="-495" y="877" type="line"/>
      <point x="-470" y="786"/>
      <point x="-413" y="764"/>
    </contour>
    <contour>
      <point x="19" y="782" type="curve" smooth="yes"/>
      <point x="50" y="782"/>
      <point x="74" y="803"/>
      <point x="74" y="839" type="curve" smooth="yes"/>
      <point x="74" y="875"/>
      <point x="49" y="896"/>
      <point x="19" y="896" type="curve" smooth="yes"/>
      <point x="-12" y="896"/>
      <point x="-37" y="875"/>
      <point x="-37" y="839" type="curve" smooth="yes"/>
      <point x="-37" y="803"/>
      <point x="-12" y="782"/>
    </contour>
  </outline>
</glyph>
<glyph name="baUIguru" format="2">
  <advance width="608"/>
  <outline>
    <contour>
      <point x="41" y="257" type="curve"/>
      <point x="88" y="159"/>
      <point x="173" y="84"/>
      <point x="307" y="84" type="curve" smooth="yes"/>
      <point x="362" y="84"/>
      <point x="409" y="95"/>
      <point x="452" y="114" type="curve"/>
      <point x="446" y="190" type="line"/>
      <point x="405" y="168"/>
      <point x="357" y="158"/>
      <point x="307" y="158" type="curve" smooth="yes"/>
      <point x="218" y="158"/>
      <point x="162" y="196"/>
      <point x="122" y="277" type="curve"/>
      <point x="122" y="237" type="line"/>
      <point x="174" y="303"/>
      <point x="231" y="329"/>
      <point x="313" y="329" type="curve" smooth="yes"/>
      <point x="454" y="329" type="line"/>
      <point x="456" y="399" type="line"/>
      <point x="296" y="399" type="line" smooth="yes"/>
      <point x="232" y="399"/>
      <point x="206" y="409"/>
      <point x="182" y="430" type="curve" smooth="yes"/>
      <point x="151" y="457"/>
      <point x="141" y="503"/>
      <point x="141" y="561" type="curve"/>
      <point x="105" y="551" type="line"/>
      <point x="569" y="551" type="line"/>
      <point x="569" y="622" type="line"/>
      <point x="-7" y="622" type="line"/>
      <point x="-7" y="551" type="line"/>
      <point x="95" y="551" type="line"/>
      <point x="59" y="562" type="line"/>
      <point x="59" y="440"/>
      <point x="109" y="379"/>
      <point x="196" y="350" type="curve"/>
      <point x="189" y="368" type="line"/>
      <point x="122" y="345"/>
      <point x="71" y="302"/>
    </contour>
    <contour>
      <point x="438" y="76" type="line"/>
      <point x="519" y="76" type="line"/>
      <point x="519" y="551" type="line"/>
      <point x="616" y="551" type="line"/>
      <point x="616" y="622" type="line"/>
      <point x="342" y="622" type="line"/>
      <point x="342" y="551" type="line"/>
      <point x="438" y="551" type="line"/>
    </contour>
  </outline>
</glyph>
<glyph name="eematraaddakaltguru" format="2">
  <advance width="35"/>
  <outline>
    <contour>
      <point x="42" y="551" type="line"/>
      <point x="42" y="622" type="line"/>
      <point x="-7" y="622" type="line"/>
      <point x="-7" y="551" type="line"/>
    </contour>
    <component base="eematraaddakguru"/>
  </outline>
</glyph>
<glyph name="eematraaddakguru" format="2">
  <outline>
    <contour>
      <point x="-167" y="615" type="curve"/>
      <point x="-90" y="615" type="line"/>
      <point x="-148" y="822"/>
      <point x="-232" y="896"/>
      <point x="-379" y="896" type="curve" smooth="yes"/>
      <point x="-388" y="896"/>
      <point x="-391" y="896"/>
      <point x="-398" y="895" type="curve"/>
      <point x="-394" y="819" type="line"/>
      <point x="-386" y="820"/>
      <point x="-380" y="820"/>
      <point x="-370" y="820" type="curve" smooth="yes"/>
      <point x="-282" y="820"/>
      <point x="-215" y="777"/>
    </contour>
    <contour>
      <point x="-17" y="685" type="curve" smooth="yes"/>
      <point x="73" y="685"/>
      <point x="123" y="742"/>
      <point x="126" y="863" type="curve"/>
      <point x="51" y="868" type="line"/>
      <point x="51" y="778"/>
      <point x="28" y="752"/>
      <point x="-18" y="752" type="curve" smooth="yes"/>
      <point x="-61" y="752"/>
      <point x="-85" y="777"/>
      <point x="-85" y="868" type="curve"/>
      <point x="-160" y="863" type="line"/>
      <point x="-156" y="742"/>
      <point x="-105" y="685"/>
    </contour>
  </outline>
</glyph>
<glyph name="eematrabindiguru" format="2">
  <outline>
    <contour>
      <point x="-167" y="615" type="curve"/>
      <point x="-90" y="615" type="line"/>
      <point x="-132" y="809"/>
      <point x="-225" y="896"/>
      <point x="-373" y="896" type="curve" smooth="yes"/>
      <point x="-384" y="896"/>
      <point x="-392" y="896"/>
      <point x="-398" y="896" type="curve"/>
      <point x="-394" y="820" type="line"/>
      <point x="-388" y="820"/>
      <point x="-382" y="820"/>
      <point x="-366" y="820" type="curve" smooth="yes"/>
      <point x="-275" y="820"/>
      <point x="-205" y="774"/>
    </contour>
    <contour>
      <point x="-87" y="782" type="curve" smooth="yes"/>
      <point x="-55" y="782"/>
      <point x="-32" y="803"/>
      <point x="-32" y="839" type="curve" smooth="yes"/>
      <point x="-32" y="875"/>
      <point x="-57" y="896"/>
      <point x="-87" y="896" type="curve" smooth="yes"/>
      <point x="-117" y="896"/>
      <point x="-142" y="875"/>
      <point x="-142" y="839" type="curve" smooth="yes"/>
      <point x="-142" y="803"/>
      <point x="-117" y="782"/>
    </contour>
  </outline>
</glyph>
<glyph name="gaUIguru" format="2">
  <advance width="750"/>
  <outline>
    <contour>
      <point x="275" y="23" type="curve" smooth="yes"/>
      <point x="376" y="23"/>
      <point x="432" y="77"/>
      <point x="432" y="193" type="curve" smooth="yes"/>
      <point x="432" y="551" type="line"/>
      <point x="521" y="551" type="line"/>
      <point x="521" y="622" type="line"/>
      <point x="-7" y="622" type="line"/>
      <point x="-7" y="551" type="line"/>
      <point x="351" y="551" type="line"/>
      <point x="351" y="431" type="line"/>
      <point x="247" y="431" type="line" smooth="yes"/>
      <point x="153" y="431"/>
      <point x="110" y="417"/>
      <point x="78" y="385" type="curve" smooth="yes"/>
      <point x="54" y="361"/>
      <point x="37" y="325"/>
      <point x="37" y="281" type="curve" smooth="yes"/>
      <point x="37" y="155"/>
      <point x="145" y="23"/>
    </contour>
    <contour>
      <point x="274" y="96" type="curve" smooth="yes"/>
      <point x="195" y="96"/>
      <point x="118" y="196"/>
      <point x="118" y="275" type="curve" smooth="yes"/>
      <point x="118" y="299"/>
      <point x="123" y="319"/>
      <point x="137" y="334" type="curve" smooth="yes"/>
      <point x="156" y="355"/>
      <point x="182" y="360"/>
      <point x="263" y="360" type="curve" smooth="yes"/>
      <point x="351" y="360" type="line"/>
      <point x="351" y="199" type="line" smooth="yes"/>
      <point x="351" y="147"/>
      <point x="345" y="130"/>
      <point x="334" y="117" type="curve" smooth="yes"/>
      <point x="319" y="99"/>
      <point x="298" y="96"/>
    </contour>
    <contour>
      <point x="580" y="76" type="line"/>
      <point x="661" y="76" type="line"/>
      <point x="661" y="551" type="line"/>
      <point x="757" y="551" type="line"/>
      <point x="757" y="622" type="line"/>
      <point x="484" y="622" type="line"/>
      <point x="485" y="551" type="line"/>
      <point x="580" y="551" type="line"/>
    </contour>
  </outline>
</glyph>
<glyph name="hasubscript1guru" format="2">
  <outline>
    <contour>
      <point x="-210" y="-312" type="curve" smooth="yes"/>
      <point x="-165" y="-312"/>
      <point x="-139" y="-302"/>
      <point x="-121" y="-284" type="curve" smooth="yes"/>
      <point x="-97" y="-261"/>
      <point x="-92" y="-233"/>
      <point x="-92" y="-189" type="curve" smooth="yes"/>
      <point x="-92" y="46" type="line"/>
      <point x="-170" y="44" type="line"/>
      <point x="-170" y="-202" type="line" smooth="yes"/>
      <point x="-170" y="-236"/>
      <point x="-177" y="-250"/>
      <point x="-217" y="-250" type="curve" smooth="yes"/>
      <point x="-262" y="-250"/>
      <point x="-312" y="-210"/>
      <point x="-312" y="-172" type="curve" smooth="yes"/>
      <point x="-312" y="-140"/>
      <point x="-282" y="-137"/>
      <point x="-238" y="-137" type="curve"/>
      <point x="-235" y="-74" type="line"/>
      <point x="-241" y="-74" type="line" smooth="yes"/>
      <point x="-301" y="-74"/>
      <point x="-328" y="-81"/>
      <point x="-353" y="-99" type="curve" smooth="yes"/>
      <point x="-372" y="-112"/>
      <point x="-385" y="-135"/>
      <point x="-385" y="-161" type="curve" smooth="yes"/>
      <point x="-385" y="-242"/>
      <point x="-308" y="-312"/>
    </contour>
  </outline>
</glyph>
<glyph name="hasubscriptUIguru" format="2">
  <outline>
    <contour>
      <point x="-208" y="-271" type="curve" smooth="yes"/>
      <point x="-165" y="-271"/>
      <point x="-138" y="-261"/>
      <point x="-119" y="-243" type="curve" smooth="yes"/>
      <point x="-99" y="-224"/>
      <point x="-89" y="-201"/>
      <point x="-89" y="-148" type="curve" smooth="yes"/>
      <point x="-89" y="0" type="line"/>
      <point x="-170" y="0" type="line"/>
      <point x="-170" y="-161" type="line" smooth="yes"/>
      <point x="-170" y="-195"/>
      <point x="-176" y="-209"/>
      <point x="-217" y="-209" type="curve" smooth="yes"/>
      <point x="-260" y="-209"/>
      <point x="-312" y="-172"/>
      <point x="-312" y="-134" type="curve" smooth="yes"/>
      <point x="-312" y="-105"/>
      <point x="-282" y="-102"/>
      <point x="-238" y="-102" type="curve"/>
      <point x="-235" y="-39" type="line"/>
      <point x="-241" y="-39" type="line"/>
      <point x="-301" y="-39"/>
      <point x="-328" y="-47"/>
      <point x="-352" y="-63" type="curve" smooth="yes"/>
      <point x="-371" y="-76"/>
      <point x="-385" y="-99"/>
      <point x="-385" y="-124" type="curve" smooth="yes"/>
      <point x="-385" y="-205"/>
      <point x="-304" y="-271"/>
    </contour>
  </outline>
</glyph>
<glyph name="hasubscriptguru" format="2">
  <outline>
    <contour>
      <point x="-210" y="-312" type="curve" smooth="yes"/>
      <point x="-164" y="-312"/>
      <point x="-138" y="-302"/>
      <point x="-119" y="-284" type="curve" smooth="yes"/>
      <point x="-99" y="-265"/>
      <point x="-89" y="-242"/>
      <point x="-89" y="-189" type="curve" smooth="yes"/>
      <point x="-89" y="0" type="line"/>
      <point x="-170" y="0" type="line"/>
      <point x="-170" y="-202" type="line" smooth="yes"/>
      <point x="-170" y="-236"/>
      <point x="-177" y="-250"/>
      <point x="-217" y="-250" type="curve" smooth="yes"/>
      <point x="-262" y="-250"/>
      <point x="-312" y="-210"/>
      <point x="-312" y="-172" type="curve" smooth="yes"/>
      <point x="-312" y="-140"/>
      <point x="-282" y="-137"/>
      <point x="-238" y="-137" type="curve"/>
      <point x="-235" y="-74" type="line"/>
      <point x="-241" y="-74" type="line"/>
      <point x="-301" y="-74"/>
      <point x="-328" y="-81"/>
      <point x="-353" y="-99" type="curve" smooth="yes"/>
      <point x="-372" y="-112"/>
      <point x="-385" y="-135"/>
      <point x="-385" y="-163" type="curve" smooth="yes"/>
      <point x="-385" y="-242"/>
      <point x="-308" y="-312"/>
    </contour>
  </outline>
</glyph>
<glyph name="hasubscripthalantguru" format="2">
  <outline>
    <contour>
      <point x="-210" y="-287" type="curve" smooth="yes"/>
      <point x="-164" y="-287"/>
      <point x="-138" y="-277"/>
      <point x="-119" y="-259" type="curve" smooth="yes"/>
      <point x="-99" y="-240"/>
      <point x="-89" y="-216"/>
      <point x="-89" y="-164" type="curve" smooth="yes"/>
      <point x="-89" y="0" type="line"/>
      <point x="-170" y="0" type="line"/>
      <point x="-170" y="-177" type="line" smooth="yes"/>
      <point x="-170" y="-211"/>
      <point x="-177" y="-225"/>
      <point x="-217" y="-225" type="curve" smooth="yes"/>
      <point x="-262" y="-225"/>
      <point x="-312" y="-185"/>
      <point x="-312" y="-147" type="curve" smooth="yes"/>
      <point x="-312" y="-115"/>
      <point x="-282" y="-112"/>
      <point x="-238" y="-112" type="curve"/>
      <point x="-235" y="-49" type="line"/>
      <point x="-241" y="-49" type="line"/>
      <point x="-301" y="-49"/>
      <point x="-328" y="-57"/>
      <point x="-353" y="-74" type="curve" smooth="yes"/>
      <point x="-372" y="-87"/>
      <point x="-385" y="-110"/>
      <point x="-385" y="-138" type="curve" smooth="yes"/>
      <point x="-385" y="-217"/>
      <point x="-308" y="-287"/>
    </contour>
    <contour>
      <point x="108" y="-398" type="curve"/>
      <point x="176" y="-378" type="line"/>
      <point x="119" y="-253"/>
      <point x="28" y="-215"/>
      <point x="-69" y="-215" type="curve" smooth="yes"/>
      <point x="-80" y="-215"/>
      <point x="-87" y="-216"/>
      <point x="-93" y="-217" type="curve"/>
      <point x="-88" y="-290" type="line"/>
      <point x="-84" y="-290"/>
      <point x="-73" y="-290"/>
      <point x="-65" y="-290" type="curve" smooth="yes"/>
      <point x="-2" y="-290"/>
      <point x="58" y="-307"/>
    </contour>
  </outline>
</glyph>
<glyph name="hasubscriptuUIguru" format="2">
  <outline>
    <contour>
      <point x="-208" y="-188" type="curve" smooth="yes"/>
      <point x="-165" y="-188"/>
      <point x="-138" y="-180"/>
      <point x="-119" y="-162" type="curve" smooth="yes"/>
      <point x="-99" y="-143"/>
      <point x="-89" y="-120"/>
      <point x="-89" y="-67" type="curve" smooth="yes"/>
      <point x="-89" y="81" type="line"/>
      <point x="-170" y="81" type="line"/>
      <point x="-170" y="-80" type="line" smooth="yes"/>
      <point x="-170" y="-114"/>
      <point x="-176" y="-128"/>
      <point x="-217" y="-128" type="curve" smooth="yes"/>
      <point x="-260" y="-128"/>
      <point x="-312" y="-91"/>
      <point x="-312" y="-53" type="curve" smooth="yes"/>
      <point x="-312" y="-24"/>
      <point x="-282" y="-21"/>
      <point x="-238" y="-21" type="curve"/>
      <point x="-235" y="42" type="line"/>
      <point x="-241" y="42" type="line"/>
      <point x="-301" y="42"/>
      <point x="-328" y="34"/>
      <point x="-352" y="18" type="curve" smooth="yes"/>
      <point x="-371" y="5"/>
      <point x="-385" y="-18"/>
      <point x="-385" y="-43" type="curve" smooth="yes"/>
      <point x="-385" y="-125"/>
      <point x="-304" y="-188"/>
    </contour>
    <contour>
      <point x="-330" y="-268" type="curve" smooth="yes"/>
      <point x="-255" y="-268"/>
      <point x="-187" y="-243"/>
      <point x="-144" y="-216" type="curve"/>
      <point x="-158" y="-149" type="line"/>
      <point x="-203" y="-174"/>
      <point x="-249" y="-196"/>
      <point x="-330" y="-196" type="curve" smooth="yes"/>
      <point x="-403" y="-196"/>
      <point x="-455" y="-175"/>
      <point x="-501" y="-149" type="curve"/>
      <point x="-515" y="-216" type="line"/>
      <point x="-473" y="-243"/>
      <point x="-406" y="-268"/>
    </contour>
  </outline>
</glyph>
<glyph name="hasubscriptuguru" format="2">
  <outline>
    <contour>
      <point x="-210" y="-287" type="curve" smooth="yes"/>
      <point x="-164" y="-287"/>
      <point x="-138" y="-277"/>
      <point x="-119" y="-259" type="curve" smooth="yes"/>
      <point x="-97" y="-239"/>
      <point x="-89" y="-217"/>
      <point x="-89" y="-164" type="curve" smooth="yes"/>
      <point x="-89" y="0" type="line"/>
      <point x="-170" y="0" type="line"/>
      <point x="-170" y="-177" type="line" smooth="yes"/>
      <point x="-170" y="-211"/>
      <point x="-177" y="-225"/>
      <point x="-217" y="-225" type="curve" smooth="yes"/>
      <point x="-262" y="-225"/>
      <point x="-312" y="-185"/>
      <point x="-312" y="-147" type="curve" smooth="yes"/>
      <point x="-312" y="-115"/>
      <point x="-282" y="-112"/>
      <point x="-238" y="-112" type="curve"/>
      <point x="-235" y="-49" type="line"/>
      <point x="-241" y="-49" type="line"/>
      <point x="-301" y="-49"/>
      <point x="-328" y="-57"/>
      <point x="-353" y="-74" type="curve" smooth="yes"/>
      <point x="-372" y="-87"/>
      <point x="-385" y="-110"/>
      <point x="-385" y="-138" type="curve" smooth="yes"/>
      <point x="-385" y="-217"/>
      <point x="-308" y="-287"/>
    </contour>
    <contour>
      <point x="-305" y="-394" type="curve" smooth="yes"/>
      <point x="-224" y="-394"/>
      <point x="-156" y="-372"/>
      <point x="-113" y="-345" type="curve"/>
      <point x="-127" y="-280" type="line"/>
      <point x="-183" y="-309"/>
      <point x="-224" y="-323"/>
      <point x="-305" y="-323" type="curve" smooth="yes"/>
      <point x="-384" y="-323"/>
      <point x="-437" y="-301"/>
      <point x="-482" y="-275" type="curve"/>
      <point x="-497" y="-343" type="line"/>
      <point x="-454" y="-370"/>
      <point x="-387" y="-394"/>
    </contour>
  </outline>
</glyph>
<glyph name="hasubscriptuuUIguru" format="2">
  <outline>
    <contour>
      <point x="-208" y="-188" type="curve" smooth="yes"/>
      <point x="-165" y="-188"/>
      <point x="-138" y="-180"/>
      <point x="-119" y="-162" type="curve" smooth="yes"/>
      <point x="-99" y="-143"/>
      <point x="-89" y="-120"/>
      <point x="-89" y="-67" type="curve" smooth="yes"/>
      <point x="-89" y="81" type="line"/>
      <point x="-170" y="81" type="line"/>
      <point x="-170" y="-80" type="line" smooth="yes"/>
      <point x="-170" y="-114"/>
      <point x="-176" y="-128"/>
      <point x="-217" y="-128" type="curve" smooth="yes"/>
      <point x="-260" y="-128"/>
      <point x="-312" y="-91"/>
      <point x="-312" y="-53" type="curve" smooth="yes"/>
      <point x="-312" y="-24"/>
      <point x="-282" y="-21"/>
      <point x="-238" y="-21" type="curve"/>
      <point x="-235" y="42" type="line"/>
      <point x="-241" y="42" type="line"/>
      <point x="-301" y="42"/>
      <point x="-328" y="34"/>
      <point x="-352" y="18" type="curve" smooth="yes"/>
      <point x="-371" y="5"/>
      <point x="-385" y="-18"/>
      <point x="-385" y="-43" type="curve" smooth="yes"/>
      <point x="-385" y="-125"/>
      <point x="-304" y="-188"/>
    </contour>
    <contour>
      <point x="-387" y="-157" type="curve" smooth="yes"/>
      <point x="-351" y="-157"/>
      <point x="-319" y="-152"/>
      <point x="-291" y="-145" type="curve"/>
      <point x="-321" y="-88" type="line"/>
      <point x="-340" y="-92"/>
      <point x="-362" y="-94"/>
      <point x="-387" y="-94" type="curve" smooth="yes"/>
      <point x="-469" y="-94"/>
      <point x="-514" y="-72"/>
      <point x="-559" y="-46" type="curve"/>
      <point x="-573" y="-105" type="line"/>
      <point x="-531" y="-132"/>
      <point x="-468" y="-157"/>
    </contour>
    <contour>
      <point x="-387" y="-271" type="curve" smooth="yes"/>
      <point x="-306" y="-271"/>
      <point x="-243" y="-247"/>
      <point x="-202" y="-220" type="curve"/>
      <point x="-216" y="-160" type="line"/>
      <point x="-260" y="-186"/>
      <point x="-306" y="-208"/>
      <point x="-387" y="-208" type="curve" smooth="yes"/>
      <point x="-469" y="-208"/>
      <point x="-514" y="-186"/>
      <point x="-559" y="-160" type="curve"/>
      <point x="-573" y="-220" type="line"/>
      <point x="-531" y="-247"/>
      <point x="-468" y="-271"/>
    </contour>
  </outline>
</glyph>
<glyph name="hasubscriptuuguru" format="2">
  <outline>
    <contour>
      <point x="-210" y="-263" type="curve" smooth="yes"/>
      <point x="-164" y="-263"/>
      <point x="-138" y="-253"/>
      <point x="-119" y="-235" type="curve" smooth="yes"/>
      <point x="-99" y="-216"/>
      <point x="-89" y="-192"/>
      <point x="-89" y="-140" type="curve" smooth="yes"/>
      <point x="-89" y="0" type="line"/>
      <point x="-170" y="0" type="line"/>
      <point x="-170" y="-153" type="line" smooth="yes"/>
      <point x="-170" y="-187"/>
      <point x="-177" y="-201"/>
      <point x="-217" y="-201" type="curve" smooth="yes"/>
      <point x="-262" y="-201"/>
      <point x="-312" y="-161"/>
      <point x="-312" y="-123" type="curve" smooth="yes"/>
      <point x="-312" y="-91"/>
      <point x="-282" y="-88"/>
      <point x="-238" y="-88" type="curve"/>
      <point x="-235" y="-25" type="line"/>
      <point x="-241" y="-25" type="line"/>
      <point x="-301" y="-25"/>
      <point x="-328" y="-33"/>
      <point x="-353" y="-50" type="curve" smooth="yes"/>
      <point x="-372" y="-63"/>
      <point x="-385" y="-86"/>
      <point x="-385" y="-114" type="curve" smooth="yes"/>
      <point x="-385" y="-193"/>
      <point x="-308" y="-263"/>
    </contour>
    <contour>
      <point x="-333" y="-278" type="curve" smooth="yes"/>
      <point x="-252" y="-278"/>
      <point x="-185" y="-254"/>
      <point x="-142" y="-227" type="curve"/>
      <point x="-249" y="-204" type="line"/>
      <point x="-273" y="-210"/>
      <point x="-301" y="-213"/>
      <point x="-333" y="-213" type="curve" smooth="yes"/>
      <point x="-413" y="-213"/>
      <point x="-465" y="-192"/>
      <point x="-511" y="-166" type="curve"/>
      <point x="-526" y="-227" type="line"/>
      <point x="-483" y="-254"/>
      <point x="-415" y="-278"/>
    </contour>
    <contour>
      <point x="-333" y="-394" type="curve" smooth="yes"/>
      <point x="-252" y="-394"/>
      <point x="-185" y="-369"/>
      <point x="-142" y="-342" type="curve"/>
      <point x="-156" y="-282" type="line"/>
      <point x="-201" y="-307"/>
      <point x="-253" y="-329"/>
      <point x="-333" y="-329" type="curve" smooth="yes"/>
      <point x="-413" y="-329"/>
      <point x="-465" y="-308"/>
      <point x="-511" y="-282" type="curve"/>
      <point x="-526" y="-342" type="line"/>
      <point x="-483" y="-369"/>
      <point x="-415" y="-394"/>
    </contour>
  </outline>
</glyph>
<glyph name="iimatraaddakguru" format="2">
  <advance width="259"/>
  <outline>
    <contour>
      <point x="89" y="0" type="line"/>
      <point x="170" y="0" type="line"/>
      <point x="170" y="551" type="line"/>
      <point x="266" y="551" type="line"/>
      <point x="266" y="622" type="line"/>
      <point x="170" y="622" type="line"/>
      <point x="170" y="668" type="line" smooth="yes"/>
      <point x="170" y="804"/>
      <point x="126" y="896"/>
      <point x="-4" y="896" type="curve" smooth="yes"/>
      <point x="-110" y="896"/>
      <point x="-182" y="833"/>
      <point x="-182" y="721" type="curve" smooth="yes"/>
      <point x="-182" y="699"/>
      <point x="-179" y="676"/>
      <point x="-176" y="655" type="curve"/>
      <point x="-97" y="663" type="line"/>
      <point x="-100" y="679"/>
      <point x="-103" y="699"/>
      <point x="-103" y="721" type="curve" smooth="yes"/>
      <point x="-103" y="787"/>
      <point x="-76" y="826"/>
      <point x="-6" y="826" type="curve" smooth="yes"/>
      <point x="78" y="826"/>
      <point x="89" y="759"/>
      <point x="89" y="654" type="curve" smooth="yes"/>
      <point x="89" y="622" type="line"/>
      <point x="-7" y="622" type="line"/>
      <point x="-7" y="551" type="line"/>
      <point x="89" y="551" type="line"/>
    </contour>
    <contour>
      <point x="242" y="713" type="curve" smooth="yes"/>
      <point x="332" y="713"/>
      <point x="382" y="770"/>
      <point x="385" y="891" type="curve"/>
      <point x="310" y="896" type="line"/>
      <point x="310" y="807"/>
      <point x="287" y="780"/>
      <point x="241" y="780" type="curve" smooth="yes"/>
      <point x="198" y="780"/>
      <point x="174" y="806"/>
      <point x="174" y="896" type="curve"/>
      <point x="99" y="891" type="line"/>
      <point x="101" y="846"/>
      <point x="112" y="813"/>
      <point x="126" y="786" type="curve" smooth="yes"/>
      <point x="148" y="744"/>
      <point x="185" y="713"/>
    </contour>
  </outline>
</glyph>
<glyph name="karaguru" format="2">
  <advance width="622"/>
  <outline>
    <contour>
      <point x="383" y="-268" type="curve"/>
      <point x="443" y="-229" type="line"/>
      <point x="398" y="-168"/>
      <point x="353" y="-123"/>
      <point x="298" y="-97" type="curve"/>
      <point x="302" y="-77"/>
      <point x="305" y="-54"/>
      <point x="305" y="-16" type="curve" smooth="yes"/>
      <point x="305" y="146" type="line"/>
      <point x="227" y="146" type="line"/>
      <point x="227" y="-56" type="line" smooth="yes"/>
      <point x="227" y="-62"/>
      <point x="227" y="-69"/>
      <point x="226" y="-76" type="curve"/>
      <point x="209" y="-73"/>
      <point x="191" y="-70"/>
      <point x="172" y="-70" type="curve" smooth="yes"/>
      <point x="121" y="-70"/>
      <point x="79" y="-86"/>
      <point x="79" y="-131" type="curve" smooth="yes"/>
      <point x="79" y="-176"/>
      <point x="117" y="-193"/>
      <point x="165" y="-193" type="curve" smooth="yes"/>
      <point x="208" y="-193"/>
      <point x="239" y="-178"/>
      <point x="262" y="-154" type="curve"/>
      <point x="312" y="-180"/>
      <point x="351" y="-221"/>
    </contour>
    <component base="kaguru"/>
  </outline>
</glyph>
<glyph name="laUIguru" format="2">
  <advance width="674"/>
  <outline>
    <contour>
      <point x="337" y="265" type="curve"/>
      <point x="471" y="339"/>
      <point x="539" y="457"/>
      <point x="557" y="551" type="curve"/>
      <point x="681" y="551" type="line"/>
      <point x="681" y="622" type="line"/>
      <point x="-7" y="622" type="line"/>
      <point x="-7" y="551" type="line"/>
      <point x="117" y="551" type="line"/>
      <point x="138" y="436"/>
      <point x="229" y="322"/>
    </contour>
    <contour>
      <point x="475" y="551" type="line"/>
      <point x="457" y="451"/>
      <point x="394" y="379"/>
      <point x="317" y="339" type="curve"/>
      <point x="357" y="338" type="line"/>
      <point x="280" y="381"/>
      <point x="215" y="451"/>
      <point x="199" y="551" type="curve"/>
    </contour>
    <contour>
      <point x="39" y="250" type="curve" smooth="yes"/>
      <point x="39" y="177"/>
      <point x="83" y="68"/>
      <point x="248" y="68" type="curve" smooth="yes"/>
      <point x="254" y="68" type="line"/>
      <point x="259" y="141" type="line"/>
      <point x="248" y="141" type="line" smooth="yes"/>
      <point x="159" y="141"/>
      <point x="119" y="187"/>
      <point x="119" y="251" type="curve" smooth="yes"/>
      <point x="119" y="306"/>
      <point x="158" y="351"/>
      <point x="230" y="384" type="curve"/>
      <point x="186" y="441" type="line"/>
      <point x="87" y="392"/>
      <point x="39" y="323"/>
    </contour>
    <contour>
      <point x="635" y="250" type="curve" smooth="yes"/>
      <point x="635" y="324"/>
      <point x="588" y="390"/>
      <point x="487" y="440" type="curve"/>
      <point x="443" y="384" type="line"/>
      <point x="515" y="351"/>
      <point x="555" y="306"/>
      <point x="555" y="251" type="curve" smooth="yes"/>
      <point x="555" y="187"/>
      <point x="515" y="141"/>
      <point x="426" y="141" type="curve" smooth="yes"/>
      <point x="415" y="141" type="line"/>
      <point x="420" y="68" type="line"/>
      <point x="426" y="68" type="line" smooth="yes"/>
      <point x="590" y="68"/>
      <point x="635" y="177"/>
    </contour>
  </outline>
</glyph>
<glyph name="oomatra1guru" format="2">
  <outline>
    <contour>
      <point x="-168" y="615" type="curve"/>
      <point x="-95" y="615" type="line"/>
      <point x="-100" y="762"/>
      <point x="-161" y="800"/>
      <point x="-227" y="800" type="curve" smooth="yes"/>
      <point x="-248" y="800"/>
      <point x="-263" y="795"/>
      <point x="-294" y="795" type="curve" smooth="yes"/>
      <point x="-331" y="795"/>
      <point x="-348" y="828"/>
      <point x="-366" y="896" type="curve"/>
      <point x="-438" y="877" type="line"/>
      <point x="-406" y="758"/>
      <point x="-362" y="724"/>
      <point x="-304" y="724" type="curve" smooth="yes"/>
      <point x="-277" y="724"/>
      <point x="-258" y="729"/>
      <point x="-239" y="729" type="curve" smooth="yes"/>
      <point x="-192" y="729"/>
      <point x="-175" y="696"/>
    </contour>
  </outline>
</glyph>
<glyph name="oomatraaddakguru" format="2">
  <outline>
    <contour>
      <point x="-168" y="615" type="curve"/>
      <point x="-95" y="615" type="line"/>
      <point x="-107" y="758"/>
      <point x="-172" y="800"/>
      <point x="-238" y="800" type="curve" smooth="yes"/>
      <point x="-261" y="800"/>
      <point x="-290" y="795"/>
      <point x="-312" y="795" type="curve" smooth="yes"/>
      <point x="-365" y="795"/>
      <point x="-378" y="829"/>
      <point x="-400" y="896" type="curve"/>
      <point x="-471" y="877" type="line"/>
      <point x="-440" y="758"/>
      <point x="-390" y="724"/>
      <point x="-320" y="724" type="curve" smooth="yes"/>
      <point x="-294" y="724"/>
      <point x="-268" y="729"/>
      <point x="-246" y="729" type="curve" smooth="yes"/>
      <point x="-195" y="729"/>
      <point x="-181" y="696"/>
    </contour>
    <contour>
      <point x="-17" y="685" type="curve" smooth="yes"/>
      <point x="73" y="685"/>
      <point x="123" y="742"/>
      <point x="126" y="863" type="curve"/>
      <point x="51" y="868" type="line"/>
      <point x="51" y="778"/>
      <point x="28" y="752"/>
      <point x="-18" y="752" type="curve" smooth="yes"/>
      <point x="-63" y="752"/>
      <point x="-85" y="777"/>
      <point x="-85" y="868" type="curve"/>
      <point x="-161" y="863" type="line"/>
      <point x="-156" y="742"/>
      <point x="-98" y="685"/>
    </contour>
  </outline>
</glyph>
<glyph name="oomatrabindi1guru" format="2">
  <outline>
    <contour>
      <point x="-168" y="615" type="curve"/>
      <point x="-95" y="615" type="line"/>
      <point x="-100" y="762"/>
      <point x="-161" y="800"/>
      <point x="-227" y="800" type="curve" smooth="yes"/>
      <point x="-248" y="800"/>
      <point x="-263" y="795"/>
      <point x="-294" y="795" type="curve" smooth="yes"/>
      <point x="-331" y="795"/>
      <point x="-348" y="828"/>
      <point x="-366" y="896" type="curve"/>
      <point x="-438" y="877" type="line"/>
      <point x="-406" y="758"/>
      <point x="-362" y="724"/>
      <point x="-304" y="724" type="curve" smooth="yes"/>
      <point x="-277" y="724"/>
      <point x="-258" y="729"/>
      <point x="-239" y="729" type="curve" smooth="yes"/>
      <point x="-192" y="729"/>
      <point x="-175" y="696"/>
    </contour>
    <contour>
      <point x="-92" y="782" type="curve" smooth="yes"/>
      <point x="-60" y="782"/>
      <point x="-37" y="803"/>
      <point x="-37" y="839" type="curve" smooth="yes"/>
      <point x="-37" y="875"/>
      <point x="-62" y="896"/>
      <point x="-92" y="896" type="curve" smooth="yes"/>
      <point x="-122" y="896"/>
      <point x="-147" y="875"/>
      <point x="-147" y="839" type="curve" smooth="yes"/>
      <point x="-147" y="803"/>
      <point x="-122" y="782"/>
    </contour>
  </outline>
</glyph>
<glyph name="oomatrabindiguru" format="2">
  <outline>
    <contour>
      <point x="-168" y="615" type="curve"/>
      <point x="-95" y="615" type="line"/>
      <point x="-99" y="764"/>
      <point x="-166" y="800"/>
      <point x="-238" y="800" type="curve" smooth="yes"/>
      <point x="-261" y="800"/>
      <point x="-290" y="795"/>
      <point x="-313" y="795" type="curve" smooth="yes"/>
      <point x="-365" y="795"/>
      <point x="-378" y="829"/>
      <point x="-400" y="896" type="curve"/>
      <point x="-472" y="877" type="line"/>
      <point x="-440" y="758"/>
      <point x="-390" y="724"/>
      <point x="-320" y="724" type="curve" smooth="yes"/>
      <point x="-294" y="724"/>
      <point x="-269" y="729"/>
      <point x="-246" y="729" type="curve" smooth="yes"/>
      <point x="-195" y="729"/>
      <point x="-175" y="696"/>
    </contour>
    <contour>
      <point x="-92" y="782" type="curve" smooth="yes"/>
      <point x="-60" y="782"/>
      <point x="-37" y="803"/>
      <point x="-37" y="839" type="curve" smooth="yes"/>
      <point x="-37" y="875"/>
      <point x="-62" y="896"/>
      <point x="-92" y="896" type="curve" smooth="yes"/>
      <point x="-122" y="896"/>
      <point x="-147" y="875"/>
      <point x="-147" y="839" type="curve" smooth="yes"/>
      <point x="-147" y="803"/>
      <point x="-122" y="782"/>
    </contour>
  </outline>
</glyph>
<glyph name="phuunuktaUIguru" format="2">
  <advance width="579"/>
  <outline>
    <contour>
      <point x="349" y="-157" type="curve" smooth="yes"/>
      <point x="427" y="-157"/>
      <point x="490" y="-132"/>
      <point x="531" y="-105" type="curve"/>
      <point x="517" y="-46" type="line"/>
      <point x="473" y="-72"/>
      <point x="427" y="-94"/>
      <point x="349" y="-94" type="curve" smooth="yes"/>
      <point x="270" y="-94"/>
      <point x="225" y="-72"/>
      <point x="180" y="-46" type="curve"/>
      <point x="166" y="-105" type="line"/>
      <point x="208" y="-132"/>
      <point x="271" y="-157"/>
    </contour>
    <contour>
      <point x="349" y="-271" type="curve" smooth="yes"/>
      <point x="427" y="-271"/>
      <point x="490" y="-247"/>
      <point x="531" y="-220" type="curve"/>
      <point x="517" y="-160" type="line"/>
      <point x="473" y="-186"/>
      <point x="427" y="-208"/>
      <point x="349" y="-208" type="curve" smooth="yes"/>
      <point x="270" y="-208"/>
      <point x="225" y="-186"/>
      <point x="180" y="-160" type="curve"/>
      <point x="166" y="-220" type="line"/>
      <point x="208" y="-247"/>
      <point x="271" y="-271"/>
    </contour>
    <component base="phaguru"/>
    <component base="nuktaguru" xOffset="385" yOffset="95"/>
  </outline>
</glyph>
<glyph name="raUIguru" format="2">
  <advance width="579"/>
  <outline>
    <contour>
      <point x="310" y="73" type="curve" smooth="yes"/>
      <point x="433" y="73"/>
      <point x="490" y="129"/>
      <point x="490" y="245" type="curve" smooth="yes"/>
      <point x="490" y="551" type="line"/>
      <point x="586" y="551" type="line"/>
      <point x="586" y="622" type="line"/>
      <point x="-7" y="622" type="line"/>
      <point x="-7" y="551" type="line"/>
      <point x="409" y="551" type="line"/>
      <point x="409" y="435" type="line"/>
      <point x="264" y="435" type="line" smooth="yes"/>
      <point x="161" y="435"/>
      <point x="115" y="423"/>
      <point x="80" y="395" type="curve" smooth="yes"/>
      <point x="54" y="374"/>
      <point x="37" y="344"/>
      <point x="37" y="302" type="curve" smooth="yes"/>
      <point x="37" y="185"/>
      <point x="167" y="73"/>
    </contour>
    <contour>
      <point x="317" y="146" type="curve" smooth="yes"/>
      <point x="219" y="146"/>
      <point x="118" y="223"/>
      <point x="118" y="293" type="curve" smooth="yes"/>
      <point x="118" y="313"/>
      <point x="124" y="330"/>
      <point x="139" y="342" type="curve" smooth="yes"/>
      <point x="161" y="359"/>
      <point x="194" y="363"/>
      <point x="271" y="363" type="curve" smooth="yes"/>
      <point x="409" y="363" type="line"/>
      <point x="409" y="256" type="line" smooth="yes"/>
      <point x="409" y="201"/>
      <point x="402" y="183"/>
      <point x="390" y="169" type="curve" smooth="yes"/>
      <point x="374" y="151"/>
      <point x="347" y="146"/>
    </contour>
  </outline>
</glyph>
<glyph name="rasubscript1guru" format="2">
  <outline>
    <contour>
      <point x="-14" y="-268" type="curve"/>
      <point x="45" y="-229" type="line"/>
      <point x="1" y="-168"/>
      <point x="-44" y="-123"/>
      <point x="-100" y="-97" type="curve"/>
      <point x="-94" y="-79"/>
      <point x="-92" y="-57"/>
      <point x="-92" y="-17" type="curve" smooth="yes"/>
      <point x="-92" y="63" type="line"/>
      <point x="-170" y="44" type="line"/>
      <point x="-170" y="-56" type="line" smooth="yes"/>
      <point x="-170" y="-62"/>
      <point x="-170" y="-69"/>
      <point x="-171" y="-76" type="curve"/>
      <point x="-188" y="-73"/>
      <point x="-207" y="-70"/>
      <point x="-226" y="-70" type="curve" smooth="yes"/>
      <point x="-276" y="-70"/>
      <point x="-318" y="-86"/>
      <point x="-318" y="-131" type="curve" smooth="yes"/>
      <point x="-318" y="-176"/>
      <point x="-280" y="-193"/>
      <point x="-233" y="-193" type="curve" smooth="yes"/>
      <point x="-189" y="-193"/>
      <point x="-158" y="-178"/>
      <point x="-135" y="-154" type="curve"/>
      <point x="-85" y="-180"/>
      <point x="-46" y="-221"/>
    </contour>
  </outline>
</glyph>
<glyph name="rasubscripthalantguru" format="2">
  <outline>
    <contour>
      <point x="-14" y="-238" type="curve"/>
      <point x="45" y="-199" type="line"/>
      <point x="1" y="-139"/>
      <point x="-44" y="-93"/>
      <point x="-100" y="-67" type="curve"/>
      <point x="-93" y="-47"/>
      <point x="-89" y="-22"/>
      <point x="-89" y="-1" type="curve" smooth="yes"/>
      <point x="-89" y="0" type="line"/>
      <point x="-170" y="0" type="line"/>
      <point x="-170" y="-26" type="line" smooth="yes"/>
      <point x="-170" y="-32"/>
      <point x="-171" y="-40"/>
      <point x="-173" y="-46" type="curve"/>
      <point x="-190" y="-43"/>
      <point x="-207" y="-41"/>
      <point x="-226" y="-41" type="curve" smooth="yes"/>
      <point x="-276" y="-41"/>
      <point x="-318" y="-56"/>
      <point x="-318" y="-101" type="curve" smooth="yes"/>
      <point x="-318" y="-146"/>
      <point x="-280" y="-164"/>
      <point x="-233" y="-164" type="curve" smooth="yes"/>
      <point x="-189" y="-164"/>
      <point x="-158" y="-148"/>
      <point x="-135" y="-125" type="curve"/>
      <point x="-85" y="-150"/>
      <point x="-46" y="-191"/>
    </contour>
    <contour>
      <point x="16" y="-394" type="curve"/>
      <point x="83" y="-371" type="line"/>
      <point x="23" y="-244"/>
      <point x="-84" y="-206"/>
      <point x="-197" y="-206" type="curve" smooth="yes"/>
      <point x="-208" y="-206"/>
      <point x="-216" y="-207"/>
      <point x="-222" y="-207" type="curve"/>
      <point x="-217" y="-283" type="line"/>
      <point x="-212" y="-282"/>
      <point x="-206" y="-282"/>
      <point x="-189" y="-282" type="curve" smooth="yes"/>
      <point x="-119" y="-282"/>
      <point x="-37" y="-297"/>
    </contour>
  </outline>
</glyph>
<glyph name="rasubscriptuUIguru" format="2">
  <outline>
    <contour>
      <point x="-14" y="-231" type="curve"/>
      <point x="45" y="-192" type="line"/>
      <point x="1" y="-132"/>
      <point x="-44" y="-86"/>
      <point x="-100" y="-61" type="curve"/>
      <point x="-93" y="-41"/>
      <point x="-89" y="-21"/>
      <point x="-89" y="0" type="curve"/>
      <point x="-170" y="0" type="line"/>
      <point x="-170" y="-20" type="line" smooth="yes"/>
      <point x="-170" y="-26"/>
      <point x="-170" y="-33"/>
      <point x="-171" y="-40" type="curve"/>
      <point x="-188" y="-37"/>
      <point x="-207" y="-34"/>
      <point x="-226" y="-34" type="curve" smooth="yes"/>
      <point x="-276" y="-34"/>
      <point x="-318" y="-50"/>
      <point x="-318" y="-95" type="curve" smooth="yes"/>
      <point x="-318" y="-140"/>
      <point x="-280" y="-157"/>
      <point x="-233" y="-157" type="curve" smooth="yes"/>
      <point x="-189" y="-157"/>
      <point x="-158" y="-142"/>
      <point x="-135" y="-118" type="curve"/>
      <point x="-85" y="-144"/>
      <point x="-46" y="-185"/>
    </contour>
    <contour>
      <point x="-305" y="-267" type="curve" smooth="yes"/>
      <point x="-224" y="-267"/>
      <point x="-156" y="-243"/>
      <point x="-113" y="-216" type="curve"/>
      <point x="-127" y="-149" type="line"/>
      <point x="-172" y="-174"/>
      <point x="-228" y="-196"/>
      <point x="-305" y="-196" type="curve" smooth="yes"/>
      <point x="-384" y="-196"/>
      <point x="-437" y="-175"/>
      <point x="-482" y="-149" type="curve"/>
      <point x="-497" y="-216" type="line"/>
      <point x="-454" y="-243"/>
      <point x="-387" y="-267"/>
    </contour>
  </outline>
</glyph>
<glyph name="rasubscriptuguru" format="2">
  <outline>
    <contour>
      <point x="-14" y="-268" type="curve"/>
      <point x="45" y="-229" type="line"/>
      <point x="1" y="-168"/>
      <point x="-44" y="-123"/>
      <point x="-100" y="-97" type="curve"/>
      <point x="-93" y="-77"/>
      <point x="-89" y="-54"/>
      <point x="-89" y="-31" type="curve" smooth="yes"/>
      <point x="-89" y="0" type="line"/>
      <point x="-170" y="0" type="line"/>
      <point x="-170" y="-56" type="line" smooth="yes"/>
      <point x="-170" y="-62"/>
      <point x="-170" y="-69"/>
      <point x="-171" y="-76" type="curve"/>
      <point x="-188" y="-73"/>
      <point x="-207" y="-70"/>
      <point x="-226" y="-70" type="curve" smooth="yes"/>
      <point x="-276" y="-70"/>
      <point x="-318" y="-86"/>
      <point x="-318" y="-131" type="curve" smooth="yes"/>
      <point x="-318" y="-176"/>
      <point x="-280" y="-193"/>
      <point x="-233" y="-193" type="curve" smooth="yes"/>
      <point x="-189" y="-193"/>
      <point x="-158" y="-178"/>
      <point x="-135" y="-154" type="curve"/>
      <point x="-85" y="-180"/>
      <point x="-46" y="-221"/>
    </contour>
    <contour>
      <point x="-305" y="-335" type="curve" smooth="yes"/>
      <point x="-224" y="-335"/>
      <point x="-156" y="-311"/>
      <point x="-113" y="-284" type="curve"/>
      <point x="-127" y="-217" type="line"/>
      <point x="-172" y="-242"/>
      <point x="-228" y="-264"/>
      <point x="-305" y="-264" type="curve" smooth="yes"/>
      <point x="-384" y="-264"/>
      <point x="-437" y="-243"/>
      <point x="-482" y="-217" type="curve"/>
      <point x="-497" y="-284" type="line"/>
      <point x="-454" y="-311"/>
      <point x="-387" y="-335"/>
    </contour>
  </outline>
</glyph>
<glyph name="rasubscriptuuUIguru" format="2">
  <outline>
    <contour>
      <point x="-14" y="-151" type="curve"/>
      <point x="45" y="-112" type="line"/>
      <point x="1" y="-52"/>
      <point x="-44" y="-6"/>
      <point x="-100" y="20" type="curve"/>
      <point x="-93" y="40"/>
      <point x="-89" y="60"/>
      <point x="-89" y="81" type="curve"/>
      <point x="-170" y="81" type="line"/>
      <point x="-170" y="61" type="line" smooth="yes"/>
      <point x="-170" y="55"/>
      <point x="-170" y="47"/>
      <point x="-171" y="41" type="curve"/>
      <point x="-188" y="44"/>
      <point x="-207" y="46"/>
      <point x="-226" y="46" type="curve" smooth="yes"/>
      <point x="-276" y="46"/>
      <point x="-318" y="31"/>
      <point x="-318" y="-14" type="curve" smooth="yes"/>
      <point x="-318" y="-59"/>
      <point x="-280" y="-77"/>
      <point x="-228" y="-77" type="curve" smooth="yes"/>
      <point x="-189" y="-77"/>
      <point x="-158" y="-62"/>
      <point x="-135" y="-38" type="curve"/>
      <point x="-85" y="-63"/>
      <point x="-46" y="-104"/>
    </contour>
    <contour>
      <point x="-331" y="-158" type="curve" smooth="yes"/>
      <point x="-250" y="-158"/>
      <point x="-187" y="-133"/>
      <point x="-145" y="-106" type="curve"/>
      <point x="-159" y="-47" type="line"/>
      <point x="-203" y="-73"/>
      <point x="-249" y="-95"/>
      <point x="-331" y="-95" type="curve" smooth="yes"/>
      <point x="-412" y="-95"/>
      <point x="-458" y="-73"/>
      <point x="-502" y="-47" type="curve"/>
      <point x="-516" y="-106" type="line"/>
      <point x="-475" y="-133"/>
      <point x="-412" y="-158"/>
    </contour>
    <contour>
      <point x="-331" y="-271" type="curve" smooth="yes"/>
      <point x="-250" y="-271"/>
      <point x="-187" y="-247"/>
      <point x="-145" y="-220" type="curve"/>
      <point x="-159" y="-160" type="line"/>
      <point x="-203" y="-186"/>
      <point x="-249" y="-208"/>
      <point x="-331" y="-208" type="curve" smooth="yes"/>
      <point x="-412" y="-208"/>
      <point x="-458" y="-186"/>
      <point x="-502" y="-160" type="curve"/>
      <point x="-516" y="-220" type="line"/>
      <point x="-475" y="-247"/>
      <point x="-412" y="-271"/>
    </contour>
  </outline>
</glyph>
<glyph name="rasubscriptuuguru" format="2">
  <outline>
    <contour>
      <point x="-14" y="-238" type="curve"/>
      <point x="45" y="-199" type="line"/>
      <point x="1" y="-139"/>
      <point x="-44" y="-93"/>
      <point x="-100" y="-67" type="curve"/>
      <point x="-93" y="-47"/>
      <point x="-89" y="-27"/>
      <point x="-89" y="-5" type="curve" smooth="yes"/>
      <point x="-89" y="0" type="line"/>
      <point x="-170" y="0" type="line"/>
      <point x="-170" y="-26" type="line" smooth="yes"/>
      <point x="-170" y="-32"/>
      <point x="-171" y="-40"/>
      <point x="-172" y="-46" type="curve"/>
      <point x="-189" y="-43"/>
      <point x="-207" y="-41"/>
      <point x="-226" y="-41" type="curve" smooth="yes"/>
      <point x="-276" y="-41"/>
      <point x="-318" y="-56"/>
      <point x="-318" y="-101" type="curve" smooth="yes"/>
      <point x="-318" y="-146"/>
      <point x="-280" y="-164"/>
      <point x="-233" y="-164" type="curve" smooth="yes"/>
      <point x="-189" y="-164"/>
      <point x="-158" y="-148"/>
      <point x="-135" y="-125" type="curve"/>
      <point x="-85" y="-150"/>
      <point x="-46" y="-191"/>
    </contour>
    <contour>
      <point x="-305" y="-278" type="curve" smooth="yes"/>
      <point x="-224" y="-278"/>
      <point x="-156" y="-254"/>
      <point x="-113" y="-227" type="curve"/>
      <point x="-127" y="-166" type="line"/>
      <point x="-172" y="-191"/>
      <point x="-225" y="-213"/>
      <point x="-305" y="-213" type="curve" smooth="yes"/>
      <point x="-385" y="-213"/>
      <point x="-437" y="-192"/>
      <point x="-482" y="-166" type="curve"/>
      <point x="-497" y="-227" type="line"/>
      <point x="-454" y="-254"/>
      <point x="-386" y="-278"/>
    </contour>
    <contour>
      <point x="-305" y="-394" type="curve" smooth="yes"/>
      <point x="-224" y="-394"/>
      <point x="-156" y="-369"/>
      <point x="-113" y="-342" type="curve"/>
      <point x="-127" y="-282" type="line"/>
      <point x="-172" y="-307"/>
      <point x="-225" y="-329"/>
      <point x="-305" y="-329" type="curve" smooth="yes"/>
      <point x="-385" y="-329"/>
      <point x="-437" y="-308"/>
      <point x="-482" y="-282" type="curve"/>
      <point x="-497" y="-342" type="line"/>
      <point x="-454" y="-369"/>
      <point x="-387" y="-394"/>
    </contour>
  </outline>
</glyph>
<glyph name="sanuktaUIguru" format="2">
  <advance width="603"/>
  <outline>
    <contour>
      <point x="433" y="76" type="line"/>
      <point x="514" y="76" type="line"/>
      <point x="514" y="551" type="line"/>
      <point x="610" y="551" type="line"/>
      <point x="610" y="622" type="line"/>
      <point x="-7" y="622" type="line"/>
      <point x="-7" y="551" type="line"/>
      <point x="103" y="551" type="line"/>
      <point x="67" y="565" type="line"/>
      <point x="97" y="485"/>
      <point x="115" y="389"/>
      <point x="119" y="302" type="curve"/>
      <point x="70" y="250"/>
      <point x="58" y="187"/>
      <point x="58" y="159" type="curve" smooth="yes"/>
      <point x="58" y="116"/>
      <point x="78" y="103"/>
      <point x="105" y="103" type="curve" smooth="yes"/>
      <point x="158" y="103"/>
      <point x="187" y="170"/>
      <point x="192" y="275" type="curve"/>
      <point x="433" y="275" type="line"/>
    </contour>
    <contour>
      <point x="193" y="347" type="line"/>
      <point x="192" y="410"/>
      <point x="179" y="486"/>
      <point x="152" y="565" type="curve"/>
      <point x="140" y="551" type="line"/>
      <point x="433" y="551" type="line"/>
      <point x="433" y="347" type="line"/>
    </contour>
    <contour>
      <point x="289" y="70" type="curve" smooth="yes"/>
      <point x="321" y="70"/>
      <point x="344" y="91"/>
      <point x="344" y="127" type="curve" smooth="yes"/>
      <point x="344" y="164"/>
      <point x="319" y="185"/>
      <point x="289" y="185" type="curve" smooth="yes"/>
      <point x="259" y="185"/>
      <point x="234" y="164"/>
      <point x="234" y="127" type="curve" smooth="yes"/>
      <point x="234" y="91"/>
      <point x="259" y="70"/>
    </contour>
  </outline>
</glyph>
<glyph name="taUIguru" format="2">
  <advance width="542"/>
  <outline>
    <contour>
      <point x="250" y="59" type="curve" smooth="yes"/>
      <point x="391" y="59"/>
      <point x="488" y="121"/>
      <point x="488" y="227" type="curve" smooth="yes"/>
      <point x="488" y="302"/>
      <point x="444" y="350"/>
      <point x="377" y="383" type="curve"/>
      <point x="427" y="412"/>
      <point x="463" y="443"/>
      <point x="463" y="527" type="curve" smooth="yes"/>
      <point x="463" y="551"/>
      <point x="460" y="576"/>
      <point x="455" y="592" type="curve"/>
      <point x="424" y="551" type="line"/>
      <point x="549" y="551" type="line"/>
      <point x="549" y="622" type="line"/>
      <point x="-7" y="622" type="line"/>
      <point x="-7" y="551" type="line"/>
      <point x="414" y="551" type="line"/>
      <point x="370" y="594" type="line"/>
      <point x="379" y="574"/>
      <point x="382" y="552"/>
      <point x="382" y="528" type="curve" smooth="yes"/>
      <point x="382" y="463"/>
      <point x="349" y="433"/>
      <point x="302" y="414" type="curve"/>
      <point x="256" y="431"/>
      <point x="210" y="440"/>
      <point x="157" y="440" type="curve" smooth="yes"/>
      <point x="108" y="440"/>
      <point x="69" y="428"/>
      <point x="69" y="390" type="curve" smooth="yes"/>
      <point x="69" y="362"/>
      <point x="89" y="333"/>
      <point x="181" y="333" type="curve" smooth="yes"/>
      <point x="222" y="333"/>
      <point x="264" y="339"/>
      <point x="294" y="345" type="curve"/>
      <point x="363" y="321"/>
      <point x="406" y="279"/>
      <point x="406" y="230" type="curve" smooth="yes"/>
      <point x="406" y="163"/>
      <point x="335" y="132"/>
      <point x="248" y="132" type="curve" smooth="yes"/>
      <point x="174" y="132"/>
      <point x="109" y="151"/>
      <point x="45" y="186" type="curve"/>
      <point x="13" y="116" type="line"/>
      <point x="78" y="82"/>
      <point x="160" y="59"/>
    </contour>
  </outline>
</glyph>
<glyph name="uaddakaltguru" format="2">
  <advance width="734"/>
  <outline>
    <contour>
      <point x="741" y="551" type="line"/>
      <point x="741" y="622" type="line"/>
      <point x="671" y="622" type="line"/>
      <point x="671" y="551" type="line"/>
    </contour>
    <component base="uraaddakguru"/>
    <component base="umatraguru" xOffset="641"/>
  </outline>
</glyph>
<glyph name="udaatUIguru" format="2">
  <outline>
    <contour>
      <point x="55" y="-268" type="curve"/>
      <point x="72" y="-196" type="line"/>
      <point x="-10" y="-183"/>
      <point x="-55" y="-142"/>
      <point x="-99" y="-29" type="curve"/>
      <point x="-170" y="-51" type="line"/>
      <point x="-116" y="-210"/>
      <point x="-32" y="-256"/>
    </contour>
  </outline>
</glyph>
<glyph name="udaathalantguru" format="2">
  <outline>
    <contour>
      <point x="55" y="-243" type="curve"/>
      <point x="72" y="-171" type="line"/>
      <point x="-11" y="-159"/>
      <point x="-53" y="-141"/>
      <point x="-99" y="-29" type="curve"/>
      <point x="-170" y="-51" type="line"/>
      <point x="-119" y="-197"/>
      <point x="-41" y="-223"/>
    </contour>
    <contour>
      <point x="24" y="-398" type="curve"/>
      <point x="92" y="-378" type="line"/>
      <point x="35" y="-253"/>
      <point x="-56" y="-215"/>
      <point x="-153" y="-215" type="curve" smooth="yes"/>
      <point x="-164" y="-215"/>
      <point x="-171" y="-216"/>
      <point x="-177" y="-217" type="curve"/>
      <point x="-172" y="-290" type="line"/>
      <point x="-168" y="-290"/>
      <point x="-157" y="-290"/>
      <point x="-149" y="-290" type="curve" smooth="yes"/>
      <point x="-86" y="-290"/>
      <point x="-26" y="-307"/>
    </contour>
  </outline>
</glyph>
<glyph name="udaatuUIguru" format="2">
  <outline>
    <contour>
      <point x="55" y="-268" type="curve"/>
      <point x="72" y="-196" type="line"/>
      <point x="-10" y="-183"/>
      <point x="-55" y="-142"/>
      <point x="-99" y="-29" type="curve"/>
      <point x="-170" y="-51" type="line"/>
      <point x="-116" y="-210"/>
      <point x="-32" y="-256"/>
    </contour>
    <contour>
      <point x="-329" y="-268" type="curve" smooth="yes"/>
      <point x="-248" y="-268"/>
      <point x="-180" y="-243"/>
      <point x="-137" y="-216" type="curve"/>
      <point x="-151" y="-149" type="line"/>
      <point x="-196" y="-174"/>
      <point x="-251" y="-196"/>
      <point x="-329" y="-196" type="curve" smooth="yes"/>
      <point x="-408" y="-196"/>
      <point x="-460" y="-175"/>
      <point x="-506" y="-149" type="curve"/>
      <point x="-520" y="-216" type="line"/>
      <point x="-478" y="-243"/>
      <point x="-411" y="-268"/>
    </contour>
  </outline>
</glyph>
<glyph name="udaatuguru" format="2">
  <outline>
    <contour>
      <point x="114" y="-310" type="curve"/>
      <point x="118" y="-234" type="line"/>
      <point x="112" y="-235"/>
      <point x="108" y="-235"/>
      <point x="102" y="-235" type="curve" smooth="yes"/>
      <point x="11" y="-235"/>
      <point x="-59" y="-189"/>
      <point x="-98" y="-30" type="curve"/>
      <point x="-169" y="-52" type="line"/>
      <point x="-126" y="-229"/>
      <point x="-39" y="-312"/>
      <point x="95" y="-312" type="curve" smooth="yes"/>
      <point x="101" y="-312"/>
      <point x="110" y="-311"/>
    </contour>
    <contour>
      <point x="-305" y="-335" type="curve" smooth="yes"/>
      <point x="-224" y="-335"/>
      <point x="-156" y="-311"/>
      <point x="-113" y="-284" type="curve"/>
      <point x="-127" y="-216" type="line"/>
      <point x="-172" y="-242"/>
      <point x="-228" y="-264"/>
      <point x="-305" y="-264" type="curve" smooth="yes"/>
      <point x="-384" y="-264"/>
      <point x="-437" y="-242"/>
      <point x="-482" y="-216" type="curve"/>
      <point x="-497" y="-284" type="line"/>
      <point x="-454" y="-311"/>
      <point x="-387" y="-335"/>
    </contour>
  </outline>
</glyph>
<glyph name="udaatuuUIguru" format="2">
  <outline>
    <contour>
      <point x="78" y="-253" type="curve"/>
      <point x="95" y="-181" type="line"/>
      <point x="13" y="-168"/>
      <point x="-32" y="-127"/>
      <point x="-76" y="-14" type="curve"/>
      <point x="-147" y="-36" type="line"/>
      <point x="-93" y="-195"/>
      <point x="-9" y="-241"/>
    </contour>
    <contour>
      <point x="-324" y="-157" type="curve" smooth="yes"/>
      <point x="-248" y="-157"/>
      <point x="-185" y="-132"/>
      <point x="-144" y="-105" type="curve"/>
      <point x="-158" y="-46" type="line"/>
      <point x="-202" y="-72"/>
      <point x="-248" y="-94"/>
      <point x="-324" y="-94" type="curve" smooth="yes"/>
      <point x="-401" y="-94"/>
      <point x="-446" y="-72"/>
      <point x="-491" y="-46" type="curve"/>
      <point x="-505" y="-105" type="line"/>
      <point x="-463" y="-132"/>
      <point x="-400" y="-157"/>
    </contour>
    <contour>
      <point x="-324" y="-271" type="curve" smooth="yes"/>
      <point x="-248" y="-271"/>
      <point x="-185" y="-247"/>
      <point x="-144" y="-220" type="curve"/>
      <point x="-158" y="-160" type="line"/>
      <point x="-202" y="-186"/>
      <point x="-248" y="-208"/>
      <point x="-324" y="-208" type="curve" smooth="yes"/>
      <point x="-401" y="-208"/>
      <point x="-446" y="-186"/>
      <point x="-491" y="-160" type="curve"/>
      <point x="-505" y="-220" type="line"/>
      <point x="-463" y="-247"/>
      <point x="-400" y="-271"/>
    </contour>
  </outline>
</glyph>
<glyph name="udaatuuguru" format="2">
  <outline>
    <contour>
      <point x="55" y="-243" type="curve"/>
      <point x="72" y="-171" type="line"/>
      <point x="-11" y="-159"/>
      <point x="-53" y="-141"/>
      <point x="-99" y="-29" type="curve"/>
      <point x="-170" y="-51" type="line"/>
      <point x="-119" y="-197"/>
      <point x="-41" y="-223"/>
    </contour>
    <contour>
      <point x="-305" y="-278" type="curve" smooth="yes"/>
      <point x="-224" y="-278"/>
      <point x="-156" y="-254"/>
      <point x="-113" y="-227" type="curve"/>
      <point x="-127" y="-166" type="line"/>
      <point x="-172" y="-191"/>
      <point x="-225" y="-213"/>
      <point x="-305" y="-213" type="curve" smooth="yes"/>
      <point x="-384" y="-213"/>
      <point x="-436" y="-192"/>
      <point x="-482" y="-166" type="curve"/>
      <point x="-496" y="-227" type="line"/>
      <point x="-453" y="-254"/>
      <point x="-386" y="-278"/>
    </contour>
    <contour>
      <point x="-305" y="-394" type="curve" smooth="yes"/>
      <point x="-223" y="-394"/>
      <point x="-156" y="-369"/>
      <point x="-113" y="-342" type="curve"/>
      <point x="-127" y="-281" type="line"/>
      <point x="-172" y="-306"/>
      <point x="-224" y="-328"/>
      <point x="-305" y="-328" type="curve" smooth="yes"/>
      <point x="-384" y="-328"/>
      <point x="-436" y="-307"/>
      <point x="-482" y="-281" type="curve"/>
      <point x="-496" y="-342" type="line"/>
      <point x="-453" y="-369"/>
      <point x="-386" y="-394"/>
    </contour>
  </outline>
</glyph>
<glyph name="umatralow1guru" format="2">
  <outline>
    <contour>
      <point x="-305" y="-238" type="curve" smooth="yes"/>
      <point x="-236" y="-238"/>
      <point x="-167" y="-220"/>
      <point x="-113" y="-187" type="curve"/>
      <point x="-127" y="-119" type="line"/>
      <point x="-186" y="-152"/>
      <point x="-241" y="-167"/>
      <point x="-305" y="-167" type="curve" smooth="yes"/>
      <point x="-370" y="-167"/>
      <point x="-424" y="-152"/>
      <point x="-482" y="-119" type="curve"/>
      <point x="-497" y="-187" type="line"/>
      <point x="-442" y="-220"/>
      <point x="-374" y="-238"/>
    </contour>
  </outline>
</glyph>
<glyph name="umatralowUIguru" format="2">
  <outline>
    <contour>
      <point x="-309" y="-268" type="curve" smooth="yes"/>
      <point x="-228" y="-268"/>
      <point x="-160" y="-243"/>
      <point x="-117" y="-216" type="curve"/>
      <point x="-131" y="-149" type="line"/>
      <point x="-176" y="-174"/>
      <point x="-231" y="-196"/>
      <point x="-309" y="-196" type="curve" smooth="yes"/>
      <point x="-388" y="-196"/>
      <point x="-440" y="-175"/>
      <point x="-486" y="-149" type="curve"/>
      <point x="-500" y="-216" type="line"/>
      <point x="-458" y="-243"/>
      <point x="-391" y="-268"/>
    </contour>
  </outline>
</glyph>
